{
.appVersion = "3133";
.formatVersion = 3;
classes = (
{
automatic = 1;

glyphs = (
{
glyphname = A;
kernLeft = A;
kernRight = A;
lastChange = "2016-08-09 00:59:50 +0000";
layers = (
{
anchors = (
{
name = bottom;
pos = (309,0);
},
{
name = ogonek;
pos = (555,10);
},
{
name = top;
pos = (309,709);
}
);
layerId = UUID0;
shapes = (
{
closed = 1;
nodes = (
(154,190,l),
(435,190,l),
(488,53,l),
(505,6,o),
(544,0,o),
(563,0,cs),
(592,0,o),
(602,16,o),
(602,33,cs),
(602,38,o),
(601,43,o),
(600,48,c),
(371,682,l),
(365,700,o),
(337,709,o),
(310,709,cs),
(285,709,o),
(261,701,o),
(255,685,c),
(20,52,l),
(17,44,o),
(15,35,o),
(15,27,cs),
(15,12,o),
(23,0,o),
(42,0,cs),
(61,0,o),
(85,6,o),
(103,53,c)
);
},
{
closed = 1;
nodes = (
(420,242,l),
(170,242,l),
(293,591,l),
(299,591,l)
);
}
);
width = 617;
}
);
unicode = 65;
},
{
glyphname = AE;
kernLeft = A;
kernRight = E;
lastChange = "2016-08-09 00:16:14 +0000";
layers = (
{
anchors = (
{
name = bottom;
pos = (419,0);
},
{
name = top;
pos = (479,709);
}
);
layerId = UUID0;
shapes = (
{
closed = 1;
nodes = (
(769,535,o),
(783,550,o),
(783,585,c),
(783,672,l),
(783,702,o),
(762,709,o),
(723,709,c),
(433,709,l),
(402,709,o),
(387,694,o),
(387,659,c),
(387,50,l),
(387,15,o),
(402,0,o),
(433,0,c),
(738,0,l),
(777,0,o),
(798,7,o),
(798,37,c),
(798,124,l),
(798,159,o),
(784,174,o),
(755,174,cs),
(717,174,o),
(697,157,o),
(697,109,c),
(697,53,l),
(495,53,l),
(495,339,l),
(655,339,ls),
(669,339,o),
(683,353,o),
(683,366,cs),
(683,380,o),
(674,394,o),
(655,394,cs),
(495,394,l),
(495,656,l),
(682,656,l),
(682,600,l),
(682,552,o),
(702,535,o),
(740,535,cs)
);
},
{
closed = 1;
nodes = (
(383,591,l),
(389,591,l),
(461,709,l),
(383,709,l),
(363,709,o),
(352,699,o),
(345,685,cs),
(20,52,ls),
(9,25,o),
(15,0,o),
(42,0,cs),
(61,0,o),
(85,6,o),
(103,53,c)
);
},
{
closed = 1;
nodes = (
(170,190,l),
(449,190,l),
(434,242,l),
(186,242,l)
);
}
);
width = 838;
}
);
metricLeft = A;
metricRight = E;
unicode = 198;
},
{
glyphname = B;
kernLeft = H;
kernRight = B;
lastChange = "2016-08-06 20:56:35 +0000";
layers = (
{
anchors = (
{
name = bottom;
pos = (335,0);
},
{
name = top;
pos = (335,709);
}
);
layerId = UUID0;
shapes = (
{
closed = 1;
nodes = (
(100,50,ls),
(100,15,o),
(115,0,o),
(146,0,cs),
(356,0,ls),
(449,0,o),
(610,30,o),
(610,212,cs),
(610,289,o),
(566,358,o),
(460,376,c),
(460,381,l),
(532,399,o),
(573,468,o),
(573,531,cs),
(573,651,o),
(496,709,o),
(351,709,cs),
(146,709,ls),
(115,709,o),
(100,694,o),
(100,659,c)
);
},
{
closed = 1;
nodes = (
(332,345,l),
(403,345,o),
(497,309,o),
(497,202,cs),
(497,82,o),
(403,53,o),
(342,53,cs),
(208,53,l),
(208,345,l)
);
},
{
closed = 1;
nodes = (
(315,656,l),
(373,656,o),
(460,630,o),
(460,534,cs),
(460,432,o),
(380,398,o),
(323,398,cs),
(208,398,l),
(208,656,l)
);
}
);
width = 670;
}
);
unicode = 66;
},
{
glyphname = C;
kernLeft = O;
kernRight = C;
lastChange = "2016-08-09 00:28:14 +0000";
layers = (
{
anchors = (
{
name = bottom;
pos = (351,0);
},
{
name = top;
pos = (359,709);
}
);
layerId = UUID0;
shapes = (
{
closed = 1;
nodes = (
(532,529,o),
(546,544,o),
(546,579,cs),
(546,639,ls),
(546,670,o),
(536,678,o),
(505,688,cs),
(458,703,o),
(409,709,o),
(359,709,cs),
(186,709,o),
(53,598,o),
(53,348,cs),
(53,132,o),
(143,0,o),
(351,0,cs),
(431,0,o),
(482,14,o),
(531,34,cs),
(548,41,ls),
(557,45,o),
(561,53,o),
(561,61,cs),
(561,75,o),
(551,91,o),
(537,91,cs),
(534,91,o),
(532,90,o),
(529,89,cs),
(510,81,ls),
(467,63,o),
(420,52,o),
(379,52,cs),
(249,52,o),
(166,116,o),
(166,346,cs),
(166,555,o),
(249,658,o),
(372,658,cs),
(398,658,o),
(422,655,o),
(445,650,c),
(445,594,ls),
(445,546,o),
(465,529,o),
(503,529,cs)
);
}
);
width = 581;
}
);
unicode = 67;
},
{
glyphname = D;
kernLeft = H;
kernRight = O;
lastChange = "2016-08-06 20:56:35 +0000";
layers = (
{
anchors = (
{
name = bottom;
pos = (347,0);
},
{
name = center;
pos = (347,355);
},
{
name = top;
pos = (347,709);
}
);
layerId = UUID0;
shapes = (
{
closed = 1;
nodes = (
(100,50,ls),
(100,15,o),
(115,0,o),
(146,0,cs),
(294,0,ls),
(431,0,o),
(640,75,o),
(640,358,cs),
(640,665,o),
(436,709,o),
(289,709,cs),
(146,709,ls),
(115,709,o),
(100,694,o),
(100,659,c)
);
},
{
closed = 1;
nodes = (
(277,656,l),
(415,656,o),
(527,579,o),
(527,358,cs),
(527,142,o),
(415,54,o),
(277,54,cs),
(230,54,l),
(230,53,l),
(208,53,l),
(208,656,l)
);
}
);
width = 693;
}
);
unicode = 68;
},
{
glyphname = Eth;
kernLeft = Hbar;
kernRight = E;
lastChange = "2016-08-06 20:57:18 +0000";
layers = (
{
layerId = UUID0;
shapes = (
{
closed = 1;
nodes = (
(36,394,l),
(22,394,o),
(15,380,o),
(15,366,cs),
(15,353,o),
(22,339,o),
(36,339,cs),
(100,339,l),
(100,50,ls),
(100,15,o),
(115,0,o),
(146,0,cs),
(294,0,ls),
(431,0,o),
(640,75,o),
(640,358,cs),
(640,665,o),
(436,709,o),
(289,709,cs),
(146,709,ls),
(115,709,o),
(100,694,o),
(100,659,cs),
(100,394,l)
);
},
{
closed = 1;
nodes = (
(277,656,l),
(415,656,o),
(527,579,o),
(527,358,cs),
(527,142,o),
(415,54,o),
(277,54,cs),
(230,54,l),
(230,53,l),
(208,53,l),
(208,339,l),
(377,339,ls),
(391,339,o),
(398,353,o),
(398,366,cs),
(398,380,o),
(391,394,o),
(377,394,cs),
(208,394,l),
(208,656,l)
);
}
);
width = 693;
}
);
unicode = 208;
},
{
glyphname = E;
kernLeft = H;
kernRight = E;
lastChange = "2016-08-06 20:57:18 +0000";
layers = (
{
anchors = (
{
name = bottom;
pos = (301,0);
},
{
name = ogonek;
pos = (541,10);
},
{
name = top;
pos = (347,709);
},
{
name = topleft;
pos = (91,709);
}
);
layerId = UUID0;
shapes = (
{
closed = 1;
nodes = (
(532,535,o),
(546,550,o),
(546,585,c),
(546,672,l),
(546,702,o),
(525,709,o),
(486,709,c),
(146,709,l),
(115,709,o),
(100,694,o),
(100,659,c),
(100,50,l),
(100,15,o),
(115,0,o),
(146,0,c),
(501,0,l),
(540,0,o),
(561,7,o),
(561,37,c),
(561,124,l),
(561,159,o),
(547,174,o),
(518,174,cs),
(480,174,o),
(460,157,o),
(460,109,c),
(460,53,l),
(208,53,l),
(208,339,l),
(418,339,ls),
(432,339,o),
(446,353,o),
(446,366,cs),
(446,380,o),
(437,394,o),
(418,394,cs),
(208,394,l),
(208,656,l),
(445,656,l),
(445,600,l),
(445,552,o),
(465,535,o),
(503,535,cs)
);
}
);
width = 601;
}
);
unicode = 69;
},
{
glyphname = Schwa;
kernLeft = O;
kernRight = O;
lastChange = "2016-08-06 20:57:18 +0000";
layers = (
{
background = {
shapes = (
{
closed = 1;
nodes = (
(234,709,o),
(183,695,o),
(134,675,cs),
(117,668,ls),
(108,664,o),
(104,656,o),
(104,648,cs),
(104,634,o),
(114,618,o),
(128,618,cs),
(131,618,o),
(133,619,o),
(136,620,c),
(155,628,ls),
(198,646,o),
(245,657,o),
(286,657,cs),
(408,657,o),
(489,600,o),
(498,394,c),
(42,394,l),
(42,135,o),
(130,0,o),
(326,0,cs),
(581,0,o),
(612,245,o),
(612,354,cs),
(612,577,o),
(522,709,o),
(314,709,cs)
);
},
{
closed = 1;
nodes = (
(177,51,o),
(154,233,o),
(152,339,c),
(499,339,l),
(497,234,o),
(477,51,o),
(326,51,cs)
);
}
);
};
layerId = UUID0;
shapes = (
{
closed = 1;
nodes = (
(234,709,o),
(183,695,o),
(134,675,cs),
(117,668,ls),
(108,664,o),
(104,656,o),
(104,648,cs),
(104,634,o),
(114,618,o),
(128,618,cs),
(131,618,o),
(133,619,o),
(136,620,c),
(155,628,ls),
(198,646,o),
(245,657,o),
(286,657,cs),
(408,657,o),
(489,600,o),
(498,394,c),
(95,394,ls),
(65,394,o),
(42,371,o),
(43,340,cs),
(55,116,o),
(144,0,o),
(326,0,cs),
(581,0,o),
(612,245,o),
(612,354,cs),
(612,577,o),
(522,709,o),
(314,709,cs)
);
},
{
closed = 1;
nodes = (
(193,51,o),
(160,197,o),
(154,303,cs),
(152,324,o),
(171,339,o),
(195,339,cs),
(499,339,l),
(497,234,o),
(477,51,o),
(326,51,cs)
);
}
);
width = 665;
}
);
metricLeft = "=O-10";
metricRight = O;
unicode = 399;
},
{
glyphname = F;
kernLeft = H;
kernRight = F;
lastChange = "2016-08-06 20:57:18 +0000";
layers = (
{
background = {
shapes = (
{
closed = 1;
nodes = (
(59,269,l),
(41,269,o),
(31,259,o),
(31,241,cs),
(31,224,o),
(41,214,o),
(59,214,c),
(308,214,l),
(326,214,o),
(336,224,o),
(336,241,cs),
(336,259,o),
(326,269,o),
(308,269,c)
);
}
);
};
layerId = UUID0;
shapes = (
{
closed = 1;
nodes = (
(418,334,l),
(436,334,o),
(446,344,o),
(446,361,cs),
(446,379,o),
(436,389,o),
(418,389,cs),
(208,389,l),
(208,656,l),
(445,656,l),
(445,610,ls),
(445,562,o),
(465,545,o),
(503,545,cs),
(532,545,o),
(546,560,o),
(546,595,cs),
(546,672,ls),
(546,702,o),
(525,709,o),
(486,709,cs),
(146,709,ls),
(115,709,o),
(100,694,o),
(100,659,cs),
(100,50,ls),
(100,15,o),
(115,0,o),
(146,0,cs),
(187,0,o),
(208,17,o),
(208,65,cs),
(208,334,l)
);
}
);
width = 556;
}
);
unicode = 70;
},
{
glyphname = G;
kernLeft = O;
kernRight = C;
lastChange = "2016-08-06 20:57:18 +0000";
layers = (
{
anchors = (
{
name = bottom;
pos = (380,0);
},
{
name = top;
pos = (380,709);
}
);
layerId = UUID0;
shapes = (
{
closed = 1;
nodes = (
(563,529,o),
(577,544,o),
(577,579,cs),
(577,638,ls),
(577,669,o),
(567,677,o),
(536,687,cs),
(487,702,o),
(433,709,o),
(383,709,cs),
(204,709,o),
(53,599,o),
(53,349,cs),
(53,133,o),
(145,0,o),
(366,0,cs),
(444,0,o),
(509,10,o),
(578,37,cs),
(598,45,o),
(610,55,o),
(610,95,cs),
(610,302,ls),
(610,327,o),
(603,342,o),
(566,342,cs),
(396,342,ls),
(377,342,o),
(368,328,o),
(368,314,cs),
(368,301,o),
(376,287,o),
(393,287,cs),
(505,287,l),
(505,71,l),
(464,54,o),
(418,51,o),
(385,51,cs),
(251,51,o),
(166,117,o),
(166,347,cs),
(166,556,o),
(267,658,o),
(395,658,cs),
(424,658,o),
(448,657,o),
(476,650,c),
(476,594,ls),
(476,546,o),
(496,529,o),
(534,529,cs)
);
}
);
width = 680;
}
);
unicode = 71;
},
{
glyphname = H;
kernLeft = H;
kernRight = H;
lastChange = "2016-08-06 20:57:18 +0000";
layers = (
{
anchors = (
{
name = bottom;
pos = (371,0);
},
{
name = center;
pos = (371,355);
},
{
name = top;
pos = (371,709);
},
{
name = topleft;
pos = (100,709);
}
);
layerId = UUID0;
shapes = (
{
closed = 1;
nodes = (
(555,709,o),
(534,692,o),
(534,644,c),
(534,394,l),
(208,394,l),
(208,632,l),
(208,683,o),
(185,709,o),
(144,709,cs),
(113,709,o),
(100,696,o),
(100,659,c),
(100,50,l),
(100,15,o),
(115,0,o),
(146,0,cs),
(187,0,o),
(208,17,o),
(208,65,c),
(208,339,l),
(534,339,l),
(534,77,l),
(534,26,o),
(557,0,o),
(598,0,cs),
(629,0,o),
(642,13,o),
(642,50,c),
(642,659,l),
(642,694,o),
(627,709,o),
(596,709,cs)
);
}
);
width = 742;
}
);
unicode = 72;
},
{
glyphname = I;
kernLeft = H;
kernRight = H;
lastChange = "2016-08-06 20:57:18 +0000";
layers = (
{
anchors = (
{
name = bottom;
pos = (204,0);
},
{
name = ogonek;
pos = (367,10);
},
{
name = top;
pos = (204,709);
},
{
name = topleft;
pos = (20,709);
}
);
layerId = UUID0;
shapes = (
{
closed = 1;
nodes = (
(358,0,l),
(384,0,o),
(388,12,o),
(388,24,cs),
(388,39,o),
(382,53,o),
(348,53,cs),
(258,53,l),
(258,656,l),
(348,656,ls),
(382,656,o),
(388,670,o),
(388,685,cs),
(388,697,o),
(384,709,o),
(358,709,cs),
(50,709,ls),
(24,709,o),
(20,697,o),
(20,685,cs),
(20,670,o),
(26,656,o),
(60,656,cs),
(150,656,l),
(150,53,l),
(60,53,ls),
(26,53,o),
(20,39,o),
(20,24,cs),
(20,12,o),
(24,0,o),
(50,0,cs)
);
}
);
width = 408;
}
);
unicode = 73;
},
{
glyphname = J;
kernLeft = J;
kernRight = U;
lastChange = "2016-08-09 00:54:09 +0000";
layers = (
{
anchors = (
{
name = bottom;
pos = (242,0);
},
{
name = top;
pos = (362,709);
}
);
layerId = UUID0;
shapes = (
{
closed = 1;
nodes = (
(321,709,o),
(300,692,o),
(300,644,cs),
(300,208,ls),
(300,138,o),
(276,52,o),
(178,52,cs),
(167,52,o),
(148,53,o),
(136,55,c),
(136,104,ls),
(136,152,o),
(116,169,o),
(78,169,cs),
(49,169,o),
(35,154,o),
(35,119,cs),
(35,52,l),
(35,37,o),
(41,28,o),
(55,21,cs),
(77,10,o),
(139,0,o),
(176,0,cs),
(383,0,o),
(408,171,o),
(408,261,cs),
(408,659,ls),
(408,694,o),
(393,709,o),
(362,709,cs)
);
}
);
width = 484;
}
);
unicode = 74;
},
{
glyphname = K;
kernLeft = H;
kernRight = K;
lastChange = "2016-08-06 20:57:18 +0000";
layers = (
{
anchors = (
{
name = bottom;
pos = (306,0);
},
{
name = top;
pos = (306,709);
}
);
layerId = UUID0;
shapes = (
{
closed = 1;
nodes = (
(208,632,l),
(208,683,o),
(185,709,o),
(144,709,cs),
(113,709,o),
(100,696,o),
(100,659,cs),
(100,50,ls),
(100,15,o),
(115,0,o),
(146,0,cs),
(187,0,o),
(208,17,o),
(208,65,cs),
(208,315,l),
(226,334,l),
(475,49,ls),
(511,7,o),
(538,0,o),
(565,0,cs),
(590,0,o),
(606,18,o),
(606,37,cs),
(606,47,o),
(600,57,o),
(592,66,cs),
(303,390,l),
(589,665,ls),
(592,668,o),
(594,672,o),
(594,677,cs),
(594,692,o),
(579,709,o),
(558,709,cs),
(545,709,o),
(532,704,o),
(518,689,cs),
(208,382,l)
);
}
);
width = 611;
}
);
unicode = 75;
},
{
glyphname = L;
kernLeft = H;
kernRight = L;
lastChange = "2016-08-06 20:57:18 +0000";
layers = (
{
anchors = (
{
name = bottom;
pos = (286,0);
},
{
name = center;
pos = (286,355);
},
{
name = top;
pos = (286,709);
},
{
name = topright;
pos = (325,473);
}
);
layerId = UUID0;
shapes = (
{
closed = 1;
nodes = (
(455,187,o),
(435,170,o),
(435,122,cs),
(435,53,l),
(208,53,l),
(208,632,ls),
(208,683,o),
(185,709,o),
(144,709,cs),
(113,709,o),
(100,696,o),
(100,659,cs),
(100,50,ls),
(100,15,o),
(115,0,o),
(146,0,cs),
(476,0,ls),
(515,0,o),
(536,8,o),
(536,32,cs),
(536,137,ls),
(536,172,o),
(522,187,o),
(493,187,cs)
);
}
);
width = 571;
}
);
unicode = 76;
},
{
glyphname = Lslash;
kernLeft = Hbar;
kernRight = L;
lastChange = "2016-08-06 20:57:18 +0000";
layers = (
{
layerId = UUID0;
shapes = (
{
closed = 1;
nodes = (
(424,445,l),
(428,447,o),
(429,451,o),
(429,456,cs),
(428,472,o),
(409,494,o),
(396,494,cs),
(394,494,o),
(393,494,o),
(391,493,cs),
(232,392,l),
(232,632,ls),
(232,683,o),
(209,709,o),
(168,709,cs),
(137,709,o),
(124,696,o),
(124,659,cs),
(124,323,l),
(3,246,ls),
(0,244,o),
(-2,240,o),
(-2,237,cs),
(-1,223,o),
(19,201,o),
(32,201,cs),
(34,201,o),
(36,202,o),
(38,203,cs),
(124,257,l),
(124,50,ls),
(124,15,o),
(139,0,o),
(170,0,cs),
(500,0,ls),
(539,0,o),
(560,8,o),
(560,32,cs),
(560,137,ls),
(560,172,o),
(546,187,o),
(517,187,cs),
(479,187,o),
(459,170,o),
(459,122,cs),
(459,53,l),
(232,53,l),
(232,324,l)
);
}
);
width = 595;
}
);
unicode = 321;
},
{
glyphname = M;
kernLeft = H;
kernRight = H;
lastChange = "2016-08-06 20:57:18 +0000";
layers = (
{
anchors = (
{
name = bottom;
pos = (439,0);
},
{
name = top;
pos = (439,709);
}
);
background = {
shapes = (
{
closed = 1;
nodes = (
(764,0,o),
(777,13,o),
(777,50,c),
(777,656,l),
(777,693,o),
(743,709,o),
(709,709,cs),
(678,709,o),
(647,696,o),
(632,656,c),
(439,150,l),
(434,150,l),
(229,661,l),
(215,697,o),
(189,709,o),
(164,709,cs),
(132,709,o),
(100,691,o),
(100,656,c),
(100,45,l),
(100,12,o),
(119,0,o),
(138,0,cs),
(156,0,o),
(179,13,o),
(179,56,c),
(179,502,l),
(188,502,l),
(377,37,ls),
(387,12,o),
(405,0,o),
(423,0,cs),
(442,0,o),
(460,13,o),
(470,37,cs),
(660,514,l),
(669,514,l),
(669,77,l),
(669,26,o),
(692,0,o),
(733,0,cs)
);
}
);
};
layerId = UUID0;
shapes = (
{
closed = 1;
nodes = (
(767,0,o),
(777,13,o),
(777,50,c),
(777,656,l),
(777,693,o),
(760,709,o),
(726,709,cs),
(695,709,o),
(660,696,o),
(645,656,c),
(436,130,l),
(431,130,l),
(239,661,l),
(225,697,o),
(189,709,o),
(164,709,cs),
(132,709,o),
(100,691,o),
(100,656,c),
(100,45,l),
(100,12,o),
(119,0,o),
(138,0,cs),
(156,0,o),
(179,13,o),
(179,56,c),
(179,561,l),
(186,561,l),
(378,37,ls),
(388,12,o),
(403,0,o),
(421,0,cs),
(440,0,o),
(453,13,o),
(463,37,cs),
(669,561,l),
(676,561,l),
(676,77,l),
(676,26,o),
(695,0,o),
(736,0,cs)
);
}
);
width = 877;
}
);
unicode = 77;
},
{
glyphname = N;
kernLeft = H;
kernRight = H;
lastChange = "2016-08-06 20:57:18 +0000";
layers = (
{
anchors = (
{
name = bottom;
pos = (372,0);
},
{
name = top;
pos = (372,709);
}
);
layerId = UUID0;
shapes = (
{
closed = 1;
nodes = (
(156,0,o),
(179,13,o),
(179,56,c),
(179,561,l),
(185,561,l),
(512,40,ls),
(528,15,o),
(551,0,o),
(585,0,cs),
(616,0,o),
(643,19,o),
(643,58,cs),
(643,664,l),
(643,697,o),
(624,709,o),
(605,709,cs),
(587,709,o),
(564,696,o),
(564,653,c),
(564,148,l),
(559,148,l),
(232,667,ls),
(210,701,o),
(187,709,o),
(160,709,cs),
(128,709,o),
(100,690,o),
(100,655,c),
(100,45,l),
(100,12,o),
(119,0,o),
(138,0,cs)
);
}
);
width = 743;
}
);
unicode = 78;
},
{
glyphname = Eng;
kernLeft = H;
kernRight = H;
lastChange = "2016-08-06 20:57:18 +0000";
layers = (
{
anchors = (
{
name = bottom;
pos = (383,-220);
},
{
name = top;
pos = (372,709);
}
);
background = {
shapes = (
{
pos = (150,0);
ref = g;
}
);
};
guides = (
{
angle = 90;
pos = (564,274);
}
);
layerId = UUID0;
shapes = (
{
closed = 1;
nodes = (
(587,709,o),
(564,696,o),
(564,653,cs),
(564,148,l),
(559,148,l),
(232,667,ls),
(210,701,o),
(187,709,o),
(160,709,cs),
(128,709,o),
(100,690,o),
(100,655,cs),
(100,45,ls),
(100,12,o),
(119,0,o),
(138,0,cs),
(156,0,o),
(179,13,o),
(179,56,cs),
(179,561,l),
(185,561,l),
(581,-57,l),
(564,-8,l),
(564,-60,ls),
(565,-134,o),
(481,-171,o),
(410,-171,cs),
(360,-171,o),
(316,-152,o),
(316,-114,cs),
(316,-74,o),
(340,-65,o),
(340,-52,cs),
(340,-44,o),
(333,-36,o),
(321,-36,cs),
(299,-36,o),
(241,-66,o),
(241,-120,cs),
(241,-178,o),
(280,-220,o),
(397,-220,cs),
(550,-220,o),
(643,-138,o),
(643,-31,cs),
(643,664,ls),
(643,697,o),
(624,709,o),
(605,709,cs)
);
}
);
width = 743;
}
);
metricLeft = N;
metricRight = N;
unicode = 330;
},
{
glyphname = O;
kernLeft = O;
kernRight = O;
lastChange = "2016-08-09 10:55:15 +0000";
layers = (
{
anchors = (
{
name = bottom;
pos = (358,0);
},
{
name = center;
pos = (358,355);
},
{
name = ogonek;
pos = (445,29);
},
{
name = top;
pos = (358,709);
},
{
name = topleft;
pos = (22,709);
},
{
name = topright;
pos = (503,677);
}
);
layerId = UUID0;
shapes = (
{
closed = 1;
nodes = (
(663,461,o),
(630,709,o),
(357,709,cs),
(84,709,o),
(53,461,o),
(53,354,cs),
(53,245,o),
(84,0,o),
(357,0,cs),
(630,0,o),
(663,245,o),
(663,354,cs)
);
},
{
closed = 1;
nodes = (
(550,253,o),
(533,51,o),
(357,51,cs),
(184,51,o),
(166,253,o),
(166,354,cs),
(166,455,o),
(184,658,o),
(357,658,cs),
(533,658,o),
(550,455,o),
(550,354,cs)
);
}
);
width = 716;
}
);
unicode = 79;
},
{
glyphname = Oslash;
kernLeft = O;
kernRight = O;
lastChange = "2016-08-06 20:57:18 +0000";
layers = (
{
anchors = (
{
name = bottom;
pos = (358,0);
},
{
name = top;
pos = (358,709);
}
);
layerId = UUID0;
shapes = (
{
closed = 1;
nodes = (
(617,744,l),
(618,746,o),
(618,748,o),
(618,750,cs),
(618,765,o),
(593,785,o),
(574,785,cs),
(569,785,o),
(564,783,o),
(562,779,cs),
(504,677,l),
(465,697,o),
(417,709,o),
(357,709,cs),
(84,709,o),
(53,461,o),
(53,354,cs),
(53,281,o),
(67,147,o),
(157,67,c),
(97,-40,ls),
(96,-42,o),
(96,-43,o),
(96,-45,cs),
(96,-59,o),
(120,-76,o),
(138,-76,cs),
(144,-76,o),
(148,-74,o),
(151,-70,cs),
(209,32,l),
(248,12,o),
(297,0,o),
(357,0,cs),
(630,0,o),
(663,245,o),
(663,354,cs),
(663,425,o),
(648,559,o),
(558,640,c)
);
},
{
closed = 1;
nodes = (
(550,253,o),
(533,51,o),
(357,51,cs),
(308,51,o),
(271,67,o),
(244,92,c),
(512,560,l),
(545,494,o),
(550,409,o),
(550,354,cs)
);
},
{
closed = 1;
nodes = (
(166,455,o),
(184,658,o),
(357,658,cs),
(406,658,o),
(442,642,o),
(470,617,c),
(204,148,l),
(171,214,o),
(166,299,o),
(166,354,cs)
);
}
);
width = 716;
}
);
unicode = 216;
},
{
glyphname = OE;
kernLeft = O;
kernRight = E;
lastChange = "2016-08-06 20:57:18 +0000";
layers = (
{
anchors = (
{
name = bottom;
pos = (519,0);
},
{
name = top;
pos = (519,709);
}
);
layerId = UUID0;
shapes = (
{
closed = 1;
nodes = (
(968,535,o),
(982,550,o),
(982,585,c),
(982,672,l),
(982,702,o),
(961,709,o),
(922,709,c),
(582,709,l),
(551,709,o),
(536,694,o),
(536,659,c),
(536,50,l),
(536,15,o),
(551,0,o),
(582,0,c),
(937,0,l),
(976,0,o),
(997,7,o),
(997,37,c),
(997,124,l),
(997,159,o),
(983,174,o),
(954,174,cs),
(916,174,o),
(896,157,o),
(896,109,c),
(896,53,l),
(644,53,l),
(644,339,l),
(854,339,ls),
(868,339,o),
(882,353,o),
(882,366,cs),
(882,380,o),
(873,394,o),
(854,394,cs),
(644,394,l),
(644,656,l),
(881,656,l),
(881,600,l),
(881,552,o),
(901,535,o),
(939,535,cs)
);
},
{
closed = 1;
nodes = (
(618,461,o),
(590,709,o),
(357,709,cs),
(84,709,o),
(53,461,o),
(53,354,cs),
(53,245,o),
(84,0,o),
(357,0,cs),
(590,0,o),
(618,245,o),
(618,354,cs)
);
},
{
closed = 1;
nodes = (
(536,253,o),
(520,51,o),
(357,51,cs),
(184,51,o),
(166,253,o),
(166,354,cs),
(166,455,o),
(184,658,o),
(357,658,cs),
(520,658,o),
(536,455,o),
(536,354,cs)
);
}
);
width = 1037;
}
);
metricLeft = O;
metricRight = E;
unicode = 338;
},
{
glyphname = P;
kernLeft = H;
kernRight = P;
lastChange = "2016-08-06 20:57:18 +0000";
layers = (
{
anchors = (
{
name = bottom;
pos = (309,0);
},
{
name = top;
pos = (309,709);
}
);
layerId = UUID0;
shapes = (
{
closed = 1;
nodes = (
(312,275,l),
(496,275,o),
(582,377,o),
(582,502,cs),
(582,704,o),
(389,709,o),
(311,709,cs),
(144,709,ls),
(113,709,o),
(100,696,o),
(100,659,cs),
(100,50,ls),
(100,15,o),
(115,0,o),
(146,0,cs),
(187,0,o),
(208,17,o),
(208,65,cs),
(208,275,l)
);
},
{
closed = 1;
nodes = (
(311,656,l),
(430,656,o),
(469,595,o),
(469,502,cs),
(469,379,o),
(407,328,o),
(311,328,cs),
(208,328,l),
(208,656,l)
);
}
);
width = 617;
}
);
unicode = 80;
},
{
glyphname = Q;
kernLeft = O;
kernRight = O;
lastChange = "2016-08-06 20:57:18 +0000";
layers = (
{
anchors = (
{
name = bottom;
pos = (358,0);
},
{
name = top;
pos = (358,709);
}
);
layerId = UUID0;
shapes = (
{
closed = 1;
nodes = (
(663,461,o),
(630,709,o),
(357,709,cs),
(84,709,o),
(53,461,o),
(53,354,cs),
(53,245,o),
(84,0,o),
(357,0,cs),
(398,0,o),
(434,6,o),
(465,16,c),
(506,-32,ls),
(524,-54,o),
(546,-62,o),
(566,-62,cs),
(590,-62,o),
(609,-50,o),
(609,-35,cs),
(609,-30,o),
(607,-25,o),
(603,-20,cs),
(539,57,l),
(646,139,o),
(663,276,o),
(663,354,cs)
);
},
{
closed = 1;
nodes = (
(550,284,o),
(543,186,o),
(490,115,c),
(439,176,ls),
(420,200,o),
(397,209,o),
(378,209,cs),
(357,209,o),
(340,196,o),
(340,178,cs),
(340,170,o),
(344,161,o),
(352,151,cs),
(425,63,l),
(406,55,o),
(383,51,o),
(357,51,cs),
(184,51,o),
(166,253,o),
(166,354,cs),
(166,455,o),
(184,658,o),
(357,658,cs),
(533,658,o),
(550,455,o),
(550,354,cs)
);
}
);
width = 716;
}
);
unicode = 81;
},
{
glyphname = R;
kernLeft = H;
kernRight = R;
lastChange = "2016-08-06 20:57:18 +0000";
layers = (
{
anchors = (
{
name = bottom;
pos = (322,0);
},
{
name = top;
pos = (322,709);
}
);
layerId = UUID0;
shapes = (
{
closed = 1;
nodes = (
(100,50,l),
(100,15,o),
(115,0,o),
(146,0,cs),
(187,0,o),
(208,17,o),
(208,65,cs),
(208,319,l),
(299,319,l),
(467,38,ls),
(484,10,o),
(511,0,o),
(535,0,cs),
(570,0,o),
(586,14,o),
(586,33,cs),
(586,41,o),
(583,50,o),
(577,59,cs),
(411,326,l),
(494,340,o),
(586,413,o),
(586,516,cs),
(586,672,o),
(467,709,o),
(333,709,cs),
(144,709,ls),
(113,709,o),
(100,696,o),
(100,659,c)
);
},
{
closed = 1;
nodes = (
(323,656,l),
(380,656,o),
(473,646,o),
(473,522,cs),
(473,409,o),
(385,372,o),
(315,372,cs),
(208,372,l),
(208,656,l)
);
}
);
width = 643;
}
);
unicode = 82;
},
{
glyphname = S;
kernLeft = S;
kernRight = S;
lastChange = "2016-08-09 00:49:57 +0000";
layers = (
{
anchors = (
{
name = bottom;
pos = (316,0);
},
{
name = top;
pos = (316,709);
}
);
layerId = UUID0;
shapes = (
{
closed = 1;
nodes = (
(511,527,o),
(525,542,o),
(525,575,cs),
(525,633,ls),
(525,662,o),
(515,670,o),
(484,680,cs),
(433,695,o),
(376,709,o),
(299,709,cs),
(147,709,o),
(61,635,o),
(61,528,cs),
(61,408,o),
(153,372,o),
(291,321,cs),
(405,279,o),
(459,251,o),
(459,183,cs),
(459,118,o),
(401,51,o),
(287,51,cs),
(244,51,o),
(204,59,o),
(165,72,c),
(165,126,ls),
(165,172,o),
(145,189,o),
(107,189,cs),
(78,189,o),
(64,174,o),
(64,141,cs),
(64,81,ls),
(64,52,o),
(74,45,o),
(103,33,cs),
(150,15,o),
(230,0,o),
(291,0,cs),
(472,0,o),
(571,83,o),
(571,194,cs),
(571,309,o),
(483,341,o),
(308,404,cs),
(207,441,o),
(173,465,o),
(173,534,cs),
(173,589,o),
(212,658,o),
(306,658,cs),
(342,658,o),
(375,654,o),
(407,645,cs),
(413,643,o),
(418,641,o),
(424,640,c),
(424,589,ls),
(424,543,o),
(444,527,o),
(482,527,cs)
);
}
);
width = 631;
}
);
unicode = 83;
},
{
glyphname = Germandbls;
kernLeft = H;
kernRight = Germandbls;
lastChange = "2016-08-08 23:44:25 +0000";
layers = (
{
background = {
shapes = (
{
closed = 1;
nodes = (
(519,40,o),
(386,40,cs),
(332,40,o),
(317,72,o),
(303,99,cs),
(292,120,o),
(277,135,o),
(248,135,cs),
(230,135,o),
(209,120,o),
(209,98,cs),
(209,68,o),
(231,46,o),
(258,32,cs),
(293,14,o),
(331,0,o),
(384,0,cs),
(605,0,o),
(575,407,o),
(440,488,cs),
(385,531,o),
(359,544,o),
(359,615,cs),
(359,689,o),
(415,720,o),
(476,720,c),
(475,760,l),
(408,760,o),
(259,735,o),
(259,596,cs),
(259,492,o),
(312,461,o),
(381,423,cs),
(517,361,o)
);
}
);
};
layerId = UUID0;
shapes = (
{
closed = 1;
nodes = (
(346,646,o),
(399,720,o),
(464,720,cs),
(465,720,l),
(478,720,o),
(483,727,o),
(483,740,cs),
(483,751,o),
(479,760,o),
(465,760,c),
(288,760,ls),
(105,760,o),
(80,629,o),
(80,517,cs),
(80,47,ls),
(80,17,o),
(88,0,o),
(120,0,cs),
(164,0,o),
(184,11,o),
(184,71,cs),
(184,574,ls),
(184,637,o),
(196,719,o),
(288,719,cs),
(370,719,l),
(307,678,o),
(268,617,o),
(268,526,cs),
(268,343,o),
(469,316,o),
(461,137,cs),
(458,73,o),
(430,37,o),
(389,37,cs),
(362,37,o),
(333,56,o),
(313,99,cs),
(302,120,o),
(287,135,o),
(263,135,cs),
(240,135,o),
(219,120,o),
(219,94,cs),
(219,68,o),
(241,46,o),
(273,29,cs),
(307,10,o),
(346,0,o),
(381,0,cs),
(474,0,o),
(550,76,o),
(550,197,cs),
(550,362,o),
(346,398,o),
(346,563,cs)
);
}
);
width = 600;
}
);
unicode = 7838;
},
{
glyphname = T;
kernLeft = T;
kernRight = T;
lastChange = "2016-08-09 10:55:42 +0000";
layers = (
{
anchors = (
{
name = bottom;
pos = (325,0);
},
{
name = center;
pos = (325,355);
},
{
name = top;
pos = (325,709);
}
);
layerId = UUID0;
shapes = (
{
closed = 1;
nodes = (
(529,656,l),
(529,585,ls),
(529,537,o),
(549,520,o),
(587,520,cs),
(616,520,o),
(630,535,o),
(630,570,cs),
(630,672,ls),
(630,702,o),
(609,709,o),
(570,709,cs),
(80,709,ls),
(41,709,o),
(20,702,o),
(20,672,cs),
(20,570,ls),
(20,535,o),
(34,520,o),
(63,520,cs),
(101,520,o),
(121,537,o),
(121,585,cs),
(121,656,l),
(271,656,l),
(271,50,ls),
(271,15,o),
(286,0,o),
(317,0,cs),
(358,0,o),
(379,12,o),
(379,60,cs),
(379,656,l)
);
}
);
width = 650;
}
);
unicode = 84;
},
{
glyphname = U;
kernLeft = U;
kernRight = U;
lastChange = "2016-08-09 00:15:51 +0000";
layers = (
{
anchors = (
{
name = bottom;
pos = (359,0);
},
{
name = ogonek;
pos = (435,10);
},
{
name = top;
pos = (369,709);
},
{
name = topright;
pos = (587,709);
}
);
layerId = UUID0;
shapes = (
{
closed = 1;
nodes = (
(201,632,l),
(201,683,o),
(178,709,o),
(137,709,cs),
(106,709,o),
(93,696,o),
(93,659,c),
(93,251,l),
(93,157,o),
(118,-15,o),
(358,-15,cs),
(588,-15,o),
(625,160,o),
(625,254,c),
(625,664,l),
(625,697,o),
(606,709,o),
(587,709,cs),
(569,709,o),
(546,696,o),
(546,653,c),
(546,223,l),
(546,122,o),
(483,46,o),
(378,46,cs),
(267,46,o),
(201,111,o),
(201,219,c)
);
}
);
width = 718;
}
);
unicode = 85;
},
{
glyphname = V;
kernLeft = V;
kernRight = V;
lastChange = "2016-08-09 00:56:58 +0000";
layers = (
{
anchors = (
{
name = bottom;
pos = (278,0);
},
{
name = top;
pos = (278,709);
}
);
layerId = UUID0;
shapes = (
{
closed = 1;
nodes = (
(291,113,l),
(285,113,l),
(107,656,ls),
(91,704,o),
(57,709,o),
(38,709,cs),
(7,709,o),
(-5,692,o),
(-5,672,cs),
(-5,665,o),
(-4,658,o),
(-1,650,cs),
(214,36,ls),
(223,9,o),
(250,0,o),
(274,0,cs),
(302,0,o),
(326,9,o),
(337,40,cs),
(555,657,ls),
(558,665,o),
(560,674,o),
(560,682,cs),
(560,697,o),
(548,709,o),
(529,709,cs),
(510,709,o),
(488,704,o),
(472,656,c)
);
}
);
width = 545;
}
);
unicode = 86;
},
{
glyphname = W;
kernLeft = V;
kernRight = V;
lastChange = "2016-08-09 00:50:48 +0000";
layers = (
{
anchors = (
{
name = bottom;
pos = (425,0);
},
{
name = top;
pos = (425,709);
}
);
layerId = UUID0;
shapes = (
{
closed = 1;
nodes = (
(610,113,l),
(604,113,l),
(490,649,ls),
(484,679,o),
(470,709,o),
(439,709,cs),
(408,709,o),
(395,688,o),
(385,646,cs),
(266,113,l),
(260,113,l),
(136,656,l),
(121,704,o),
(87,709,o),
(68,709,cs),
(38,709,o),
(26,692,o),
(26,672,cs),
(26,665,o),
(27,658,o),
(30,650,c),
(190,36,ls),
(197,9,o),
(226,0,o),
(249,0,cs),
(275,0,o),
(303,9,o),
(311,40,cs),
(427,517,l),
(429,517,l),
(534,36,ls),
(541,9,o),
(571,0,o),
(593,0,cs),
(620,0,o),
(646,9,o),
(655,40,cs),
(822,657,l),
(825,665,o),
(827,674,o),
(827,682,cs),
(827,697,o),
(815,709,o),
(797,709,cs),
(778,709,o),
(756,704,o),
(741,656,c)
);
}
);
width = 849;
}
);
unicode = 87;
},
{
glyphname = X;
kernLeft = X;
kernRight = X;
lastChange = "2016-08-09 10:56:11 +0000";
layers = (
{
anchors = (
{
name = bottom;
pos = (295,0);
},
{
name = top;
pos = (295,709);
}
);
layerId = UUID0;
shapes = (
{
closed = 1;
nodes = (
(311,434,l),
(305,434,l),
(180,656,ls),
(163,687,o),
(140,709,o),
(102,709,cs),
(80,709,o),
(63,693,o),
(63,675,cs),
(63,667,o),
(65,659,o),
(70,651,cs),
(241,366,l),
(41,54,ls),
(36,46,o),
(30,33,o),
(30,22,cs),
(30,11,o),
(38,0,o),
(60,0,cs),
(78,0,o),
(98,5,o),
(128,54,cs),
(285,307,l),
(289,307,l),
(439,52,ls),
(460,16,o),
(479,0,o),
(520,0,cs),
(544,0,o),
(559,15,o),
(559,32,cs),
(559,41,o),
(556,52,o),
(551,60,cs),
(354,382,l),
(522,655,ls),
(530,666,o),
(533,677,o),
(533,685,cs),
(533,700,o),
(518,709,o),
(503,709,cs),
(479,709,o),
(461,693,o),
(439,656,cs)
);
}
);
width = 589;
}
);
unicode = 88;
},
{
glyphname = Y;
kernLeft = Y;
kernRight = Y;
lastChange = "2016-08-09 00:50:03 +0000";
layers = (
{
anchors = (
{
name = bottom;
pos = (274,0);
},
{
name = top;
pos = (284,709);
},
{
name = topleft;
pos = (20,709);
}
);
layerId = UUID0;
shapes = (
{
closed = 1;
nodes = (
(309,0,o),
(329,12,o),
(329,60,cs),
(329,268,l),
(528,654,ls),
(531,660,o),
(533,668,o),
(533,676,cs),
(533,693,o),
(525,709,o),
(505,709,cs),
(482,709,o),
(462,694,o),
(444,656,cs),
(294,343,l),
(290,343,l),
(131,657,ls),
(110,699,o),
(87,709,o),
(54,709,cs),
(32,709,o),
(18,694,o),
(18,674,cs),
(18,666,o),
(20,658,o),
(24,649,cs),
(221,268,l),
(221,50,ls),
(221,15,o),
(237,0,o),
(268,0,cs)
);
}
);
width = 547;
}
);
unicode = 89;
},
{
glyphname = Z;
kernLeft = Z;
kernRight = Z;
lastChange = "2016-08-09 00:57:03 +0000";
layers = (
{
anchors = (
{
name = bottom;
pos = (296,0);
},
{
name = top;
pos = (296,709);
}
);
layerId = UUID0;
shapes = (
{
closed = 1;
nodes = (
(492,0,l),
(531,0,o),
(552,7,o),
(552,37,cs),
(552,124,ls),
(552,159,o),
(538,174,o),
(509,174,cs),
(471,174,o),
(451,157,o),
(451,109,cs),
(451,53,l),
(144,53,l),
(536,624,ls),
(541,631,o),
(544,647,o),
(544,658,cs),
(544,684,o),
(530,709,o),
(499,709,cs),
(122,709,ls),
(83,709,o),
(62,702,o),
(62,672,cs),
(62,585,ls),
(62,550,o),
(76,535,o),
(105,535,cs),
(143,535,o),
(163,552,o),
(163,600,cs),
(163,656,l),
(431,656,l),
(48,85,ls),
(43,77,o),
(40,61,o),
(40,49,cs),
(40,24,o),
(53,0,o),
(85,0,cs)
);
}
);
width = 592;
}
);
unicode = 90;
},
{
glyphname = a;
kernLeft = a;
kernRight = n;
lastChange = "2016-08-09 00:58:56 +0000";
layers = (
{
anchors = (
{
name = bottom;
pos = (273,0);
},
{
name = ogonek;
pos = (491,10);
},
{
name = top;
pos = (273,502);
}
);
layerId = UUID0;
shapes = (
{
closed = 1;
nodes = (
(373,94,l),
(373,29,o),
(390,0,o),
(434,0,cs),
(466,0,o),
(473,17,o),
(473,47,cs),
(473,321,ls),
(473,440,o),
(436,502,o),
(288,502,cs),
(245,502,o),
(184,494,o),
(139,475,cs),
(108,462,o),
(84,447,o),
(84,419,cs),
(84,401,o),
(95,385,o),
(119,385,cs),
(140,385,o),
(160,398,o),
(180,420,cs),
(199,441,o),
(226,462,o),
(268,462,cs),
(338,462,o),
(368,430,o),
(368,338,cs),
(368,310,l),
(295,310,ls),
(93,310,o),
(43,221,o),
(43,135,cs),
(43,55,o),
(92,0,o),
(194,0,cs),
(271,0,o),
(326,29,o),
(370,95,c)
);
},
{
closed = 1;
nodes = (
(369,268,l),
(369,184,ls),
(369,104,o),
(283,67,o),
(234,67,cs),
(182,67,o),
(147,88,o),
(147,149,cs),
(147,214,o),
(182,268,o),
(311,268,cs)
);
}
);
width = 546;
}
);
unicode = 97;
},
{
glyphname = ae;
kernLeft = a;
kernRight = e;
lastChange = "2016-08-06 20:57:18 +0000";
layers = (
{
anchors = (
{
name = bottom;
pos = (412,0);
},
{
name = top;
pos = (412,502);
}
);
background = {
shapes = (
{
closed = 1;
nodes = (
(730,98,o),
(698,44,o),
(617,44,cs),
(518,44,o),
(478,121,o),
(478,230,cs),
(478,237,o),
(478,244,o),
(479,252,c),
(748,252,ls),
(774,252,o),
(805,260,o),
(805,301,cs),
(805,434,o),
(722,502,o),
(604,502,cs),
(452,502,o),
(370,410,o),
(370,239,cs),
(370,94,o),
(446,0,o),
(606,0,cs),
(696,0,o),
(753,36,o),
(790,82,cs),
(799,93,o),
(803,102,o),
(803,116,cs),
(803,129,o),
(791,137,o),
(780,137,cs),
(770,137,o),
(762,134,o),
(755,126,cs)
);
},
{
closed = 1;
nodes = (
(649,462,o),
(703,419,o),
(703,323,cs),
(703,300,o),
(691,294,o),
(669,294,cs),
(482,294,l),
(491,414,o),
(537,462,o),
(598,462,cs)
);
}
);
};
layerId = UUID0;
shapes = (
{
closed = 1;
nodes = (
(729,98,o),
(697,44,o),
(616,44,cs),
(517,44,o),
(477,121,o),
(477,230,cs),
(477,237,o),
(477,244,o),
(478,252,c),
(747,252,ls),
(773,252,o),
(804,260,o),
(804,301,cs),
(804,434,o),
(721,502,o),
(603,502,cs),
(470,502,o),
(399,410,o),
(399,239,cs),
(399,94,o),
(466,0,o),
(605,0,cs),
(695,0,o),
(752,36,o),
(789,82,cs),
(798,93,o),
(802,102,o),
(802,116,cs),
(802,129,o),
(790,137,o),
(779,137,cs),
(769,137,o),
(761,134,o),
(754,126,cs)
);
},
{
closed = 1;
nodes = (
(648,462,o),
(702,419,o),
(702,323,cs),
(702,300,o),
(690,294,o),
(668,294,cs),
(481,294,l),
(490,414,o),
(536,462,o),
(597,462,cs)
);
},
{
closed = 1;
nodes = (
(313,0,o),
(443,66,o),
(443,198,cs),
(443,271,l),
(443,440,o),
(412,502,o),
(288,502,cs),
(245,502,o),
(184,494,o),
(139,475,cs),
(108,462,o),
(84,447,o),
(84,419,cs),
(84,401,o),
(95,385,o),
(119,385,cs),
(140,385,o),
(160,398,o),
(180,420,cs),
(199,441,o),
(226,462,o),
(268,462,cs),
(338,462,o),
(368,430,o),
(368,338,cs),
(368,310,l),
(295,310,ls),
(93,310,o),
(43,221,o),
(43,135,cs),
(43,55,o),
(92,0,o),
(204,0,cs)
);
},
{
closed = 1;
nodes = (
(369,268,l),
(369,184,ls),
(369,104,o),
(283,67,o),
(234,67,cs),
(182,67,o),
(147,88,o),
(147,149,cs),
(147,214,o),
(182,268,o),
(311,268,cs)
);
}
);
width = 844;
}
);
metricLeft = a;
metricRight = e;
unicode = 230;
},
{
glyphname = b;
kernLeft = h;
kernRight = o;
lastChange = "2016-08-09 00:26:11 +0000";
layers = (
{
anchors = (
{
name = bottom;
pos = (283,0);
},
{
name = top;
pos = (283,502);
}
);
layerId = UUID0;
shapes = (
{
closed = 1;
nodes = (
(184,678,l),
(184,738,o),
(164,760,o),
(120,760,cs),
(88,760,o),
(80,743,o),
(80,713,cs),
(80,110,ls),
(80,53,o),
(114,35,o),
(146,23,cs),
(180,10,o),
(227,0,o),
(275,0,cs),
(421,0,o),
(513,94,o),
(513,276,cs),
(513,463,o),
(430,502,o),
(342,502,cs),
(258,502,o),
(212,457,o),
(186,410,c),
(184,410,l)
);
},
{
closed = 1;
nodes = (
(183,322,l),
(183,380,o),
(251,435,o),
(302,435,cs),
(359,435,o),
(405,409,o),
(405,268,cs),
(405,100,o),
(353,40,o),
(275,40,cs),
(215,40,o),
(183,66,o),
(183,93,cs)
);
}
);
width = 566;
}
);
unicode = 98;
},
{
glyphname = c;
kernLeft = o;
kernRight = c;
lastChange = "2016-08-09 00:28:17 +0000";
layers = (
{
anchors = (
{
name = bottom;
pos = (285,0);
},
{
name = top;
pos = (285,502);
}
);
layerId = UUID0;
shapes = (
{
closed = 1;
nodes = (
(398,97,o),
(368,44,o),
(287,44,cs),
(190,44,o),
(158,119,o),
(158,250,cs),
(158,412,o),
(202,462,o),
(285,462,cs),
(334,462,o),
(352,430,o),
(363,398,cs),
(372,372,o),
(386,356,o),
(417,356,cs),
(436,356,o),
(459,370,o),
(459,395,cs),
(459,429,o),
(432,455,o),
(404,472,cs),
(370,492,o),
(332,502,o),
(287,502,cs),
(155,502,o),
(50,435,o),
(50,250,cs),
(50,107,o),
(109,0,o),
(276,0,cs),
(366,0,o),
(420,36,o),
(457,82,cs),
(466,93,o),
(470,102,o),
(470,116,cs),
(470,129,o),
(458,137,o),
(447,137,cs),
(437,137,o),
(429,134,o),
(422,126,cs)
);
}
);
width = 490;
}
);
unicode = 99;
},
{
glyphname = d;
kernLeft = o;
kernRight = d;
lastChange = "2016-08-06 20:57:18 +0000";
layers = (
{
anchors = (
{
name = bottom;
pos = (282,0);
},
{
name = center;
pos = (390,613);
},
{
name = top;
pos = (282,502);
},
{
name = topright;
pos = (543,502);
}
);
layerId = UUID0;
shapes = (
{
closed = 1;
nodes = (
(142,502,o),
(50,421,o),
(50,229,cs),
(50,55,o),
(136,0,o),
(221,0,cs),
(304,0,o),
(348,52,o),
(380,105,c),
(383,104,l),
(383,39,o),
(400,0,o),
(444,0,cs),
(476,0,o),
(483,17,o),
(483,47,cs),
(483,713,ls),
(483,743,o),
(475,760,o),
(443,760,cs),
(399,760,o),
(379,738,o),
(379,678,cs),
(379,485,l),
(354,495,o),
(320,502,o),
(288,502,cs)
);
},
{
closed = 1;
nodes = (
(158,415,o),
(210,462,o),
(288,462,cs),
(348,462,o),
(380,430,o),
(380,403,cs),
(380,194,ls),
(380,135,o),
(316,67,o),
(261,67,cs),
(205,67,o),
(158,109,o),
(158,237,cs)
);
}
);
width = 563;
}
);
unicode = 100;
},
{
glyphname = eth;
kernLeft = o;
kernRight = o;
lastChange = "2016-08-06 20:57:18 +0000";
layers = (
{
layerId = UUID0;
shapes = (
{
closed = 1;
nodes = (
(505,711,l),
(512,715,o),
(515,721,o),
(515,728,cs),
(515,739,o),
(506,754,o),
(492,754,cs),
(489,754,o),
(487,753,o),
(484,752,cs),
(389,702,l),
(344,739,o),
(285,760,o),
(210,760,cs),
(179,760,o),
(100,756,o),
(100,723,cs),
(100,713,o),
(107,704,o),
(117,704,cs),
(138,704,o),
(152,716,o),
(198,716,cs),
(246,716,o),
(286,696,o),
(317,664,c),
(211,609,ls),
(203,605,o),
(200,599,o),
(200,592,cs),
(200,580,o),
(210,566,o),
(223,566,cs),
(226,566,o),
(229,566,o),
(232,568,cs),
(346,628,l),
(377,580,o),
(395,519,o),
(400,462,c),
(360,489,o),
(315,499,o),
(265,499,cs),
(131,499,o),
(50,395,o),
(50,249,cs),
(50,97,o),
(135,0,o),
(275,0,cs),
(454,0,o),
(509,175,o),
(509,343,cs),
(509,481,o),
(483,594,o),
(423,668,c)
);
},
{
closed = 1;
nodes = (
(210,40,o),
(157,98,o),
(157,242,cs),
(157,356,o),
(186,459,o),
(282,459,cs),
(318,459,o),
(367,440,o),
(402,396,c),
(402,261,o),
(397,40,o),
(271,40,cs)
);
}
);
width = 577;
}
);
unicode = 240;
},
{
glyphname = e;
kernLeft = o;
kernRight = e;
lastChange = "2016-08-06 20:57:18 +0000";
layers = (
{
anchors = (
{
name = bottom;
pos = (287,0);
},
{
name = ogonek;
pos = (359,10);
},
{
name = top;
pos = (275,502);
}
);
layerId = UUID0;
shapes = (
{
closed = 1;
nodes = (
(411,97,o),
(378,44,o),
(297,44,cs),
(198,44,o),
(158,121,o),
(158,230,cs),
(158,237,o),
(158,244,o),
(159,252,c),
(428,252,ls),
(454,252,o),
(485,260,o),
(485,301,cs),
(485,434,o),
(402,502,o),
(284,502,cs),
(132,502,o),
(50,410,o),
(50,239,cs),
(50,94,o),
(126,0,o),
(286,0,cs),
(376,0,o),
(433,36,o),
(470,82,cs),
(479,93,o),
(483,102,o),
(483,116,cs),
(483,129,o),
(471,137,o),
(460,137,cs),
(450,137,o),
(442,134,o),
(435,126,cs)
);
},
{
closed = 1;
nodes = (
(329,462,o),
(383,419,o),
(383,323,cs),
(383,300,o),
(371,294,o),
(349,294,cs),
(162,294,l),
(171,414,o),
(217,462,o),
(278,462,cs)
);
}
);
width = 525;
}
);
unicode = 101;
},
{
glyphname = f;
kernLeft = f;
kernRight = f;
lastChange = "2016-08-09 00:53:35 +0000";
layers = (
{
anchors = (
{
name = bottom;
pos = (177,0);
},
{
name = top;
pos = (177,760);
}
);
layerId = UUID0;
shapes = (
{
closed = 1;
nodes = (
(24,451,o),
(33,445,o),
(56,445,cs),
(111,445,l),
(111,47,ls),
(111,17,o),
(119,0,o),
(151,0,cs),
(195,0,o),
(215,8,o),
(215,68,cs),
(215,445,l),
(326,445,ls),
(348,445,o),
(361,458,o),
(361,471,cs),
(361,482,o),
(351,493,o),
(326,493,cs),
(215,493,l),
(215,578,ls),
(215,694,o),
(262,720,o),
(303,720,cs),
(328,720,o),
(341,711,o),
(351,699,cs),
(361,687,o),
(376,670,o),
(396,670,cs),
(422,670,o),
(436,684,o),
(436,705,cs),
(436,732,o),
(399,760,o),
(338,760,cs),
(278,760,o),
(231,741,o),
(193,710,cs),
(152,676,o),
(117,619,o),
(112,493,c),
(55,493,l),
(41,492,o),
(24,489,o),
(24,466,cs)
);
}
);
width = 353;
}
);
unicode = 102;
},
{
glyphname = g;
kernLeft = g;
kernRight = g;
lastChange = "2016-08-09 00:54:21 +0000";
layers = (
{
anchors = (
{
name = bottom;
pos = (235,-220);
},
{
name = top;
pos = (294,502);
}
);
layerId = UUID0;
shapes = (
{
closed = 1;
nodes = (
(191,-180,o),
(133,-145,o),
(133,-90,cs),
(133,-42,o),
(166,-30,o),
(166,-15,cs),
(166,-5,o),
(158,5,o),
(143,5,cs),
(119,5,o),
(55,-32,o),
(55,-97,cs),
(55,-168,o),
(125,-220,o),
(236,-220,cs),
(414,-220,o),
(522,-138,o),
(522,-31,cs),
(522,44,o),
(448,104,o),
(277,112,cs),
(182,116,o),
(166,135,o),
(166,152,cs),
(166,178,o),
(190,183,o),
(223,208,c),
(245,201,o),
(280,199,o),
(303,199,cs),
(408,199,o),
(502,258,o),
(502,350,cs),
(502,385,o),
(486,419,o),
(465,442,c),
(492,458,o),
(522,481,o),
(522,508,cs),
(522,531,o),
(506,550,o),
(487,550,cs),
(425,550,o),
(448,481,o),
(427,471,c),
(394,494,o),
(335,502,o),
(302,502,cs),
(200,502,o),
(101,459,o),
(101,344,cs),
(101,303,o),
(122,249,o),
(175,228,c),
(175,225,l),
(130,194,o),
(52,185,o),
(52,128,cs),
(52,67,o),
(123,44,o),
(229,36,cs),
(324,29,o),
(419,12,o),
(419,-60,cs),
(419,-118,o),
(357,-180,o),
(263,-180,cs)
);
},
{
closed = 1;
nodes = (
(399,285,o),
(361,239,o),
(302,239,cs),
(239,239,o),
(204,284,o),
(204,348,cs),
(204,419,o),
(242,462,o),
(302,462,cs),
(364,462,o),
(399,416,o),
(399,352,cs)
);
}
);
width = 568;
}
);
unicode = 103;
},
{
glyphname = h;
kernLeft = h;
kernRight = n;
lastChange = "2016-08-06 20:57:18 +0000";
layers = (
{
anchors = (
{
name = bottom;
pos = (290,0);
},
{
name = center;
pos = (188,613);
},
{
name = top;
pos = (120,760);
}
);
layerId = UUID0;
shapes = (
{
closed = 1;
nodes = (
(184,678,l),
(184,738,o),
(164,760,o),
(120,760,cs),
(88,760,o),
(80,743,o),
(80,713,cs),
(80,47,ls),
(80,17,o),
(88,0,o),
(120,0,cs),
(164,0,o),
(184,11,o),
(184,71,cs),
(184,310,ls),
(184,375,o),
(255,435,o),
(311,435,cs),
(357,435,o),
(396,411,o),
(396,332,cs),
(396,82,ls),
(396,22,o),
(416,0,o),
(460,0,cs),
(492,0,o),
(500,17,o),
(500,47,cs),
(500,351,ls),
(500,452,o),
(453,502,o),
(359,502,cs),
(276,502,o),
(219,453,o),
(186,400,c),
(184,400,l)
);
}
);
width = 580;
}
);
unicode = 104;
},
{
glyphname = i;
kernLeft = i;
kernRight = i;
lastChange = "2016-08-09 00:51:31 +0000";
layers = (
{
anchors = (
{
name = bottom;
pos = (137,0);
}
);
background = {
anchors = (
{
name = bottom;
pos = (300,0);
},
{
name = top;
pos = (135,502);
}
);
shapes = (
{
closed = 1;
nodes = (
(85,44,l),
(85,-28,o),
(81,-71,o),
(70,-101,cs),
(56,-139,o),
(25,-150,o),
(6,-162,cs),
(-9,-172,o),
(-17,-182,o),
(-17,-199,cs),
(-17,-214,o),
(-2,-220,o),
(13,-220,cs),
(27,-220,o),
(42,-213,o),
(56,-203,cs),
(90,-179,o),
(118,-137,o),
(131,-116,cs),
(170,-50,o),
(189,27,o),
(189,121,cs),
(189,434,ls),
(189,480,o),
(169,502,o),
(125,502,cs),
(93,502,o),
(85,485,o),
(85,455,c)
);
}
);
};
layerId = UUID0;
shapes = (
{
ref = idotless;
},
{
pos = (25,0);
ref = dotaccentcomb;
}
);
width = 274;
}
);
unicode = 105;
},
{
glyphname = idotless;
kernLeft = n;
kernRight = u;
lastChange = "2016-08-06 20:58:18 +0000";
layers = (
{
anchors = (
{
name = bottom;
pos = (137,0);
},
{
name = ogonek;
pos = (137,0);
},
{
name = top;
pos = (135,502);
}
);
background = {
anchors = (
{
name = bottom;
pos = (300,0);
},
{
name = top;
pos = (135,502);
}
);
shapes = (
{
closed = 1;
nodes = (
(85,44,l),
(85,-28,o),
(81,-71,o),
(70,-101,cs),
(56,-139,o),
(25,-150,o),
(6,-162,cs),
(-9,-172,o),
(-17,-182,o),
(-17,-199,cs),
(-17,-214,o),
(-2,-220,o),
(13,-220,cs),
(27,-220,o),
(42,-213,o),
(56,-203,cs),
(90,-179,o),
(118,-137,o),
(131,-116,cs),
(170,-50,o),
(189,27,o),
(189,121,cs),
(189,434,ls),
(189,480,o),
(169,502,o),
(125,502,cs),
(93,502,o),
(85,485,o),
(85,455,c)
);
}
);
};
layerId = UUID0;
shapes = (
{
closed = 1;
nodes = (
(189,435,l),
(189,480,o),
(169,502,o),
(125,502,cs),
(93,502,o),
(85,485,o),
(85,455,c),
(85,47,l),
(85,17,o),
(93,0,o),
(125,0,cs),
(169,0,o),
(189,8,o),
(189,68,c)
);
}
);
width = 274;
}
);
unicode = 305;
},
{
glyphname = j;
kernLeft = j;
kernRight = j;
lastChange = "2016-08-06 20:58:36 +0000";
layers = (
{
background = {
shapes = (
{
closed = 1;
nodes = (
(85,44,l),
(85,-28,o),
(81,-71,o),
(70,-101,cs),
(56,-139,o),
(25,-150,o),
(6,-162,cs),
(-9,-172,o),
(-17,-182,o),
(-17,-199,cs),
(-17,-214,o),
(-2,-220,o),
(13,-220,cs),
(27,-220,o),
(42,-213,o),
(56,-203,cs),
(90,-179,o),
(118,-137,o),
(131,-116,cs),
(170,-50,o),
(189,27,o),
(189,121,cs),
(189,434,ls),
(189,480,o),
(169,502,o),
(125,502,cs),
(93,502,o),
(85,485,o),
(85,455,c)
);
},
{
closed = 1;
nodes = (
(73,595,o),
(101,567,o),
(135,567,cs),
(169,567,o),
(197,595,o),
(197,629,cs),
(197,663,o),
(169,691,o),
(135,691,cs),
(101,691,o),
(73,663,o),
(73,629,cs)
);
}
);
};
layerId = UUID0;
shapes = (
{
ref = jdotless;
},
{
pos = (25,0);
ref = dotaccentcomb;
}
);
width = 266;
}
);
unicode = 106;
},
{
glyphname = jdotless;
kernLeft = jdotless;
kernRight = jdotless;
lastChange = "2016-08-06 20:57:18 +0000";
layers = (
{
anchors = (
{
name = bottom;
pos = (81,-220);
},
{
name = top;
pos = (135,502);
}
);
background = {
shapes = (
{
closed = 1;
nodes = (
(85,44,l),
(85,-28,o),
(81,-71,o),
(70,-101,cs),
(56,-139,o),
(25,-150,o),
(6,-162,cs),
(-9,-172,o),
(-17,-182,o),
(-17,-199,cs),
(-17,-214,o),
(-2,-220,o),
(13,-220,cs),
(27,-220,o),
(42,-213,o),
(56,-203,cs),
(90,-179,o),
(118,-137,o),
(131,-116,cs),
(170,-50,o),
(189,27,o),
(189,121,cs),
(189,434,ls),
(189,480,o),
(169,502,o),
(125,502,cs),
(93,502,o),
(85,485,o),
(85,455,c)
);
},
{
closed = 1;
nodes = (
(73,595,o),
(101,567,o),
(135,567,cs),
(169,567,o),
(197,595,o),
(197,629,cs),
(197,663,o),
(169,691,o),
(135,691,cs),
(101,691,o),
(73,663,o),
(73,629,cs)
);
}
);
};
layerId = UUID0;
shapes = (
{
closed = 1;
nodes = (
(85,44,l),
(85,-67,o),
(73,-128,o),
(6,-162,cs),
(-9,-170,o),
(-17,-179,o),
(-17,-195,cs),
(-17,-210,o),
(-6,-220,o),
(10,-220,cs),
(27,-220,o),
(42,-213,o),
(56,-203,cs),
(141,-143,o),
(189,-9,o),
(189,121,cs),
(189,434,ls),
(189,480,o),
(169,502,o),
(125,502,cs),
(93,502,o),
(85,485,o),
(85,455,c)
);
}
);
width = 266;
}
);
metricRight = i;
unicode = 567;
},
{
glyphname = k;
kernLeft = h;
kernRight = k;
lastChange = "2016-08-06 20:57:18 +0000";
layers = (
{
anchors = (
{
name = bottom;
pos = (257,0);
},
{
name = top;
pos = (120,760);
}
);
layerId = UUID0;
shapes = (
{
closed = 1;
nodes = (
(184,678,ls),
(184,738,o),
(164,760,o),
(120,760,cs),
(88,760,o),
(80,743,o),
(80,713,cs),
(80,47,ls),
(80,17,o),
(88,0,o),
(120,0,cs),
(164,0,o),
(184,11,o),
(184,71,cs),
(184,231,l),
(195,243,l),
(254,173,o),
(313,99,o),
(369,31,cs),
(384,13,o),
(397,0,o),
(445,0,cs),
(489,0,o),
(493,9,o),
(493,19,cs),
(493,28,o),
(486,38,o),
(475,51,cs),
(412,125,o),
(335,213,o),
(268,293,c),
(317,332,o),
(352,364,o),
(392,390,cs),
(454,432,o),
(492,446,o),
(492,475,cs),
(492,487,o),
(487,502,o),
(463,502,cs),
(416,502,o),
(375,453,o),
(320,403,cs),
(184,279,l)
);
}
);
width = 513;
}
);
unicode = 107;
},
{
glyphname = l;
kernLeft = h;
kernRight = l;
lastChange = "2016-08-06 20:57:18 +0000";
layers = (
{
anchors = (
{
name = bottom;
pos = (137,0);
},
{
name = center;
pos = (137,251);
},
{
name = top;
pos = (125,760);
},
{
name = topright;
pos = (253,502);
}
);
layerId = UUID0;
shapes = (
{
closed = 1;
nodes = (
(189,678,l),
(189,738,o),
(169,760,o),
(125,760,cs),
(93,760,o),
(85,743,o),
(85,713,cs),
(85,47,ls),
(85,17,o),
(93,0,o),
(125,0,cs),
(169,0,o),
(189,8,o),
(189,68,cs)
);
}
);
width = 274;
}
);
unicode = 108;
},
{
glyphname = lslash;
kernLeft = hbar;
kernRight = l;
lastChange = "2016-08-06 20:57:18 +0000";
layers = (
{
layerId = UUID0;
shapes = (
{
closed = 1;
nodes = (
(9,296,l),
(3,292,o),
(0,286,o),
(0,279,cs),
(0,263,o),
(13,247,o),
(28,247,cs),
(31,247,o),
(35,248,o),
(38,250,cs),
(111,295,l),
(111,47,ls),
(111,17,o),
(119,0,o),
(151,0,cs),
(195,0,o),
(215,8,o),
(215,68,cs),
(215,360,l),
(330,432,ls),
(337,436,o),
(340,443,o),
(340,450,cs),
(340,466,o),
(326,481,o),
(312,481,cs),
(309,481,o),
(306,481,o),
(303,479,cs),
(215,424,l),
(215,678,ls),
(215,738,o),
(195,760,o),
(151,760,cs),
(119,760,o),
(111,743,o),
(111,713,cs),
(111,359,l)
);
}
);
width = 340;
}
);
unicode = 322;
},
{
glyphname = m;
kernLeft = n;
kernRight = n;
lastChange = "2016-08-06 20:57:18 +0000";
layers = (
{
anchors = (
{
name = bottom;
pos = (415,0);
},
{
name = top;
pos = (415,502);
}
);
layerId = UUID0;
shapes = (
{
closed = 1;
nodes = (
(646,82,l),
(646,22,o),
(665,0,o),
(709,0,cs),
(741,0,o),
(749,17,o),
(749,47,cs),
(749,351,ls),
(749,449,o),
(710,502,o),
(621,502,cs),
(538,502,o),
(497,452,o),
(464,399,c),
(462,399,l),
(451,466,o),
(410,502,o),
(338,502,cs),
(255,502,o),
(216,462,o),
(183,409,c),
(181,409,l),
(181,416,ls),
(181,475,o),
(159,502,o),
(123,502,cs),
(93,502,o),
(80,491,o),
(80,459,cs),
(80,47,ls),
(80,17,o),
(88,0,o),
(120,0,cs),
(164,0,o),
(183,11,o),
(183,71,cs),
(183,320,ls),
(183,385,o),
(242,435,o),
(290,435,cs),
(336,435,o),
(363,411,o),
(363,332,cs),
(363,47,ls),
(363,17,o),
(371,0,o),
(403,0,cs),
(447,0,o),
(466,11,o),
(466,71,cs),
(466,310,ls),
(466,375,o),
(525,435,o),
(573,435,cs),
(619,435,o),
(646,411,o),
(646,332,cs)
);
}
);
width = 829;
}
);
unicode = 109;
},
{
glyphname = n;
kernLeft = n;
kernRight = n;
lastChange = "2016-08-09 10:56:20 +0000";
layers = (
{
anchors = (
{
name = bottom;
pos = (290,0);
},
{
name = top;
pos = (290,502);
}
);
layerId = UUID0;
shapes = (
{
closed = 1;
nodes = (
(80,47,l),
(80,17,o),
(88,0,o),
(120,0,cs),
(164,0,o),
(184,11,o),
(184,71,cs),
(184,320,ls),
(184,385,o),
(255,435,o),
(311,435,cs),
(357,435,o),
(396,411,o),
(396,332,cs),
(396,82,ls),
(396,22,o),
(416,0,o),
(460,0,cs),
(492,0,o),
(500,17,o),
(500,47,cs),
(500,351,ls),
(500,452,o),
(453,502,o),
(359,502,cs),
(276,502,o),
(217,462,o),
(184,409,c),
(182,409,l),
(182,416,ls),
(182,475,o),
(159,502,o),
(123,502,cs),
(93,502,o),
(80,491,o),
(80,459,cs)
);
}
);
width = 580;
}
);
unicode = 110;
},
{
glyphname = eng;
kernLeft = n;
kernRight = j;
lastChange = "2016-08-06 20:57:18 +0000";
layers = (
{
layerId = UUID0;
shapes = (
{
closed = 1;
nodes = (
(363,-179,o),
(292,-179,cs),
(243,-179,o),
(210,-157,o),
(210,-114,cs),
(210,-74,o),
(237,-65,o),
(237,-52,cs),
(237,-44,o),
(230,-36,o),
(218,-36,cs),
(193,-36,o),
(142,-56,o),
(142,-116,cs),
(142,-167,o),
(178,-220,o),
(284,-220,cs),
(418,-220,o),
(500,-138,o),
(500,-31,cs),
(500,181,l),
(396,215,l),
(396,-60,ls),
(396,-141,o)
);
},
{
ref = n;
}
);
width = 580;
}
);
unicode = 331;
},
{
glyphname = o;
kernLeft = o;
kernRight = o;
lastChange = "2016-08-09 10:55:36 +0000";
layers = (
{
anchors = (
{
name = bottom;
pos = (279,0);
},
{
name = center;
pos = (279,251);
},
{
name = ogonek;
pos = (357,10);
},
{
name = top;
pos = (289,502);
},
{
name = topright;
pos = (410,469);
}
);
layerId = UUID0;
shapes = (
{
closed = 1;
nodes = (
(421,0,o),
(508,80,o),
(508,251,cs),
(508,426,o),
(416,502,o),
(279,502,cs),
(143,502,o),
(50,426,o),
(50,251,cs),
(50,80,o),
(137,0,o),
(279,0,cs)
);
},
{
closed = 1;
nodes = (
(208,40,o),
(158,82,o),
(158,251,cs),
(158,420,o),
(213,462,o),
(279,462,cs),
(347,462,o),
(400,420,o),
(400,251,cs),
(400,80,o),
(350,40,o),
(279,40,cs)
);
}
);
width = 558;
}
);
unicode = 111;
},
{
glyphname = oslash;
kernLeft = o;
kernRight = o;
lastChange = "2016-08-06 20:57:18 +0000";
layers = (
{
anchors = (
{
name = top;
pos = (279,502);
}
);
layerId = UUID0;
shapes = (
{
closed = 1;
nodes = (
(470,537,l),
(471,539,o),
(471,540,o),
(471,542,cs),
(471,556,o),
(447,571,o),
(429,571,cs),
(423,571,o),
(418,569,o),
(416,565,cs),
(372,487,l),
(344,497,o),
(313,502,o),
(279,502,cs),
(143,502,o),
(50,426,o),
(50,251,cs),
(50,157,o),
(76,91,o),
(123,50,c),
(69,-45,ls),
(68,-47,o),
(68,-48,o),
(68,-50,cs),
(68,-63,o),
(90,-77,o),
(107,-77,cs),
(112,-77,o),
(117,-75,o),
(119,-71,cs),
(171,20,l),
(202,6,o),
(238,0,o),
(279,0,cs),
(421,0,o),
(508,80,o),
(508,251,cs),
(508,352,o),
(477,420,o),
(425,459,c)
);
},
{
closed = 1;
nodes = (
(248,40,o),
(221,48,o),
(201,71,c),
(382,385,l),
(393,353,o),
(400,310,o),
(400,251,cs),
(400,80,o),
(350,40,o),
(279,40,cs)
);
},
{
closed = 1;
nodes = (
(158,420,o),
(213,462,o),
(279,462,cs),
(304,462,o),
(326,456,o),
(345,441,c),
(170,132,l),
(162,162,o),
(158,201,o),
(158,251,cs)
);
}
);
width = 558;
}
);
unicode = 248;
},
{
glyphname = oe;
kernLeft = o;
kernRight = e;
lastChange = "2016-08-06 20:57:18 +0000";
layers = (
{
anchors = (
{
name = bottom;
pos = (638,0);
},
{
name = center;
pos = (279,251);
},
{
name = ogonek;
pos = (710,10);
},
{
name = top;
pos = (626,502);
},
{
name = topright;
pos = (410,469);
}
);
layerId = UUID0;
shapes = (
{
closed = 1;
nodes = (
(762,97,o),
(729,44,o),
(648,44,cs),
(549,44,o),
(509,121,o),
(509,230,cs),
(509,237,o),
(509,244,o),
(510,252,c),
(779,252,ls),
(805,252,o),
(836,260,o),
(836,301,cs),
(836,434,o),
(753,502,o),
(635,502,cs),
(496,502,o),
(421,410,o),
(421,239,cs),
(421,94,o),
(491,0,o),
(637,0,cs),
(727,0,o),
(784,36,o),
(821,82,cs),
(830,93,o),
(834,102,o),
(834,116,cs),
(834,129,o),
(822,137,o),
(811,137,cs),
(801,137,o),
(793,134,o),
(786,126,cs)
);
},
{
closed = 1;
nodes = (
(680,462,o),
(734,419,o),
(734,323,cs),
(734,300,o),
(722,294,o),
(700,294,cs),
(513,294,l),
(522,414,o),
(568,462,o),
(629,462,cs)
);
},
{
closed = 1;
nodes = (
(409,0,o),
(488,80,o),
(488,251,cs),
(488,426,o),
(404,502,o),
(279,502,cs),
(143,502,o),
(50,426,o),
(50,251,cs),
(50,80,o),
(137,0,o),
(279,0,cs)
);
},
{
closed = 1;
nodes = (
(208,40,o),
(158,82,o),
(158,251,cs),
(158,420,o),
(213,462,o),
(279,462,cs),
(347,462,o),
(400,420,o),
(400,251,cs),
(400,80,o),
(350,40,o),
(279,40,cs)
);
}
);
width = 876;
}
);
metricLeft = o;
metricRight = e;
unicode = 339;
},
{
glyphname = p;
kernLeft = n;
kernRight = o;
lastChange = "2016-08-06 20:57:18 +0000";
layers = (
{
anchors = (
{
name = bottom;
pos = (283,0);
},
{
name = top;
pos = (283,502);
}
);
layerId = UUID0;
shapes = (
{
closed = 1;
nodes = (
(80,-173,l),
(80,-203,o),
(88,-220,o),
(120,-220,cs),
(164,-220,o),
(184,-209,o),
(184,-149,cs),
(184,19,l),
(210,7,o),
(243,0,o),
(275,0,cs),
(421,0,o),
(513,89,o),
(513,276,cs),
(513,458,o),
(430,502,o),
(342,502,cs),
(259,502,o),
(215,461,o),
(183,408,c),
(182,408,l),
(182,416,l),
(181,476,o),
(161,502,o),
(119,502,cs),
(96,502,o),
(80,492,o),
(80,459,cs)
);
},
{
closed = 1;
nodes = (
(405,95,o),
(353,40,o),
(275,40,cs),
(215,40,o),
(183,74,o),
(183,101,cs),
(183,318,ls),
(183,377,o),
(247,435,o),
(302,435,cs),
(359,435,o),
(405,404,o),
(405,268,cs)
);
}
);
width = 566;
}
);
unicode = 112;
},
{
glyphname = thorn;
kernLeft = h;
kernRight = o;
lastChange = "2016-08-06 20:57:18 +0000";
layers = (
{
anchors = (
{
name = bottom;
pos = (284,0);
},
{
name = top;
pos = (284,502);
}
);
layerId = UUID0;
shapes = (
{
closed = 1;
nodes = (
(189,678,l),
(189,738,o),
(169,760,o),
(125,760,cs),
(93,760,o),
(85,743,o),
(85,713,cs),
(85,47,ls),
(85,17,o),
(93,0,o),
(125,0,cs),
(169,0,o),
(189,8,o),
(189,68,cs)
);
},
{
pos = (5,0);
ref = p;
}
);
width = 568;
}
);
metricLeft = l;
metricRight = o;
unicode = 254;
},
{
glyphname = q;
kernLeft = o;
kernRight = q;
lastChange = "2016-08-06 20:57:18 +0000";
layers = (
{
anchors = (
{
name = bottom;
pos = (282,0);
},
{
name = top;
pos = (282,502);
}
);
layerId = UUID0;
shapes = (
{
closed = 1;
nodes = (
(483,392,l),
(483,449,o),
(449,467,o),
(417,479,cs),
(383,492,o),
(336,502,o),
(288,502,cs),
(142,502,o),
(50,418,o),
(50,226,cs),
(50,44,o),
(133,0,o),
(221,0,cs),
(305,0,o),
(351,45,o),
(377,92,c),
(379,92,l),
(379,-144,ls),
(379,-204,o),
(399,-215,o),
(443,-215,cs),
(475,-215,o),
(483,-198,o),
(483,-168,cs)
);
},
{
closed = 1;
nodes = (
(380,180,l),
(380,122,o),
(312,67,o),
(261,67,cs),
(204,67,o),
(158,98,o),
(158,234,cs),
(158,412,o),
(210,462,o),
(288,462,cs),
(348,462,o),
(380,436,o),
(380,409,cs)
);
}
);
width = 563;
}
);
unicode = 113;
},
{
glyphname = r;
kernLeft = n;
kernRight = r;
lastChange = "2016-08-06 20:57:18 +0000";
layers = (
{
anchors = (
{
name = bottom;
pos = (128,0);
},
{
name = top;
pos = (256,502);
}
);
layerId = UUID0;
shapes = (
{
closed = 1;
nodes = (
(403,486,o),
(392,502,o),
(357,502,cs),
(345,502,ls),
(256,502,o),
(208,429,o),
(184,391,c),
(182,391,l),
(182,416,l),
(182,475,o),
(159,502,o),
(123,502,cs),
(93,502,o),
(80,491,o),
(80,459,c),
(80,47,l),
(80,17,o),
(88,0,o),
(120,0,cs),
(164,0,o),
(184,11,o),
(184,71,c),
(184,295,l),
(184,355,o),
(224,420,o),
(332,420,cs),
(365,420,ls),
(394,420,o),
(404,435,o),
(404,459,c)
);
}
);
width = 395;
}
);
unicode = 114;
},
{
glyphname = s;
kernLeft = s;
kernRight = s;
lastChange = "2016-08-09 10:56:24 +0000";
layers = (
{
anchors = (
{
name = bottom;
pos = (247,0);
},
{
name = top;
pos = (247,502);
}
);
layerId = UUID0;
shapes = (
{
closed = 1;
nodes = (
(349,63,o),
(299,40,o),
(246,40,cs),
(179,40,o),
(156,72,o),
(143,99,cs),
(133,121,o),
(117,135,o),
(88,135,cs),
(70,135,o),
(49,120,o),
(49,98,cs),
(49,68,o),
(71,46,o),
(98,32,cs),
(130,15,o),
(183,0,o),
(244,0,cs),
(366,0,o),
(451,59,o),
(451,149,cs),
(451,230,o),
(359,262,o),
(277,291,cs),
(209,315,o),
(156,334,o),
(156,388,cs),
(156,440,o),
(197,462,o),
(242,462,cs),
(295,462,o),
(318,437,o),
(331,410,cs),
(341,388,o),
(356,374,o),
(385,374,cs),
(405,374,o),
(424,388,o),
(424,410,cs),
(424,440,o),
(398,463,o),
(371,477,cs),
(339,494,o),
(291,502,o),
(241,502,cs),
(183,502,o),
(56,482,o),
(56,369,cs),
(56,283,o),
(126,257,o),
(218,226,cs),
(290,201,o),
(349,181,o),
(349,122,cs)
);
}
);
width = 494;
}
);
unicode = 115;
},
{
glyphname = germandbls;
kernLeft = h;
kernRight = germandbls;
lastChange = "2016-08-06 20:57:18 +0000";
layers = (
{
layerId = UUID0;
shapes = (
{
closed = 1;
nodes = (
(80,47,l),
(80,17,o),
(88,0,o),
(120,0,cs),
(164,0,o),
(184,11,o),
(184,71,cs),
(184,574,ls),
(184,637,o),
(196,719,o),
(288,719,cs),
(362,719,o),
(381,647,o),
(381,582,cs),
(381,491,o),
(345,438,o),
(284,438,cs),
(257,438,ls),
(245,438,o),
(239,425,o),
(239,413,cs),
(239,401,o),
(244,389,o),
(256,389,cs),
(284,389,ls),
(364,389,o),
(415,351,o),
(415,230,cs),
(415,89,o),
(364,45,o),
(314,45,cs),
(294,45,o),
(280,51,o),
(262,51,cs),
(251,51,o),
(245,43,o),
(245,33,cs),
(245,0,o),
(300,0,o),
(329,0,cs),
(422,0,o),
(520,60,o),
(520,231,cs),
(520,340,o),
(466,409,o),
(385,421,c),
(385,425,l),
(451,447,o),
(486,509,o),
(486,582,cs),
(486,700,o),
(404,760,o),
(288,760,cs),
(105,760,o),
(80,629,o),
(80,517,cs)
);
}
);
width = 570;
}
);
unicode = 223;
},
{
glyphname = t;
kernLeft = t;
kernRight = t;
lastChange = "2016-08-09 00:52:39 +0000";
layers = (
{
anchors = (
{
name = bottom;
pos = (253,0);
},
{
name = center;
pos = (213,340);
},
{
name = top;
pos = (213,502);
},
{
name = topright;
pos = (276,502);
}
);
background = {
shapes = (
{
closed = 1;
nodes = (
(134,453,l),
(134,502,l),
(47,502,ls),
(30,502,o),
(23,490,o),
(23,477,cs),
(23,465,o),
(30,453,o),
(47,453,cs)
);
}
);
};
layerId = UUID0;
shapes = (
{
closed = 1;
nodes = (
(314,0,o),
(366,24,o),
(401,76,c),
(407,84,o),
(416,103,o),
(416,114,cs),
(416,129,o),
(406,138,o),
(390,138,cs),
(345,138,o),
(353,44,o),
(273,44,cs),
(245,44,o),
(213,66,o),
(213,135,cs),
(213,453,l),
(334,453,ls),
(349,453,o),
(358,465,o),
(358,477,cs),
(358,490,o),
(349,502,o),
(334,502,cs),
(213,502,l),
(213,573,ls),
(213,611,o),
(210,628,o),
(186,628,cs),
(155,628,o),
(160,593,o),
(113,543,cs),
(67,493,o),
(23,501,o),
(23,476,cs),
(23,462,o),
(33,453,o),
(49,453,cs),
(109,453,l),
(109,158,ls),
(109,68,o),
(140,0,o),
(261,0,cs)
);
}
);
width = 426;
}
);
unicode = 116;
},
{
glyphname = tbar;
kernLeft = t;
kernRight = t;
lastChange = "2016-08-06 20:57:18 +0000";
layers = (
{
anchors = (
{
name = _center;
pos = (213,339.5);
}
);
guides = (
{
angle = 90;
pos = (23,414);
},
{
angle = 90;
pos = (358,414);
}
);
layerId = UUID0;
shapes = (
{
closed = 1;
nodes = (
(334,315,l),
(349,315,o),
(358,327,o),
(358,339,cs),
(358,352,o),
(349,364,o),
(334,364,cs),
(47,364,ls),
(30,364,o),
(23,352,o),
(23,339,cs),
(23,327,o),
(30,315,o),
(47,315,cs)
);
},
{
ref = t;
}
);
width = 426;
}
);
metricRight = t;
unicode = 359;
},
{
glyphname = u;
kernLeft = u;
kernRight = u;
lastChange = "2016-08-09 10:56:27 +0000";
layers = (
{
anchors = (
{
name = bottom;
pos = (290,0);
},
{
name = ogonek;
pos = (438,10);
},
{
name = top;
pos = (290,502);
},
{
name = topright;
pos = (460,502);
}
);
layerId = UUID0;
shapes = (
{
closed = 1;
nodes = (
(184,420,l),
(184,480,o),
(164,502,o),
(120,502,cs),
(88,502,o),
(80,485,o),
(80,455,cs),
(80,151,ls),
(80,50,o),
(127,0,o),
(221,0,cs),
(304,0,o),
(363,40,o),
(396,93,c),
(398,93,l),
(398,86,ls),
(398,22,o),
(421,0,o),
(457,0,cs),
(487,0,o),
(500,11,o),
(500,43,cs),
(500,455,ls),
(500,485,o),
(492,502,o),
(460,502,cs),
(416,502,o),
(396,490,o),
(396,430,cs),
(396,182,ls),
(396,117,o),
(325,67,o),
(269,67,cs),
(223,67,o),
(184,91,o),
(184,170,cs)
);
}
);
width = 580;
}
);
unicode = 117;
},
{
glyphname = v;
kernLeft = v;
kernRight = v;
lastChange = "2016-08-09 10:55:39 +0000";
layers = (
{
anchors = (
{
name = bottom;
pos = (216,0);
},
{
name = top;
pos = (216,502);
}
);
layerId = UUID0;
shapes = (
{
closed = 1;
nodes = (
(374,502,o),
(363,472,o),
(354,440,cs),
(340,390,o),
(329,349,o),
(303,279,cs),
(235,98,l),
(230,98,l),
(109,435,ls),
(92,484,o),
(58,502,o),
(27,502,cs),
(9,502,o),
(-10,498,o),
(-10,475,cs),
(-10,469,o),
(-9,461,o),
(-5,452,cs),
(159,25,ls),
(166,7,o),
(188,0,o),
(212,0,cs),
(239,0,o),
(263,7,o),
(270,25,cs),
(437,452,ls),
(441,461,o),
(442,467,o),
(442,479,cs),
(442,496,o),
(427,502,o),
(410,502,cs)
);
}
);
width = 432;
}
);
unicode = 118;
},
{
glyphname = w;
kernLeft = v;
kernRight = v;
lastChange = "2016-08-06 20:57:18 +0000";
layers = (
{
anchors = (
{
name = bottom;
pos = (384,0);
},
{
name = top;
pos = (384,502);
}
);
layerId = UUID0;
shapes = (
{
closed = 1;
nodes = (
(368,502,o),
(359,489,o),
(343,437,cs),
(331,398,o),
(310,309,o),
(285,234,cs),
(239,98,l),
(234,98,l),
(149,435,ls),
(137,485,o),
(98,502,o),
(67,502,cs),
(49,502,o),
(30,498,o),
(30,475,cs),
(30,469,o),
(31,461,o),
(35,452,c),
(163,25,l),
(170,7,o),
(192,0,o),
(216,0,cs),
(243,0,o),
(268,7,o),
(274,25,cs),
(380,337,l),
(386,337,l),
(472,25,l),
(479,7,o),
(501,0,o),
(525,0,cs),
(552,0,o),
(577,7,o),
(583,25,cs),
(733,452,l),
(737,461,o),
(738,467,o),
(738,479,cs),
(738,496,o),
(723,502,o),
(706,502,cs),
(670,502,o),
(658,470,o),
(649,438,cs),
(638,399,o),
(619,306,o),
(594,233,cs),
(548,98,l),
(543,98,l),
(462,408,ls),
(444,476,o),
(437,502,o),
(400,502,cs)
);
}
);
width = 768;
}
);
unicode = 119;
},
{
glyphname = x;
kernLeft = x;
kernRight = x;
lastChange = "2016-08-09 01:02:36 +0000";
layers = (
{
anchors = (
{
name = bottom;
pos = (242,0);
},
{
name = top;
pos = (242,502);
}
);
layerId = UUID0;
shapes = (
{
closed = 1;
nodes = (
(48,50,l),
(41,41,o),
(35,30,o),
(35,20,cs),
(35,7,o),
(46,0,o),
(62,0,cs),
(91,0,o),
(106,7,o),
(120,29,cs),
(233,199,l),
(235,199,l),
(332,48,ls),
(349,21,o),
(363,0,o),
(411,0,cs),
(439,0,o),
(448,12,o),
(448,26,cs),
(448,33,o),
(444,42,o),
(436,55,cs),
(296,267,l),
(429,452,ls),
(435,462,o),
(440,473,o),
(440,483,cs),
(440,496,o),
(429,502,o),
(415,502,cs),
(388,502,o),
(374,495,o),
(358,469,cs),
(258,307,l),
(254,307,l),
(167,452,ls),
(148,485,o),
(127,502,o),
(85,502,cs),
(71,502,o),
(53,496,o),
(53,478,cs),
(53,469,o),
(56,456,o),
(67,439,cs),
(194,244,l)
);
}
);
width = 483;
}
);
unicode = 120;
},
{
glyphname = y;
kernLeft = y;
kernRight = y;
lastChange = "2016-08-09 11:12:47 +0000";
layers = (
{
anchors = (
{
name = bottom;
pos = (368,0);
},
{
name = top;
pos = (256,502);
}
);
layerId = UUID0;
shapes = (
{
closed = 1;
nodes = (
(477,452,l),
(480,461,o),
(482,467,o),
(482,479,cs),
(482,496,o),
(467,502,o),
(450,502,cs),
(414,502,o),
(401,471,o),
(392,439,cs),
(378,389,o),
(369,353,o),
(345,283,cs),
(285,108,l),
(280,108,l),
(149,435,ls),
(130,483,o),
(98,502,o),
(67,502,cs),
(49,502,o),
(30,498,o),
(30,475,cs),
(30,469,o),
(31,461,o),
(35,452,cs),
(233,-9,l),
(221,-47,o),
(209,-77,o),
(191,-102,cs),
(172,-128,o),
(142,-139,o),
(105,-139,cs),
(73,-139,o),
(51,-151,o),
(51,-184,cs),
(51,-204,o),
(72,-220,o),
(99,-220,cs),
(201,-220,o),
(265,-92,o),
(304,8,cs)
);
}
);
width = 512;
}
);
unicode = 121;
},
{
glyphname = z;
kernLeft = z;
kernRight = z;
lastChange = "2016-08-09 00:25:16 +0000";
layers = (
{
anchors = (
{
name = bottom;
pos = (237,0);
},
{
name = top;
pos = (248,502);
}
);
layerId = UUID0;
shapes = (
{
closed = 1;
nodes = (
(83,502,l),
(64,502,o),
(51,494,o),
(51,471,cs),
(51,409,ls),
(51,382,o),
(59,367,o),
(88,367,cs),
(129,367,o),
(143,377,o),
(143,431,cs),
(143,455,l),
(331,455,l),
(45,73,ls),
(37,62,o),
(30,46,o),
(30,29,cs),
(30,16,o),
(38,0,o),
(68,0,cs),
(405,0,ls),
(424,0,o),
(437,8,o),
(437,31,cs),
(437,93,ls),
(437,120,o),
(429,135,o),
(400,135,cs),
(359,135,o),
(345,125,o),
(345,71,cs),
(345,47,l),
(141,47,l),
(429,429,ls),
(437,439,o),
(444,456,o),
(444,473,cs),
(444,486,o),
(435,502,o),
(407,502,cs)
);
}
);
width = 474;
}
);
unicode = 122;
},
{
glyphname = fi;
kernLeft = f;
kernRight = i;
lastChange = "2022-11-03 17:26:35 +0000";
layers = (
{
anchors = (
{
name = caret_1;
pos = (292.5,0);
}
);
layerId = UUID0;
shapes = (
{
closed = 1;
nodes = (
(24,460,o),
(33,454,o),
(56,454,cs),
(111,454,l),
(111,47,ls),
(111,17,o),
(119,0,o),
(151,0,cs),
(195,0,o),
(215,8,o),
(215,68,cs),
(215,454,l),
(396,454,l),
(396,47,ls),
(396,17,o),
(404,0,o),
(436,0,cs),
(480,0,o),
(500,8,o),
(500,68,cs),
(500,435,ls),
(500,480,o),
(480,502,o),
(436,502,cs),
(215,502,l),
(215,578,ls),
(215,694,o),
(277,720,o),
(318,720,cs),
(343,720,o),
(371,706,o),
(381,694,cs),
(391,682,o),
(406,665,o),
(426,665,cs),
(452,665,o),
(466,679,o),
(466,700,cs),
(466,727,o),
(414,760,o),
(343,760,cs),
(293,760,o),
(234,744,o),
(196,713,cs),
(155,679,o),
(117,628,o),
(112,502,c),
(55,502,l),
(41,501,o),
(24,498,o),
(24,475,cs)
);
}
);
width = 585;
}
);
unicode = 64257;
},
{
glyphname = fl;
kernLeft = f;
kernRight = l;
lastChange = "2022-11-03 17:26:35 +0000";
layers = (
{
anchors = (
{
name = caret_1;
pos = (292.5,0);
}
);
layerId = UUID0;
shapes = (
{
closed = 1;
nodes = (
(500,662,l),
(497,732,o),
(425,760,o),
(343,760,cs),
(293,760,o),
(234,744,o),
(196,713,cs),
(155,679,o),
(117,628,o),
(112,502,c),
(55,502,l),
(41,501,o),
(24,498,o),
(24,475,cs),
(24,460,o),
(33,454,o),
(56,454,cs),
(111,454,l),
(111,47,ls),
(111,17,o),
(119,0,o),
(151,0,cs),
(195,0,o),
(215,8,o),
(215,68,cs),
(215,454,l),
(317,454,ls),
(339,454,o),
(352,467,o),
(352,480,cs),
(352,491,o),
(342,502,o),
(317,502,cs),
(215,502,l),
(215,578,ls),
(215,694,o),
(277,720,o),
(318,720,cs),
(352,720,o),
(374,711,o),
(396,689,c),
(396,47,ls),
(396,17,o),
(404,0,o),
(436,0,cs),
(480,0,o),
(500,8,o),
(500,68,cs)
);
}
);
width = 585;
}
);
unicode = 64258;
},
{
glyphname = ordfeminine;
kernLeft = ordfeminine;
kernRight = ordfeminine;
lastChange = "2016-08-06 20:57:18 +0000";
layers = (
{
layerId = UUID0;
shapes = (
{
closed = 1;
nodes = (
(351,348,o),
(357,361,o),
(357,385,c),
(357,577,l),
(357,663,o),
(328,709,o),
(217,709,cs),
(185,709,o),
(140,703,o),
(108,690,cs),
(83,679,o),
(64,667,o),
(64,646,cs),
(64,632,o),
(73,620,o),
(97,620,cs),
(115,620,o),
(132,630,o),
(146,645,c),
(159,657,o),
(181,674,o),
(203,674,cs),
(247,674,o),
(269,652,o),
(269,589,c),
(269,572,l),
(222,572,l),
(72,572,o),
(35,511,o),
(35,448,cs),
(35,390,o),
(72,348,o),
(151,348,cs),
(202,348,o),
(241,366,o),
(272,403,c),
(276,367,o),
(289,348,o),
(321,348,cs)
);
},
{
closed = 1;
nodes = (
(269,536,l),
(269,481,l),
(269,426,o),
(210,400,o),
(179,400,cs),
(147,400,o),
(123,414,o),
(123,456,cs),
(123,501,o),
(148,536,o),
(234,536,c)
);
}
);
width = 412;
}
);
unicode = 170;
},
{
glyphname = ordmasculine;
kernLeft = ordfeminine;
kernRight = ordfeminine;
lastChange = "2016-08-06 20:57:18 +0000";
layers = (
{
layerId = UUID0;
shapes = (
{
closed = 1;
nodes = (
(312,348,o),
(377,406,o),
(377,528,cs),
(377,655,o),
(308,709,o),
(206,709,cs),
(104,709,o),
(35,655,o),
(35,528,cs),
(35,406,o),
(100,348,o),
(206,348,cs)
);
},
{
closed = 1;
nodes = (
(161,383,o),
(128,410,o),
(128,528,cs),
(128,647,o),
(163,674,o),
(206,674,cs),
(250,674,o),
(285,647,o),
(285,528,cs),
(285,410,o),
(252,383,o),
(206,383,cs)
);
}
);
width = 412;
}
);
unicode = 186;
},
{
glyphname = "A-cy";
kernLeft = A;
kernRight = A;
lastChange = "2016-08-08 23:45:09 +0000";
layers = (
{
anchors = (
{
name = top;
pos = (337,709);
}
);
layerId = UUID0;
shapes = (
{
closed = 1;
nodes = (
(181,190,l),
(462,190,l),
(515,53,l),
(532,6,o),
(571,0,o),
(590,0,cs),
(619,0,o),
(629,16,o),
(629,33,cs),
(629,38,o),
(628,43,o),
(627,48,c),
(398,682,l),
(392,700,o),
(364,709,o),
(337,709,cs),
(312,709,o),
(288,701,o),
(282,685,c),
(47,52,l),
(44,44,o),
(42,35,o),
(42,27,cs),
(42,12,o),
(50,0,o),
(69,0,cs),
(88,0,o),
(112,6,o),
(130,53,c)
);
},
{
closed = 1;
nodes = (
(447,242,l),
(197,242,l),
(320,591,l),
(326,591,l)
);
}
);
width = 675;
}
);
unicode = 1040;
},
{
glyphname = "Be-cy";
kernLeft = H;
kernRight = "Be-cy";
lastChange = "2016-08-08 23:45:09 +0000";
layers = (
{
layerId = UUID0;
shapes = (
{
closed = 1;
nodes = (
(540,535,o),
(554,550,o),
(554,585,cs),
(554,672,ls),
(554,702,o),
(533,709,o),
(494,709,cs),
(146,709,ls),
(115,709,o),
(100,694,o),
(100,659,cs),
(100,50,ls),
(100,15,o),
(115,0,o),
(146,0,cs),
(351,0,ls),
(438,0,o),
(600,39,o),
(600,211,cs),
(600,363,o),
(502,416,o),
(353,416,cs),
(208,416,l),
(208,656,l),
(453,656,l),
(453,600,ls),
(453,552,o),
(473,535,o),
(511,535,cs)
);
},
{
closed = 1;
nodes = (
(333,363,l),
(425,363,o),
(487,323,o),
(487,211,cs),
(487,91,o),
(404,53,o),
(338,53,cs),
(208,53,l),
(208,363,l)
);
}
);
width = 646;
}
);
unicode = 1041;
},
{
glyphname = "Ve-cy";
kernLeft = H;
kernRight = B;
lastChange = "2016-08-08 23:45:09 +0000";
layers = (
{
layerId = UUID0;
shapes = (
{
closed = 1;
nodes = (
(100,50,ls),
(100,15,o),
(115,0,o),
(146,0,cs),
(356,0,ls),
(449,0,o),
(610,30,o),
(610,212,cs),
(610,289,o),
(566,358,o),
(460,376,c),
(460,381,l),
(532,399,o),
(573,468,o),
(573,531,cs),
(573,651,o),
(496,709,o),
(351,709,cs),
(146,709,ls),
(115,709,o),
(100,694,o),
(100,659,c)
);
},
{
closed = 1;
nodes = (
(332,345,l),
(403,345,o),
(497,309,o),
(497,202,cs),
(497,82,o),
(403,53,o),
(342,53,cs),
(208,53,l),
(208,345,l)
);
},
{
closed = 1;
nodes = (
(315,656,l),
(373,656,o),
(460,630,o),
(460,534,cs),
(460,432,o),
(380,398,o),
(323,398,cs),
(208,398,l),
(208,656,l)
);
}
);
width = 670;
}
);
unicode = 1042;
},
{
glyphname = "Ge-cy";
kernLeft = H;
kernRight = "Ge-cy";
lastChange = "2016-08-08 23:45:09 +0000";
layers = (
{
anchors = (
{
name = bottomright;
pos = (146,0);
},
{
name = top;
pos = (276,709);
}
);
layerId = UUID0;
shapes = (
{
closed = 1;
nodes = (
(208,656,l),
(435,656,l),
(435,580,ls),
(435,532,o),
(455,515,o),
(493,515,cs),
(522,515,o),
(536,530,o),
(536,565,cs),
(536,672,ls),
(536,702,o),
(515,709,o),
(476,709,cs),
(146,709,ls),
(115,709,o),
(100,694,o),
(100,659,cs),
(100,50,ls),
(100,15,o),
(115,0,o),
(146,0,cs),
(187,0,o),
(208,17,o),
(208,65,cs)
);
}
);
width = 551;
}
);
unicode = 1043;
},
{
glyphname = "Gheupturn-cy";
kernLeft = H;
kernRight = "Ge-cy";
lastChange = "2016-08-08 23:45:09 +0000";
layers = (
{
layerId = UUID0;
shapes = (
{
closed = 1;
nodes = (
(208,656,l),
(457,656,ls),
(496,656,o),
(517,663,o),
(517,693,cs),
(517,800,ls),
(517,835,o),
(503,850,o),
(474,850,cs),
(436,850,o),
(416,833,o),
(416,785,cs),
(416,709,l),
(146,709,ls),
(115,709,o),
(100,694,o),
(100,659,cs),
(100,50,ls),
(100,15,o),
(115,0,o),
(146,0,cs),
(187,0,o),
(208,17,o),
(208,65,cs)
);
}
);
width = 517;
}
);
unicode = 1168;
},
{
glyphname = "Ghestroke-cy";
kernLeft = H;
kernRight = "Ge-cy";
lastChange = "2016-08-08 23:45:09 +0000";
layers = (
{
background = {
shapes = (
{
closed = 1;
nodes = (
(428,334,l),
(442,334,o),
(456,348,o),
(456,361,cs),
(456,375,o),
(447,389,o),
(428,389,cs),
(218,389,l),
(218,656,l),
(455,656,l),
(455,610,ls),
(455,562,o),
(475,545,o),
(513,545,cs),
(542,545,o),
(556,560,o),
(556,595,cs),
(556,672,ls),
(556,702,o),
(535,709,o),
(496,709,cs),
(156,709,ls),
(125,709,o),
(110,694,o),
(110,659,cs),
(110,50,ls),
(110,15,o),
(125,0,o),
(156,0,cs),
(197,0,o),
(218,17,o),
(218,65,cs),
(218,334,l)
);
}
);
};
layerId = UUID0;
shapes = (
{
closed = 1;
nodes = (
(388,334,l),
(402,334,o),
(416,348,o),
(416,361,cs),
(416,375,o),
(407,389,o),
(388,389,c),
(38,389,l),
(19,389,o),
(10,375,o),
(10,361,cs),
(10,348,o),
(24,334,o),
(38,334,c)
);
},
{
pos = (10,0);
ref = "Ge-cy";
}
);
width = 561;
}
);
unicode = 1170;
},
{
glyphname = "De-cy";
kernLeft = "De-cy";
kernRight = "Tse-cy";
lastChange = "2016-08-09 01:03:23 +0000";
layers = (
{
layerId = UUID0;
shapes = (
{
closed = 1;
nodes = (
(580,0,l),
(580,-102,ls),
(580,-150,o),
(600,-167,o),
(638,-167,cs),
(667,-167,o),
(681,-152,o),
(681,-117,cs),
(681,16,ls),
(681,46,o),
(660,53,o),
(621,53,cs),
(591,53,l),
(591,659,ls),
(591,694,o),
(576,709,o),
(545,709,cs),
(213,709,ls),
(182,709,o),
(169,696,o),
(169,659,cs),
(169,552,ls),
(169,293,o),
(151,136,o),
(67,53,c),
(57,53,ls),
(20,52,o),
(0,45,o),
(0,16,cs),
(0,-117,ls),
(0,-152,o),
(14,-167,o),
(43,-167,cs),
(81,-167,o),
(101,-150,o),
(101,-102,cs),
(101,0,l)
);
},
{
closed = 1;
nodes = (
(248,656,l),
(483,656,l),
(483,53,l),
(160,53,l),
(235,173,o),
(248,343,o),
(248,555,c)
);
}
);
width = 707;
}
);
unicode = 1044;
},
{
glyphname = "Ie-cy";
kernLeft = H;
kernRight = E;
lastChange = "2016-08-08 23:45:09 +0000";
layers = (
{
anchors = (
{
name = top;
pos = (321,709);
}
);
layerId = UUID0;
shapes = (
{
closed = 1;
nodes = (
(532,535,o),
(546,550,o),
(546,585,c),
(546,672,l),
(546,702,o),
(525,709,o),
(486,709,c),
(146,709,l),
(115,709,o),
(100,694,o),
(100,659,c),
(100,50,l),
(100,15,o),
(115,0,o),
(146,0,c),
(501,0,l),
(540,0,o),
(561,7,o),
(561,37,c),
(561,124,l),
(561,159,o),
(547,174,o),
(518,174,cs),
(480,174,o),
(460,157,o),
(460,109,c),
(460,53,l),
(208,53,l),
(208,339,l),
(418,339,ls),
(432,339,o),
(446,353,o),
(446,366,cs),
(446,380,o),
(437,394,o),
(418,394,cs),
(208,394,l),
(208,656,l),
(445,656,l),
(445,600,l),
(445,552,o),
(465,535,o),
(503,535,cs)
);
}
);
width = 601;
}
);
unicode = 1045;
},
{
glyphname = "Io-cy";
kernLeft = H;
kernRight = E;
lastChange = "2016-08-08 23:45:09 +0000";
layers = (
{
layerId = UUID0;
shapes = (
{
closed = 1;
nodes = (
(532,535,o),
(546,550,o),
(546,585,c),
(546,672,l),
(546,702,o),
(525,709,o),
(486,709,c),
(146,709,l),
(115,709,o),
(100,694,o),
(100,659,c),
(100,50,l),
(100,15,o),
(115,0,o),
(146,0,c),
(501,0,l),
(540,0,o),
(561,7,o),
(561,37,c),
(561,124,l),
(561,159,o),
(547,174,o),
(518,174,cs),
(480,174,o),
(460,157,o),
(460,109,c),
(460,53,l),
(208,53,l),
(208,339,l),
(418,339,ls),
(432,339,o),
(446,353,o),
(446,366,cs),
(446,380,o),
(437,394,o),
(418,394,cs),
(208,394,l),
(208,656,l),
(445,656,l),
(445,600,l),
(445,552,o),
(465,535,o),
(503,535,cs)
);
},
{
closed = 1;
nodes = (
(353,816,o),
(385,783,o),
(421,783,cs),
(457,783,o),
(490,816,o),
(490,851,cs),
(490,889,o),
(457,920,o),
(421,920,cs),
(385,920,o),
(353,889,o),
(353,851,cs)
);
},
{
closed = 1;
nodes = (
(146,817,o),
(179,784,o),
(213,784,cs),
(251,784,o),
(283,817,o),
(283,852,cs),
(283,889,o),
(251,921,o),
(213,921,cs),
(179,921,o),
(146,889,o),
(146,852,cs)
);
}
);
width = 601;
}
);
unicode = 1025;
},
{
glyphname = "Zhe-cy";
kernLeft = X;
kernRight = K;
lastChange = "2016-08-09 00:51:06 +0000";
layers = (
{
anchors = (
{
name = bottomright;
pos = (798,0);
},
{
name = top;
pos = (420,709);
}
);
layerId = UUID0;
shapes = (
{
closed = 1;
nodes = (
(369,389,l),
(352,389,l),
(96,689,ls),
(83,705,o),
(70,709,o),
(57,709,cs),
(36,709,o),
(22,692,o),
(22,677,cs),
(22,672,o),
(24,668,o),
(27,665,cs),
(275,383,l),
(19,66,ls),
(11,57,o),
(5,47,o),
(5,37,cs),
(5,18,o),
(22,0,o),
(46,0,cs),
(73,0,o),
(101,5,o),
(134,49,cs),
(352,335,l),
(369,335,l),
(369,50,ls),
(369,15,o),
(384,0,o),
(420,0,cs),
(454,0,o),
(475,12,o),
(475,60,cs),
(475,335,l),
(492,335,l),
(710,49,ls),
(743,5,o),
(771,0,o),
(798,0,cs),
(822,0,o),
(839,18,o),
(839,37,cs),
(839,47,o),
(833,57,o),
(825,66,cs),
(569,383,l),
(817,665,ls),
(820,668,o),
(822,672,o),
(822,677,cs),
(822,692,o),
(808,709,o),
(787,709,cs),
(774,709,o),
(761,705,o),
(748,689,cs),
(492,389,l),
(475,389,l),
(475,650,ls),
(475,701,o),
(452,709,o),
(418,709,cs),
(382,709,o),
(369,696,o),
(369,659,cs)
);
}
);
width = 844;
}
);
unicode = 1046;
},
{
glyphname = "Ze-cy";
kernLeft = "Ze-cy";
kernRight = B;
lastChange = "2016-08-09 00:53:19 +0000";
layers = (
{
anchors = (
{
name = bottom;
pos = (291,0);
},
{
name = top;
pos = (271,709);
}
);
layerId = UUID0;
shapes = (
{
closed = 1;
nodes = (
(141,125,ls),
(141,171,o),
(121,188,o),
(83,188,cs),
(54,188,o),
(40,173,o),
(40,140,cs),
(40,80,ls),
(40,51,o),
(50,44,o),
(79,32,cs),
(127,13,o),
(196,0,o),
(264,0,cs),
(463,0,o),
(536,111,o),
(536,207,cs),
(536,311,o),
(471,354,o),
(389,367,c),
(389,373,l),
(452,393,o),
(513,437,o),
(513,533,cs),
(513,626,o),
(452,709,o),
(281,709,cs),
(219,709,o),
(154,700,o),
(95,682,cs),
(64,672,o),
(54,664,o),
(54,633,cs),
(54,576,ls),
(54,541,o),
(68,526,o),
(97,526,cs),
(135,526,o),
(155,543,o),
(155,591,cs),
(155,647,l),
(186,654,o),
(223,658,o),
(261,658,cs),
(350,658,o),
(403,606,o),
(403,533,cs),
(403,462,o),
(375,394,o),
(265,394,cs),
(171,394,ls),
(161,394,o),
(156,380,o),
(156,366,cs),
(156,352,o),
(161,339,o),
(171,339,cs),
(264,339,ls),
(394,339,o),
(423,275,o),
(423,207,cs),
(423,135,o),
(377,51,o),
(259,51,cs),
(209,51,o),
(183,56,o),
(141,71,c)
);
}
);
width = 596;
}
);
unicode = 1047;
},
{
glyphname = "Ii-cy";
kernLeft = H;
kernRight = H;
lastChange = "2016-08-08 23:45:09 +0000";
layers = (
{
anchors = (
{
name = bottomright;
pos = (720,0);
},
{
name = top;
pos = (380,709);
}
);
layerId = UUID0;
shapes = (
{
closed = 1;
nodes = (
(553,709,o),
(543,692,o),
(532,674,cs),
(208,139,l),
(208,632,l),
(208,683,o),
(185,709,o),
(144,709,cs),
(113,709,o),
(100,696,o),
(100,659,c),
(100,50,l),
(100,15,o),
(115,0,o),
(146,0,cs),
(187,0,o),
(199,19,o),
(208,35,cs),
(532,570,l),
(532,77,l),
(532,26,o),
(555,0,o),
(596,0,cs),
(627,0,o),
(640,13,o),
(640,50,c),
(640,659,l),
(640,694,o),
(625,709,o),
(594,709,cs)
);
}
);
width = 740;
}
);
unicode = 1048;
},
{
glyphname = "Iishort-cy";
kernLeft = H;
kernRight = H;
lastChange = "2016-08-08 23:45:09 +0000";
layers = (
{
layerId = UUID0;
shapes = (
{
closed = 1;
nodes = (
(553,709,o),
(543,692,o),
(532,674,cs),
(208,139,l),
(208,632,ls),
(208,683,o),
(185,709,o),
(144,709,cs),
(113,709,o),
(100,696,o),
(100,659,cs),
(100,50,ls),
(100,15,o),
(115,0,o),
(146,0,cs),
(187,0,o),
(198,19,o),
(208,35,cs),
(532,570,l),
(532,77,ls),
(532,26,o),
(555,0,o),
(596,0,cs),
(627,0,o),
(640,13,o),
(640,50,cs),
(640,659,ls),
(640,694,o),
(625,709,o),
(594,709,cs)
);
},
{
closed = 1;
nodes = (
(443,837,o),
(424,805,o),
(370,805,cs),
(316,805,o),
(297,837,o),
(290,875,cs),
(283,913,o),
(257,922,o),
(228,922,cs),
(202,922,o),
(178,912,o),
(178,885,c),
(183,806,o),
(252,764,o),
(370,764,cs),
(487,764,o),
(562,807,o),
(562,888,cs),
(562,913,o),
(535,922,o),
(512,922,cs),
(483,922,o),
(457,913,o),
(450,875,cs)
);
}
);
width = 740;
}
);
unicode = 1049;
},
{
glyphname = "Ka-cy";
kernLeft = H;
kernRight = K;
lastChange = "2016-08-08 23:50:13 +0000";
layers = (
{
anchors = (
{
name = bottomright;
pos = (570,0);
},
{
name = center;
pos = (303,355);
},
{
name = top;
pos = (323,709);
}
);
layerId = UUID0;
shapes = (
{
closed = 1;
nodes = (
(208,632,l),
(208,683,o),
(185,709,o),
(144,709,cs),
(113,709,o),
(100,696,o),
(100,659,cs),
(100,50,ls),
(100,15,o),
(115,0,o),
(146,0,cs),
(187,0,o),
(208,17,o),
(208,65,cs),
(208,334,l),
(229,334,l),
(480,49,ls),
(517,8,o),
(543,0,o),
(570,0,cs),
(595,0,o),
(611,18,o),
(611,37,cs),
(611,47,o),
(605,57,o),
(597,66,cs),
(309,383,l),
(594,665,ls),
(597,668,o),
(599,672,o),
(599,677,cs),
(599,692,o),
(584,709,o),
(563,709,cs),
(550,709,o),
(537,704,o),
(523,689,cs),
(229,389,l),
(208,389,l)
);
}
);
width = 606;
}
);
unicode = 1050;
},
{
glyphname = "El-cy";
kernLeft = "El-cy";
kernRight = H;
lastChange = "2016-08-09 00:59:01 +0000";
layers = (
{
layerId = UUID0;
shapes = (
{
closed = 1;
nodes = (
(242,709,ls),
(211,709,o),
(198,696,o),
(198,659,cs),
(198,552,ls),
(198,403,o),
(198,292,o),
(169,207,cs),
(151,154,o),
(121,116,o),
(74,100,cs),
(28,85,o),
(20,78,o),
(20,54,cs),
(20,27,o),
(38,0,o),
(63,0,cs),
(150,0,o),
(215,106,o),
(237,172,cs),
(268,267,o),
(277,388,o),
(277,555,cs),
(277,656,l),
(512,656,l),
(512,77,ls),
(512,26,o),
(535,0,o),
(576,0,cs),
(607,0,o),
(620,13,o),
(620,50,cs),
(620,659,ls),
(620,694,o),
(605,709,o),
(574,709,c)
);
}
);
width = 720;
}
);
unicode = 1051;
},
{
glyphname = "En-cy";
kernLeft = H;
kernRight = H;
lastChange = "2016-08-08 23:51:17 +0000";
layers = (
{
anchors = (
{
name = bottomright;
pos = (598,0);
}
);
layerId = UUID0;
shapes = (
{
closed = 1;
nodes = (
(555,709,o),
(534,692,o),
(534,644,c),
(534,394,l),
(208,394,l),
(208,632,l),
(208,683,o),
(185,709,o),
(144,709,cs),
(113,709,o),
(100,696,o),
(100,659,c),
(100,50,l),
(100,15,o),
(115,0,o),
(146,0,cs),
(187,0,o),
(208,17,o),
(208,65,c),
(208,339,l),
(534,339,l),
(534,77,l),
(534,26,o),
(557,0,o),
(598,0,cs),
(629,0,o),
(642,13,o),
(642,50,c),
(642,659,l),
(642,694,o),
(627,709,o),
(596,709,cs)
);
}
);
width = 742;
}
);
unicode = 1053;
},
{
glyphname = "O-cy";
kernLeft = O;
kernRight = O;
lastChange = "2016-08-08 23:45:09 +0000";
layers = (
{
anchors = (
{
name = top;
pos = (358,709);
}
);
layerId = UUID0;
shapes = (
{
closed = 1;
nodes = (
(663,461,o),
(630,709,o),
(357,709,cs),
(84,709,o),
(53,461,o),
(53,354,cs),
(53,245,o),
(84,0,o),
(357,0,cs),
(630,0,o),
(663,245,o),
(663,354,cs)
);
},
{
closed = 1;
nodes = (
(550,253,o),
(533,51,o),
(357,51,cs),
(184,51,o),
(166,253,o),
(166,354,cs),
(166,455,o),
(184,658,o),
(357,658,cs),
(533,658,o),
(550,455,o),
(550,354,cs)
);
}
);
width = 716;
}
);
unicode = 1054;
},
{
glyphname = "Pe-cy";
kernLeft = H;
kernRight = H;
lastChange = "2016-08-08 23:45:09 +0000";
layers = (
{
anchors = (
{
name = bottomright;
pos = (594,0);
}
);
layerId = UUID0;
shapes = (
{
closed = 1;
nodes = (
(208,709,l),
(144,709,l),
(113,709,o),
(100,696,o),
(100,659,c),
(100,50,l),
(100,15,o),
(115,0,o),
(146,0,cs),
(187,0,o),
(208,17,o),
(208,65,c),
(208,656,l),
(531,656,l),
(531,77,l),
(531,26,o),
(554,0,o),
(595,0,cs),
(626,0,o),
(639,13,o),
(639,50,c),
(639,659,l),
(639,694,o),
(624,709,o),
(593,709,cs)
);
}
);
width = 739;
}
);
unicode = 1055;
},
{
glyphname = "Er-cy";
kernLeft = H;
kernRight = P;
lastChange = "2016-08-08 23:45:09 +0000";
layers = (
{
layerId = UUID0;
shapes = (
{
closed = 1;
nodes = (
(312,275,l),
(496,275,o),
(582,377,o),
(582,502,cs),
(582,704,o),
(389,709,o),
(311,709,cs),
(144,709,ls),
(113,709,o),
(100,696,o),
(100,659,cs),
(100,50,ls),
(100,15,o),
(115,0,o),
(146,0,cs),
(187,0,o),
(208,17,o),
(208,65,cs),
(208,275,l)
);
},
{
closed = 1;
nodes = (
(311,656,l),
(430,656,o),
(469,595,o),
(469,502,cs),
(469,379,o),
(407,328,o),
(311,328,cs),
(208,328,l),
(208,656,l)
);
}
);
width = 617;
}
);
unicode = 1056;
},
{
glyphname = "Es-cy";
kernLeft = O;
kernRight = C;
lastChange = "2016-08-08 23:45:09 +0000";
layers = (
{
anchors = (
{
name = bottom;
pos = (351,0);
}
);
layerId = UUID0;
shapes = (
{
closed = 1;
nodes = (
(532,529,o),
(546,544,o),
(546,579,cs),
(546,639,ls),
(546,670,o),
(536,678,o),
(505,688,cs),
(458,703,o),
(409,709,o),
(359,709,cs),
(186,709,o),
(53,598,o),
(53,348,cs),
(53,132,o),
(143,0,o),
(351,0,cs),
(431,0,o),
(482,14,o),
(531,34,cs),
(548,41,ls),
(557,45,o),
(561,53,o),
(561,61,cs),
(561,75,o),
(551,91,o),
(537,91,cs),
(534,91,o),
(532,90,o),
(529,89,cs),
(510,81,ls),
(467,63,o),
(420,52,o),
(379,52,cs),
(249,52,o),
(166,116,o),
(166,346,cs),
(166,555,o),
(249,658,o),
(372,658,cs),
(398,658,o),
(422,655,o),
(445,650,c),
(445,594,ls),
(445,546,o),
(465,529,o),
(503,529,cs)
);
}
);
width = 581;
}
);
unicode = 1057;
},
{
glyphname = "Te-cy";
kernLeft = T;
kernRight = T;
lastChange = "2016-08-08 23:45:09 +0000";
layers = (
{
anchors = (
{
name = bottomright;
pos = (317,0);
}
);
layerId = UUID0;
shapes = (
{
closed = 1;
nodes = (
(529,656,l),
(529,585,ls),
(529,537,o),
(549,520,o),
(587,520,cs),
(616,520,o),
(630,535,o),
(630,570,cs),
(630,672,ls),
(630,702,o),
(609,709,o),
(570,709,cs),
(80,709,ls),
(41,709,o),
(20,702,o),
(20,672,cs),
(20,570,ls),
(20,535,o),
(34,520,o),
(63,520,cs),
(101,520,o),
(121,537,o),
(121,585,cs),
(121,656,l),
(271,656,l),
(271,50,ls),
(271,15,o),
(286,0,o),
(317,0,cs),
(358,0,o),
(379,12,o),
(379,60,cs),
(379,656,l)
);
}
);
width = 650;
}
);
unicode = 1058;
},
{
glyphname = "U-cy";
kernLeft = "U-cy";
kernRight = "U-cy";
lastChange = "2016-08-09 10:56:39 +0000";
layers = (
{
anchors = (
{
name = top;
pos = (318,709);
}
);
layerId = UUID0;
shapes = (
{
closed = 1;
nodes = (
(354,305,l),
(348,305,l),
(160,657,ls),
(138,699,o),
(116,709,o),
(83,709,cs),
(61,709,o),
(47,694,o),
(47,674,cs),
(47,666,o),
(48,658,o),
(53,649,cs),
(300,195,l),
(275,133,o),
(241,102,o),
(180,96,cs),
(129,90,o),
(113,83,o),
(113,55,cs),
(113,15,o),
(135,0,o),
(163,0,cs),
(271,0,o),
(348,120,o),
(389,217,cs),
(575,654,ls),
(578,660,o),
(580,668,o),
(580,676,cs),
(580,693,o),
(569,709,o),
(549,709,cs),
(526,709,o),
(506,696,o),
(491,656,cs)
);
}
);
width = 615;
}
);
unicode = 1059;
},
{
glyphname = "Ef-cy";
kernLeft = O;
kernRight = O;
lastChange = "2016-08-08 23:45:09 +0000";
layers = (
{
layerId = UUID0;
shapes = (
{
closed = 1;
nodes = (
(473,659,l),
(473,694,o),
(458,709,o),
(423,709,cs),
(386,709,o),
(365,697,o),
(365,649,cs),
(365,591,l),
(245,591,o),
(45,557,o),
(45,356,cs),
(45,210,o),
(149,115,o),
(366,115,c),
(366,51,ls),
(366,17,o),
(381,0,o),
(418,0,cs),
(453,0,o),
(473,14,o),
(473,61,cs),
(473,115,l),
(690,115,o),
(794,210,o),
(794,356,cs),
(794,557,o),
(593,591,o),
(473,591,c)
);
},
{
closed = 1;
nodes = (
(472,540,l),
(618,540,o),
(682,459,o),
(682,356,cs),
(682,218,o),
(588,166,o),
(472,166,c)
);
},
{
closed = 1;
nodes = (
(367,166,l),
(251,166,o),
(157,218,o),
(157,356,cs),
(157,459,o),
(221,540,o),
(367,540,c)
);
}
);
width = 839;
}
);
unicode = 1060;
},
{
glyphname = "Ha-cy";
kernLeft = X;
kernRight = X;
lastChange = "2016-08-09 00:56:39 +0000";
layers = (
{
anchors = (
{
name = bottomright;
pos = (519,0);
}
);
layerId = UUID0;
shapes = (
{
closed = 1;
nodes = (
(311,434,l),
(305,434,l),
(180,656,ls),
(163,687,o),
(140,709,o),
(102,709,cs),
(80,709,o),
(63,693,o),
(63,675,cs),
(63,667,o),
(65,659,o),
(70,651,cs),
(241,366,l),
(41,54,ls),
(36,46,o),
(30,33,o),
(30,22,cs),
(30,11,o),
(38,0,o),
(60,0,cs),
(78,0,o),
(98,5,o),
(128,54,cs),
(285,307,l),
(289,307,l),
(439,52,ls),
(460,16,o),
(479,0,o),
(520,0,cs),
(544,0,o),
(559,15,o),
(559,32,cs),
(559,41,o),
(556,52,o),
(551,60,cs),
(354,382,l),
(522,655,ls),
(530,666,o),
(533,677,o),
(533,685,cs),
(533,700,o),
(518,709,o),
(503,709,cs),
(479,709,o),
(461,693,o),
(439,656,cs)
);
}
);
width = 589;
}
);
unicode = 1061;
},
{
glyphname = "Che-cy";
kernLeft = "Che-cy";
kernRight = H;
lastChange = "2016-08-09 00:56:44 +0000";
layers = (
{
anchors = (
{
name = bottomright;
pos = (519,0);
},
{
name = top;
pos = (319,709);
}
);
layerId = UUID0;
shapes = (
{
closed = 1;
nodes = (
(551,0,o),
(564,13,o),
(564,50,cs),
(564,659,ls),
(564,694,o),
(549,709,o),
(518,709,cs),
(477,709,o),
(456,692,o),
(456,644,cs),
(456,356,l),
(410,330,o),
(351,317,o),
(307,317,cs),
(215,317,o),
(174,364,o),
(174,451,cs),
(174,632,ls),
(174,683,o),
(154,709,o),
(113,709,cs),
(82,709,o),
(70,696,o),
(70,659,cs),
(70,448,ls),
(70,309,o),
(152,261,o),
(278,261,cs),
(347,261,o),
(397,276,o),
(456,300,c),
(456,77,ls),
(456,26,o),
(479,0,o),
(520,0,cs)
);
}
);
width = 664;
}
);
unicode = 1063;
},
{
glyphname = "Tse-cy";
kernLeft = H;
kernRight = "Tse-cy";
lastChange = "2016-08-08 23:45:09 +0000";
layers = (
{
layerId = UUID0;
shapes = (
{
closed = 1;
nodes = (
(607,0,l),
(607,-102,ls),
(607,-150,o),
(627,-167,o),
(665,-167,cs),
(694,-167,o),
(708,-152,o),
(708,-117,cs),
(708,16,ls),
(708,46,o),
(687,53,o),
(648,53,cs),
(618,53,l),
(618,659,ls),
(618,694,o),
(603,709,o),
(572,709,cs),
(531,709,o),
(510,692,o),
(510,644,cs),
(510,53,l),
(208,53,l),
(208,632,ls),
(208,683,o),
(185,709,o),
(144,709,cs),
(113,709,o),
(100,696,o),
(100,659,cs),
(100,50,ls),
(100,15,o),
(115,0,o),
(146,0,cs)
);
}
);
width = 734;
}
);
unicode = 1062;
},
{
glyphname = "Sha-cy";
kernLeft = H;
kernRight = H;
lastChange = "2016-08-08 23:45:09 +0000";
layers = (
{
layerId = UUID0;
shapes = (
{
closed = 1;
nodes = (
(860,0,l),
(891,0,o),
(906,15,o),
(906,50,cs),
(906,659,ls),
(906,694,o),
(891,709,o),
(860,709,cs),
(819,709,o),
(798,692,o),
(798,644,cs),
(798,53,l),
(557,53,l),
(557,659,ls),
(557,694,o),
(542,709,o),
(511,709,cs),
(470,709,o),
(449,697,o),
(449,649,cs),
(449,53,l),
(208,53,l),
(208,632,ls),
(208,683,o),
(185,709,o),
(144,709,cs),
(113,709,o),
(100,696,o),
(100,659,cs),
(100,50,ls),
(100,15,o),
(115,0,o),
(146,0,cs)
);
}
);
width = 1006;
}
);
unicode = 1064;
},
{
glyphname = "Shcha-cy";
kernLeft = H;
kernRight = "Tse-cy";
lastChange = "2016-08-08 23:45:09 +0000";
layers = (
{
layerId = UUID0;
shapes = (
{
closed = 1;
nodes = (
(557,659,l),
(557,694,o),
(542,709,o),
(511,709,cs),
(470,709,o),
(449,697,o),
(449,649,cs),
(449,53,l),
(208,53,l),
(208,632,ls),
(208,683,o),
(185,709,o),
(144,709,cs),
(113,709,o),
(100,696,o),
(100,659,cs),
(100,50,ls),
(100,15,o),
(115,0,o),
(146,0,cs),
(895,0,l),
(895,-102,ls),
(895,-150,o),
(915,-167,o),
(953,-167,cs),
(982,-167,o),
(996,-152,o),
(996,-117,cs),
(996,16,ls),
(996,46,o),
(975,53,o),
(936,53,cs),
(906,53,l),
(906,659,ls),
(906,694,o),
(891,709,o),
(860,709,cs),
(819,709,o),
(798,692,o),
(798,644,cs),
(798,53,l),
(557,53,l)
);
}
);
width = 1022;
}
);
unicode = 1065;
},
{
glyphname = "Dzhe-cy";
kernLeft = H;
kernRight = H;
lastChange = "2016-08-08 23:45:09 +0000";
layers = (
{
layerId = UUID0;
shapes = (
{
closed = 1;
nodes = (
(406,-182,o),
(420,-167,o),
(420,-132,cs),
(420,0,l),
(595,0,ls),
(626,0,o),
(639,13,o),
(639,50,cs),
(639,659,ls),
(639,694,o),
(624,709,o),
(593,709,cs),
(552,709,o),
(531,692,o),
(531,644,cs),
(531,53,l),
(208,53,l),
(208,632,ls),
(208,683,o),
(185,709,o),
(144,709,cs),
(113,709,o),
(100,696,o),
(100,659,cs),
(100,50,ls),
(100,15,o),
(115,0,o),
(146,0,cs),
(319,0,l),
(319,-133,ls),
(319,-167,o),
(339,-182,o),
(370,-182,cs)
);
}
);
width = 739;
}
);
unicode = 1039;
},
{
glyphname = "Softsign-cy";
kernLeft = H;
kernRight = "Softsign-cy";
lastChange = "2016-08-08 23:45:09 +0000";
layers = (
{
layerId = UUID0;
shapes = (
{
closed = 1;
nodes = (
(208,632,l),
(208,683,o),
(185,709,o),
(144,709,cs),
(113,709,o),
(100,696,o),
(100,659,cs),
(100,50,ls),
(100,15,o),
(115,0,o),
(146,0,cs),
(326,0,ls),
(413,0,o),
(575,30,o),
(575,215,cs),
(575,379,o),
(477,427,o),
(328,427,cs),
(208,427,l)
);
},
{
closed = 1;
nodes = (
(308,374,l),
(400,374,o),
(462,339,o),
(462,215,cs),
(462,83,o),
(379,53,o),
(313,53,cs),
(207,53,l),
(207,374,l)
);
}
);
width = 630;
}
);
unicode = 1068;
},
{
glyphname = "Yeru-cy";
kernLeft = H;
kernRight = H;
lastChange = "2016-08-08 23:45:09 +0000";
layers = (
{
anchors = (
{
name = top;
pos = (435,709);
}
);
layerId = UUID0;
shapes = (
{
closed = 1;
nodes = (
(208,632,l),
(208,683,o),
(185,709,o),
(144,709,cs),
(113,709,o),
(100,696,o),
(100,659,cs),
(100,50,ls),
(100,15,o),
(115,0,o),
(146,0,cs),
(296,0,ls),
(383,0,o),
(545,28,o),
(545,200,cs),
(545,352,o),
(447,397,o),
(298,397,cs),
(208,397,l)
);
},
{
closed = 1;
nodes = (
(278,344,l),
(370,344,o),
(432,312,o),
(432,200,cs),
(432,80,o),
(349,53,o),
(283,53,cs),
(207,53,l),
(207,344,l)
);
},
{
closed = 1;
nodes = (
(661,709,o),
(640,692,o),
(640,644,cs),
(640,77,ls),
(640,26,o),
(663,0,o),
(704,0,cs),
(735,0,o),
(748,13,o),
(748,50,cs),
(748,659,ls),
(748,694,o),
(733,709,o),
(702,709,cs)
);
}
);
width = 889;
}
);
unicode = 1067;
},
{
glyphname = "Hardsign-cy";
kernLeft = T;
kernRight = "Softsign-cy";
lastChange = "2016-08-08 23:45:09 +0000";
layers = (
{
layerId = UUID0;
shapes = (
{
closed = 1;
nodes = (
(238,656,l),
(238,50,ls),
(238,15,o),
(253,0,o),
(284,0,cs),
(474,0,ls),
(561,0,o),
(723,28,o),
(723,200,cs),
(723,352,o),
(625,397,o),
(476,397,cs),
(346,397,l),
(346,659,ls),
(346,694,o),
(331,709,o),
(300,709,cs),
(68,709,ls),
(29,709,o),
(8,702,o),
(8,672,cs),
(8,570,ls),
(8,535,o),
(22,520,o),
(51,520,cs),
(89,520,o),
(109,537,o),
(109,585,cs),
(109,656,l)
);
},
{
closed = 1;
nodes = (
(456,344,l),
(548,344,o),
(610,312,o),
(610,200,cs),
(610,80,o),
(527,53,o),
(461,53,cs),
(345,53,l),
(345,344,l)
);
}
);
width = 758;
}
);
unicode = 1066;
},
{
glyphname = "Lje-cy";
kernLeft = "El-cy";
kernRight = "Softsign-cy";
lastChange = "2016-08-08 23:45:09 +0000";
layers = (
{
layerId = UUID0;
shapes = (
{
closed = 1;
nodes = (
(738,0,ls),
(825,0,o),
(987,28,o),
(987,200,cs),
(987,352,o),
(889,397,o),
(740,397,cs),
(615,397,l),
(615,659,ls),
(615,694,o),
(600,709,o),
(569,709,cs),
(242,709,ls),
(211,709,o),
(198,696,o),
(198,659,cs),
(198,552,ls),
(198,403,o),
(198,292,o),
(169,207,cs),
(151,154,o),
(121,116,o),
(74,100,cs),
(28,85,o),
(20,78,o),
(20,54,cs),
(20,27,o),
(38,0,o),
(63,0,cs),
(150,0,o),
(215,106,o),
(237,172,cs),
(268,267,o),
(277,388,o),
(277,555,cs),
(277,656,l),
(507,656,l),
(507,50,ls),
(507,15,o),
(522,0,o),
(553,0,c)
);
},
{
closed = 1;
nodes = (
(720,344,l),
(812,344,o),
(874,312,o),
(874,200,cs),
(874,80,o),
(791,53,o),
(725,53,cs),
(614,53,l),
(614,344,l)
);
}
);
width = 1032;
}
);
unicode = 1033;
},
{
glyphname = "Nje-cy";
kernLeft = H;
kernRight = "Softsign-cy";
lastChange = "2016-08-08 23:45:09 +0000";
layers = (
{
layerId = UUID0;
shapes = (
{
closed = 1;
nodes = (
(634,632,l),
(634,683,o),
(611,709,o),
(570,709,cs),
(539,709,o),
(526,696,o),
(526,659,cs),
(526,394,l),
(208,394,l),
(208,632,ls),
(208,683,o),
(185,709,o),
(144,709,cs),
(113,709,o),
(100,696,o),
(100,659,cs),
(100,50,ls),
(100,15,o),
(115,0,o),
(146,0,cs),
(187,0,o),
(208,17,o),
(208,65,cs),
(208,339,l),
(526,339,l),
(526,50,ls),
(526,15,o),
(541,0,o),
(572,0,cs),
(757,0,ls),
(844,0,o),
(1006,26,o),
(1006,198,cs),
(1006,350,o),
(908,392,o),
(759,392,cs),
(634,392,l)
);
},
{
closed = 1;
nodes = (
(739,339,l),
(831,339,o),
(893,310,o),
(893,198,cs),
(893,78,o),
(810,53,o),
(744,53,cs),
(633,53,l),
(633,339,l)
);
}
);
width = 1051;
}
);
unicode = 1034;
},
{
glyphname = "Dze-cy";
kernLeft = S;
kernRight = S;
lastChange = "2016-08-08 23:45:09 +0000";
layers = (
{
layerId = UUID0;
shapes = (
{
closed = 1;
nodes = (
(511,527,o),
(525,542,o),
(525,575,cs),
(525,633,ls),
(525,662,o),
(515,670,o),
(484,680,cs),
(433,695,o),
(376,709,o),
(299,709,cs),
(147,709,o),
(61,635,o),
(61,528,cs),
(61,408,o),
(153,372,o),
(291,321,cs),
(405,279,o),
(459,251,o),
(459,183,cs),
(459,118,o),
(401,51,o),
(287,51,cs),
(244,51,o),
(204,59,o),
(165,72,c),
(165,126,ls),
(165,172,o),
(145,189,o),
(107,189,cs),
(78,189,o),
(64,174,o),
(64,141,cs),
(64,81,ls),
(64,52,o),
(74,45,o),
(103,33,cs),
(150,15,o),
(230,0,o),
(291,0,cs),
(472,0,o),
(571,83,o),
(571,194,cs),
(571,309,o),
(483,341,o),
(308,404,cs),
(207,441,o),
(173,465,o),
(173,534,cs),
(173,589,o),
(212,658,o),
(306,658,cs),
(342,658,o),
(375,654,o),
(407,645,cs),
(413,643,o),
(418,641,o),
(424,640,c),
(424,589,ls),
(424,543,o),
(444,527,o),
(482,527,cs)
);
}
);
width = 631;
}
);
unicode = 1029;
},
{
glyphname = "E-cy";
kernLeft = O;
kernRight = C;
lastChange = "2016-08-08 23:45:09 +0000";
layers = (
{
layerId = UUID0;
shapes = (
{
closed = 1;
nodes = (
(461,375,o),
(456,388,o),
(446,388,cs),
(167,388,l),
(178,568,o),
(257,658,o),
(372,658,cs),
(398,658,o),
(422,655,o),
(445,650,c),
(445,594,ls),
(445,546,o),
(465,529,o),
(503,529,cs),
(532,529,o),
(546,544,o),
(546,579,cs),
(546,639,ls),
(546,670,o),
(536,678,o),
(505,688,cs),
(458,703,o),
(409,709,o),
(359,709,cs),
(186,709,o),
(53,598,o),
(53,348,cs),
(53,132,o),
(143,0,o),
(351,0,cs),
(431,0,o),
(482,14,o),
(531,34,cs),
(548,41,ls),
(557,45,o),
(561,53,o),
(561,61,cs),
(561,75,o),
(551,91,o),
(537,91,cs),
(534,91,o),
(532,90,o),
(529,89,cs),
(510,81,ls),
(467,63,o),
(420,52,o),
(379,52,cs),
(251,52,o),
(169,113,o),
(166,333,c),
(446,333,ls),
(456,333,o),
(461,347,o),
(461,361,cs)
);
}
);
width = 581;
}
);
unicode = 1028;
},
{
glyphname = "Ereversed-cy";
kernLeft = "Ereversed-cy";
kernRight = O;
lastChange = "2016-08-09 00:49:52 +0000";
layers = (
{
layerId = UUID0;
shapes = (
{
closed = 1;
nodes = (
(141,125,ls),
(141,171,o),
(121,188,o),
(83,188,cs),
(54,188,o),
(40,173,o),
(40,140,cs),
(40,80,ls),
(40,51,o),
(50,44,o),
(79,32,cs),
(135,7,o),
(187,0,o),
(248,0,cs),
(469,0,o),
(562,163,o),
(562,370,cs),
(562,634,o),
(422,709,o),
(254,709,cs),
(199,709,o),
(139,697,o),
(89,682,cs),
(58,672,o),
(48,664,o),
(48,633,cs),
(48,576,ls),
(48,541,o),
(62,526,o),
(91,526,cs),
(129,526,o),
(149,543,o),
(149,591,cs),
(149,647,l),
(181,654,o),
(212,658,o),
(247,658,cs),
(347,657,o),
(435,595,o),
(447,394,c),
(169,394,ls),
(159,394,o),
(154,380,o),
(154,366,cs),
(154,352,o),
(159,339,o),
(169,339,cs),
(449,339,l),
(443,148,o),
(367,51,o),
(247,51,cs),
(205,51,o),
(177,55,o),
(141,71,c)
);
}
);
width = 615;
}
);
unicode = 1069;
},
{
glyphname = "I-cy";
kernLeft = H;
kernRight = H;
lastChange = "2016-08-08 23:45:09 +0000";
layers = (
{
layerId = UUID0;
shapes = (
{
closed = 1;
nodes = (
(358,0,l),
(384,0,o),
(388,12,o),
(388,24,cs),
(388,39,o),
(382,53,o),
(348,53,cs),
(258,53,l),
(258,656,l),
(348,656,ls),
(382,656,o),
(388,670,o),
(388,685,cs),
(388,697,o),
(384,709,o),
(358,709,cs),
(50,709,ls),
(24,709,o),
(20,697,o),
(20,685,cs),
(20,670,o),
(26,656,o),
(60,656,cs),
(150,656,l),
(150,53,l),
(60,53,ls),
(26,53,o),
(20,39,o),
(20,24,cs),
(20,12,o),
(24,0,o),
(50,0,cs)
);
}
);
width = 408;
}
);
unicode = 1030;
},
{
glyphname = "Yi-cy";
kernLeft = H;
kernRight = H;
lastChange = "2016-08-08 23:45:09 +0000";
layers = (
{
layerId = UUID0;
shapes = (
{
closed = 1;
nodes = (
(239,816,o),
(271,783,o),
(307,783,cs),
(343,783,o),
(376,816,o),
(376,851,cs),
(376,889,o),
(343,920,o),
(307,920,cs),
(271,920,o),
(239,889,o),
(239,851,cs)
);
},
{
closed = 1;
nodes = (
(32,817,o),
(65,784,o),
(99,784,cs),
(137,784,o),
(169,817,o),
(169,852,cs),
(169,889,o),
(137,921,o),
(99,921,cs),
(65,921,o),
(32,889,o),
(32,852,cs)
);
},
{
closed = 1;
nodes = (
(358,0,l),
(384,0,o),
(388,12,o),
(388,24,cs),
(388,39,o),
(382,53,o),
(348,53,cs),
(258,53,l),
(258,656,l),
(348,656,ls),
(382,656,o),
(388,670,o),
(388,685,cs),
(388,697,o),
(384,709,o),
(358,709,cs),
(50,709,ls),
(24,709,o),
(20,697,o),
(20,685,cs),
(20,670,o),
(26,656,o),
(60,656,cs),
(150,656,l),
(150,53,l),
(60,53,ls),
(26,53,o),
(20,39,o),
(20,24,cs),
(20,12,o),
(24,0,o),
(50,0,cs)
);
}
);
width = 408;
}
);
unicode = 1031;
},
{
glyphname = "Je-cy";
kernLeft = J;
kernRight = J;
lastChange = "2016-08-08 23:45:09 +0000";
layers = (
{
layerId = UUID0;
shapes = (
{
closed = 1;
nodes = (
(321,709,o),
(300,692,o),
(300,644,cs),
(300,208,ls),
(300,138,o),
(276,52,o),
(178,52,cs),
(167,52,o),
(148,53,o),
(136,55,c),
(136,104,ls),
(136,152,o),
(116,169,o),
(78,169,cs),
(49,169,o),
(35,154,o),
(35,119,cs),
(35,52,l),
(35,37,o),
(41,28,o),
(55,21,cs),
(77,10,o),
(139,0,o),
(176,0,cs),
(383,0,o),
(408,171,o),
(408,261,cs),
(408,659,ls),
(408,694,o),
(393,709,o),
(362,709,cs)
);
}
);
width = 484;
}
);
unicode = 1032;
},
{
glyphname = "Tshe-cy";
kernLeft = T;
kernRight = "Tshe-cy";
lastChange = "2016-08-08 23:45:09 +0000";
layers = (
{
layerId = UUID0;
shapes = (
{
closed = 1;
nodes = (
(617,382,o),
(656,335,o),
(656,248,cs),
(656,77,ls),
(656,26,o),
(676,0,o),
(717,0,cs),
(748,0,o),
(760,13,o),
(760,50,cs),
(760,251,ls),
(760,390,o),
(680,438,o),
(554,438,cs),
(485,438,o),
(438,423,o),
(379,399,c),
(379,656,l),
(529,656,l),
(529,590,ls),
(529,542,o),
(549,525,o),
(587,525,cs),
(616,525,o),
(630,540,o),
(630,575,cs),
(630,672,ls),
(630,702,o),
(609,709,o),
(570,709,cs),
(80,709,ls),
(41,709,o),
(20,702,o),
(20,672,cs),
(20,570,ls),
(20,535,o),
(34,520,o),
(63,520,cs),
(101,520,o),
(121,537,o),
(121,585,cs),
(121,656,l),
(271,656,l),
(271,50,ls),
(271,15,o),
(286,0,o),
(317,0,cs),
(358,0,o),
(379,12,o),
(379,60,cs),
(379,343,l),
(425,369,o),
(481,382,o),
(525,382,cs)
);
}
);
width = 845;
}
);
unicode = 1035;
},
{
glyphname = "Iu-cy";
kernLeft = H;
kernRight = O;
lastChange = "2016-08-08 23:45:09 +0000";
layers = (
{
layerId = UUID0;
shapes = (
{
closed = 1;
nodes = (
(933,461,o),
(905,709,o),
(632,709,cs),
(389,709,o),
(341,512,o),
(334,394,c),
(208,394,l),
(208,632,ls),
(208,683,o),
(185,709,o),
(144,709,cs),
(113,709,o),
(100,696,o),
(100,659,cs),
(100,50,ls),
(100,15,o),
(115,0,o),
(146,0,cs),
(187,0,o),
(208,17,o),
(208,65,cs),
(208,339,l),
(333,339,l),
(335,224,o),
(370,0,o),
(632,0,cs),
(905,0,o),
(933,245,o),
(933,354,cs)
);
},
{
closed = 1;
nodes = (
(820,253,o),
(808,51,o),
(632,51,cs),
(459,51,o),
(446,253,o),
(446,354,cs),
(446,455,o),
(459,658,o),
(632,658,cs),
(808,658,o),
(820,455,o),
(820,354,cs)
);
}
);
width = 986;
}
);
unicode = 1070;
},
{
glyphname = "Ia-cy";
kernLeft = "Ia-cy";
kernRight = H;
lastChange = "2016-08-09 00:47:36 +0000";
layers = (
{
layerId = UUID0;
shapes = (
{
closed = 1;
nodes = (
(543,659,l),
(543,696,o),
(530,709,o),
(499,709,cs),
(310,709,ls),
(176,709,o),
(57,657,o),
(57,501,cs),
(57,398,o),
(147,331,o),
(232,321,c),
(66,59,ls),
(60,50,o),
(57,41,o),
(57,33,cs),
(57,14,o),
(73,0,o),
(108,0,cs),
(132,0,o),
(159,10,o),
(176,38,cs),
(344,314,l),
(435,314,l),
(435,65,ls),
(435,17,o),
(456,0,o),
(497,0,cs),
(528,0,o),
(543,15,o),
(543,50,cs)
);
},
{
closed = 1;
nodes = (
(435,656,l),
(435,367,l),
(328,367,ls),
(252,367,o),
(170,394,o),
(170,507,cs),
(170,631,o),
(263,656,o),
(320,656,c)
);
}
);
width = 643;
}
);
unicode = 1071;
},
{
glyphname = "Dje-cy";
kernLeft = T;
kernRight = "Tshe-cy";
lastChange = "2016-08-08 23:45:09 +0000";
layers = (
{
layerId = UUID0;
shapes = (
{
closed = 1;
nodes = (
(617,382,o),
(661,323,o),
(661,227,cs),
(661,97,o),
(615,67,o),
(572,61,cs),
(547,58,o),
(529,44,o),
(529,24,cs),
(529,9,o),
(540,0,o),
(562,0,cs),
(664,0,o),
(774,90,o),
(774,226,cs),
(774,384,o),
(680,438,o),
(549,438,cs),
(485,438,o),
(433,424,o),
(379,399,c),
(379,656,l),
(529,656,l),
(529,590,ls),
(529,542,o),
(549,525,o),
(587,525,cs),
(616,525,o),
(630,540,o),
(630,575,cs),
(630,672,ls),
(630,702,o),
(609,709,o),
(570,709,cs),
(80,709,ls),
(41,709,o),
(20,702,o),
(20,672,cs),
(20,570,ls),
(20,535,o),
(34,520,o),
(63,520,cs),
(101,520,o),
(121,537,o),
(121,585,cs),
(121,656,l),
(271,656,l),
(271,50,ls),
(271,15,o),
(286,0,o),
(317,0,cs),
(358,0,o),
(379,12,o),
(379,60,cs),
(379,343,l),
(425,369,o),
(481,382,o),
(521,382,cs)
);
}
);
width = 834;
}
);
unicode = 1026;
},
{
glyphname = "Yat-cy";
kernLeft = H;
kernRight = "Softsign-cy";
lastChange = "2016-08-08 23:45:09 +0000";
layers = (
{
background = {
shapes = (
{
closed = 1;
nodes = (
(499,553,l),
(499,522,ls),
(499,474,o),
(519,457,o),
(557,457,cs),
(586,457,o),
(600,472,o),
(600,507,cs),
(600,569,ls),
(600,599,o),
(579,606,o),
(540,606,cs),
(50,606,ls),
(11,606,o),
(-10,599,o),
(-10,569,cs),
(-10,507,ls),
(-10,472,o),
(4,457,o),
(33,457,cs),
(71,457,o),
(91,474,o),
(91,522,cs),
(91,553,l)
);
}
);
};
layerId = UUID0;
shapes = (
{
closed = 1;
nodes = (
(284,632,l),
(284,683,o),
(261,709,o),
(220,709,cs),
(189,709,o),
(176,696,o),
(176,659,cs),
(176,50,ls),
(176,15,o),
(191,0,o),
(222,0,cs),
(382,0,ls),
(469,0,o),
(631,27,o),
(631,195,cs),
(631,344,o),
(533,387,o),
(384,387,cs),
(284,387,l)
);
},
{
closed = 1;
nodes = (
(364,334,l),
(456,334,o),
(518,303,o),
(518,195,cs),
(518,79,o),
(435,53,o),
(369,53,cs),
(283,53,l),
(283,334,l)
);
},
{
closed = 1;
nodes = (
(459,537,l),
(459,506,ls),
(459,458,o),
(479,441,o),
(517,441,cs),
(546,441,o),
(560,456,o),
(560,491,cs),
(560,553,ls),
(560,583,o),
(539,590,o),
(500,590,cs),
(40,590,ls),
(1,590,o),
(-20,583,o),
(-20,553,cs),
(-20,491,ls),
(-20,456,o),
(-6,441,o),
(23,441,cs),
(61,441,o),
(81,458,o),
(81,506,cs),
(81,537,l)
);
}
);
width = 661;
}
);
unicode = 1122;
},
{
glyphname = "Yusbig-cy";
kernLeft = X;
kernRight = X;
lastChange = "2016-08-08 23:45:09 +0000";
layers = (
{
anchors = (
{
name = top;
pos = (420,709);
}
);
background = {
shapes = (
{
closed = 1;
nodes = (
(783,634,l),
(795,634,o),
(802,653,o),
(802,671,cs),
(802,690,o),
(795,709,o),
(783,709,cs),
(60,709,ls),
(47,709,o),
(41,690,o),
(41,671,cs),
(41,653,o),
(47,634,o),
(60,634,cs)
);
}
);
};
layerId = UUID0;
shapes = (
{
closed = 1;
nodes = (
(352,389,l),
(96,689,ls),
(83,705,o),
(70,709,o),
(57,709,cs),
(36,709,o),
(22,692,o),
(22,677,cs),
(22,672,o),
(24,668,o),
(27,665,cs),
(275,383,l),
(19,66,ls),
(11,57,o),
(5,47,o),
(5,37,cs),
(5,18,o),
(22,0,o),
(46,0,cs),
(73,0,o),
(101,5,o),
(134,49,cs),
(352,335,l),
(369,335,l),
(369,50,ls),
(369,15,o),
(384,0,o),
(420,0,cs),
(454,0,o),
(475,12,o),
(475,60,cs),
(475,335,l),
(492,335,l),
(710,49,ls),
(743,5,o),
(771,0,o),
(798,0,cs),
(822,0,o),
(839,18,o),
(839,37,cs),
(839,47,o),
(833,57,o),
(825,66,cs),
(569,383,l),
(817,665,ls),
(820,668,o),
(822,672,o),
(822,677,cs),
(822,692,o),
(808,709,o),
(787,709,cs),
(774,709,o),
(761,705,o),
(748,689,cs),
(492,389,l)
);
},
{
closed = 1;
nodes = (
(743,654,l),
(787,709,l),
(57,709,l),
(80,654,l)
);
}
);
width = 844;
}
);
unicode = 1130;
},
{
glyphname = "Fita-cy";
kernLeft = O;
kernRight = O;
lastChange = "2016-08-08 23:45:09 +0000";
layers = (
{
layerId = UUID0;
shapes = (
{
closed = 1;
nodes = (
(339,346,o),
(399,305,o),
(479,305,cs),
(528,305,o),
(593,352,o),
(624,412,c),
(586,424,l),
(549,390,o),
(522,368,o),
(479,368,cs),
(398,368,o),
(363,413,o),
(281,413,cs),
(229,413,o),
(173,379,o),
(98,337,c),
(118,305,l),
(183,339,o),
(218,346,o),
(277,346,cs)
);
},
{
ref = O;
}
);
width = 716;
}
);
unicode = 1138;
},
{
glyphname = "Izhitsa-cy";
kernLeft = V;
kernRight = V;
lastChange = "2016-08-08 23:45:09 +0000";
layers = (
{
layerId = UUID0;
shapes = (
{
closed = 1;
nodes = (
(570,608,ls),
(618,608,o),
(635,628,o),
(635,666,cs),
(635,695,o),
(620,709,o),
(585,709,cs),
(498,709,ls),
(468,709,o),
(461,688,o),
(461,649,c),
(475,608,l)
);
},
{
closed = 1;
nodes = (
(281,113,l),
(275,113,l),
(97,656,ls),
(81,704,o),
(47,709,o),
(28,709,cs),
(-3,709,o),
(-15,692,o),
(-15,672,cs),
(-15,665,o),
(-14,658,o),
(-11,650,cs),
(204,36,ls),
(213,9,o),
(240,0,o),
(264,0,cs),
(292,0,o),
(316,9,o),
(327,40,cs),
(525,657,ls),
(528,665,o),
(530,674,o),
(530,682,cs),
(530,697,o),
(518,709,o),
(499,709,cs),
(480,709,o),
(458,704,o),
(442,656,c)
);
}
);
width = 585;
}
);
unicode = 1140;
},
{
glyphname = "Kaverticalstroke-cy";
kernLeft = H;
kernRight = K;
lastChange = "2016-08-08 23:50:56 +0000";
layers = (
{
layerId = UUID0;
shapes = (
{
closed = 1;
nodes = (
(384,372,l),
(620,665,ls),
(623,669,o),
(625,672,o),
(625,677,cs),
(625,692,o),
(610,709,o),
(589,709,cs),
(576,709,o),
(563,706,o),
(549,689,cs),
(304,378,l)
);
},
{
closed = 1;
nodes = (
(361,389,l),
(208,389,l),
(208,632,l),
(208,683,o),
(185,709,o),
(144,709,cs),
(113,709,o),
(100,696,o),
(100,659,cs),
(100,50,ls),
(100,15,o),
(115,0,o),
(146,0,cs),
(187,0,o),
(208,17,o),
(208,65,cs),
(208,334,l),
(390,334,l),
(315,368,l),
(506,49,ls),
(535,0,o),
(569,0,o),
(596,0,cs),
(621,0,o),
(637,18,o),
(637,37,cs),
(637,47,o),
(629,57,o),
(623,66,cs),
(405,409,l)
);
},
{
pos = (233,50);
ref = "_part.verticalbar-cy";
}
);
width = 632;
}
);
unicode = 1180;
},
{
glyphname = "Kabashkir-cy";
kernLeft = H;
kernRight = K;
lastChange = "2016-11-14 17:34:53 +0000";
layers = (
{
layerId = UUID0;
shapes = (
{
closed = 1;
nodes = (
(312,709,l),
(80,709,ls),
(41,709,o),
(20,702,o),
(20,672,cs),
(20,570,ls),
(20,535,o),
(34,520,o),
(63,520,cs),
(101,520,o),
(121,537,o),
(121,585,cs),
(121,656,l),
(271,656,l)
);
},
{
pos = (171,0);
ref = "Ka-cy";
}
);
width = 787;
}
);
metricLeft = T;
metricRight = K;
unicode = 1184;
},
{
glyphname = "Enghe-cy";
kernLeft = H;
kernRight = "Ge-cy";
lastChange = "2016-08-08 23:45:09 +0000";
layers = (
{
layerId = UUID0;
shapes = (
{
closed = 1;
nodes = (
(590,656,l),
(814,656,l),
(814,600,ls),
(814,552,o),
(834,535,o),
(872,535,cs),
(901,535,o),
(915,550,o),
(915,585,cs),
(915,672,ls),
(915,702,o),
(894,709,o),
(855,709,cs),
(590,709,l)
);
},
{
ref = H;
}
);
width = 930;
}
);
unicode = 1188;
},
{
glyphname = "Ustraitstroke-cy";
kernLeft = Y;
kernRight = Y;
lastChange = "2016-08-08 23:45:09 +0000";
layers = (
{
background = {
shapes = (
{
closed = 1;
nodes = (
(397,204,l),
(411,204,o),
(425,213,o),
(425,231,cs),
(425,250,o),
(416,259,o),
(397,259,c),
(158,259,l),
(139,259,o),
(130,250,o),
(130,231,cs),
(130,213,o),
(144,204,o),
(158,204,c)
);
}
);
};
layerId = UUID0;
shapes = (
{
closed = 1;
nodes = (
(407,209,l),
(421,209,o),
(435,218,o),
(435,236,cs),
(435,255,o),
(426,264,o),
(407,264,c),
(148,264,l),
(129,264,o),
(120,255,o),
(120,236,cs),
(120,218,o),
(134,209,o),
(148,209,c)
);
},
{
ref = "Ustrait-cy";
}
);
width = 547;
}
);
unicode = 1200;
},
{
glyphname = "Obarred-cy";
kernLeft = O;
kernRight = O;
lastChange = "2016-08-08 23:45:09 +0000";
layers = (
{
layerId = UUID0;
shapes = (
{
closed = 1;
nodes = (
(582,331,l),
(594,331,o),
(601,350,o),
(601,363,cs),
(601,382,o),
(594,401,o),
(582,401,cs),
(148,401,ls),
(135,401,o),
(129,382,o),
(129,363,cs),
(129,350,o),
(135,331,o),
(148,331,cs)
);
},
{
ref = O;
}
);
width = 716;
}
);
unicode = 1256;
},
{
glyphname = "De-cy.loclBGR";
kernLeft = "De-cy";
kernRight = "Tse-cy";
lastChange = "2016-08-08 23:45:09 +0000";
layers = (
{
background = {
shapes = (
{
closed = 1;
nodes = (
(488,53,l),
(505,6,o),
(544,0,o),
(563,0,cs),
(592,0,o),
(602,16,o),
(602,33,cs),
(602,38,o),
(601,43,o),
(600,48,c),
(401,682,l),
(395,700,o),
(367,709,o),
(340,709,cs),
(315,709,o),
(291,701,o),
(285,685,c),
(80,52,l),
(77,44,o),
(75,35,o),
(75,27,cs),
(75,12,o),
(83,0,o),
(102,0,cs),
(124,0,o),
(150,5,o),
(166,53,cs),
(325,591,l),
(329,591,l)
);
}
);
};
layerId = UUID0;
shapes = (
{
closed = 1;
nodes = (
(580,0,l),
(580,-102,ls),
(580,-150,o),
(600,-167,o),
(638,-167,cs),
(667,-167,o),
(681,-152,o),
(681,-117,cs),
(681,16,ls),
(681,46,o),
(660,53,o),
(621,53,cs),
(57,53,ls),
(20,52,o),
(0,45,o),
(0,16,cs),
(0,-117,ls),
(0,-152,o),
(14,-167,o),
(43,-167,cs),
(81,-167,o),
(101,-150,o),
(101,-102,cs),
(101,0,l)
);
},
{
closed = 1;
nodes = (
(496,53,l),
(513,6,o),
(552,0,o),
(571,0,cs),
(600,0,o),
(610,16,o),
(610,33,cs),
(610,38,o),
(609,43,o),
(608,48,c),
(409,682,l),
(403,700,o),
(375,709,o),
(348,709,cs),
(323,709,o),
(299,701,o),
(293,685,c),
(88,52,l),
(85,44,o),
(83,35,o),
(83,27,cs),
(83,12,o),
(91,0,o),
(110,0,cs),
(132,0,o),
(155,4,o),
(170,53,cs),
(333,591,l),
(337,591,l)
);
}
);
width = 707;
}
);
},
{
glyphname = "El-cy.loclBGR";
kernLeft = "El-cy";
kernRight = H;
lastChange = "2016-08-08 23:45:09 +0000";
layers = (
{
background = {
shapes = (
{
closed = 1;
nodes = (
(478,53,l),
(495,6,o),
(534,0,o),
(553,0,cs),
(582,0,o),
(592,16,o),
(592,33,cs),
(592,38,o),
(591,43,o),
(590,48,c),
(361,682,l),
(355,700,o),
(327,709,o),
(300,709,cs),
(275,709,o),
(251,701,o),
(245,685,c),
(10,52,l),
(7,44,o),
(5,35,o),
(5,27,cs),
(5,12,o),
(13,0,o),
(32,0,cs),
(51,0,o),
(75,6,o),
(93,53,c),
(283,591,l),
(289,591,l)
);
}
);
};
layerId = UUID0;
shapes = (
{
closed = 1;
nodes = (
(468,53,l),
(485,6,o),
(524,0,o),
(543,0,cs),
(572,0,o),
(582,16,o),
(582,33,cs),
(582,38,o),
(581,43,o),
(580,48,c),
(361,682,l),
(355,700,o),
(327,709,o),
(300,709,cs),
(275,709,o),
(251,701,o),
(245,685,c),
(20,52,l),
(17,44,o),
(15,35,o),
(15,27,cs),
(15,12,o),
(23,0,o),
(42,0,cs),
(64,0,o),
(90,5,o),
(106,53,cs),
(285,591,l),
(289,591,l)
);
}
);
width = 597;
},
{
associatedMasterId = UUID0;
background = {
shapes = (
{
closed = 1;
nodes = (
(445,53,l),
(462,6,o),
(501,0,o),
(520,0,cs),
(549,0,o),
(559,16,o),
(559,33,cs),
(559,38,o),
(558,43,o),
(557,48,c),
(328,682,l),
(322,700,o),
(294,709,o),
(267,709,cs),
(242,709,o),
(218,701,o),
(212,685,c),
(-23,52,l),
(-26,44,o),
(-28,35,o),
(-28,27,cs),
(-28,12,o),
(-20,0,o),
(-1,0,cs),
(18,0,o),
(42,6,o),
(60,53,c),
(250,591,l),
(256,591,l)
);
}
);
};
layerId = "8EA152EE-DBFB-4E0F-B499-93388462E75C";
name = "Regular Jul 7 16, 01:04";
shapes = (
{
closed = 1;
nodes = (
(254,596,l),
(260,596,l),
(438,53,ls),
(454,5,o),
(488,0,o),
(507,0,cs),
(538,0,o),
(550,17,o),
(550,37,cs),
(550,44,o),
(549,51,o),
(546,59,cs),
(331,673,ls),
(322,700,o),
(295,709,o),
(271,709,cs),
(243,709,o),
(219,700,o),
(208,669,cs),
(-10,52,ls),
(-13,44,o),
(-15,35,o),
(-15,27,cs),
(-15,12,o),
(-3,0,o),
(16,0,cs),
(35,0,o),
(57,5,o),
(73,53,c)
);
}
);
width = 535;
}
);
},
{
glyphname = "Ef-cy.loclBGR";
kernLeft = O;
kernRight = O;
lastChange = "2016-08-08 23:45:09 +0000";
layers = (
{
background = {
anchors = (
{
name = bottom;
pos = (358,0);
},
{
name = center;
pos = (358,355);
},
{
name = ogonek;
pos = (644,10);
},
{
name = top;
pos = (358,709);
},
{
name = topleft;
pos = (20,709);
},
{
name = topright;
pos = (696,709);
}
);
shapes = (
{
closed = 1;
nodes = (
(524,49,o),
(772,82,o),
(772,355,cs),
(772,628,o),
(524,659,o),
(417,659,cs),
(308,659,o),
(63,628,o),
(63,355,cs),
(63,82,o),
(308,49,o),
(417,49,cs)
);
},
{
closed = 1;
nodes = (
(316,162,o),
(114,179,o),
(114,355,cs),
(114,528,o),
(316,546,o),
(417,546,cs),
(518,546,o),
(721,528,o),
(721,355,cs),
(721,179,o),
(518,162,o),
(417,162,cs)
);
}
);
};
layerId = UUID0;
shapes = (
{
closed = 1;
nodes = (
(381,116,l),
(242,111,o),
(127,185,o),
(127,366,cs),
(127,508,o),
(205,609,o),
(385,600,c),
(375,651,l),
(246,651,o),
(15,616,o),
(15,356,cs),
(15,175,o),
(135,65,o),
(385,65,c)
);
},
{
closed = 1;
nodes = (
(454,65,l),
(704,65,o),
(824,175,o),
(824,356,cs),
(824,616,o),
(588,651,o),
(463,651,c),
(454,600,l),
(634,608,o),
(712,508,o),
(712,366,cs),
(712,185,o),
(597,111,o),
(458,116,c)
);
},
{
closed = 1;
nodes = (
(472,153,l),
(472,553,l),
(473,578,l),
(473,710,l),
(473,745,o),
(458,760,o),
(423,760,cs),
(386,760,o),
(365,748,o),
(365,700,cs),
(365,578,l),
(367,553,l),
(367,153,l),
(366,128,l),
(366,11,ls),
(366,-23,o),
(381,-40,o),
(418,-40,cs),
(453,-40,o),
(473,-26,o),
(473,21,cs),
(473,128,l)
);
}
);
width = 839;
}
);
},
{
glyphname = "Zedescender-cy.loclBSH";
kernLeft = "Ze-cy";
kernRight = B;
lastChange = "2016-08-08 23:45:09 +0000";
layers = (
{
background = {
anchors = (
{
name = _bottom;
pos = (332,0);
},
{
name = bottom;
pos = (359,-198);
}
);
shapes = (
{
closed = 1;
nodes = (
(359,10,l),
(307,10,l),
(307,-175,l),
(359,-175,l)
);
}
);
};
layerId = UUID0;
shapes = (
{
closed = 1;
nodes = (
(311,20,l),
(236,20,l),
(244,-106,ls),
(245,-125,o),
(257,-135,o),
(274,-135,cs),
(291,-135,o),
(302,-125,o),
(303,-106,cs)
);
},
{
alignment = -1;
ref = "Ze-cy";
}
);
width = 601;
}
);
},
{
glyphname = "Esdescender-cy.loclBSH";
kernLeft = O;
kernRight = C;
lastChange = "2016-08-08 23:45:09 +0000";
layers = (
{
layerId = UUID0;
shapes = (
{
closed = 1;
nodes = (
(392,20,l),
(316,20,l),
(324,-106,ls),
(325,-125,o),
(337,-135,o),
(354,-135,cs),
(371,-135,o),
(383,-125,o),
(384,-106,cs)
);
},
{
alignment = -1;
ref = "Es-cy";
}
);
width = 581;
}
);
},
{
color = 11;
export = 0;
glyphname = "Tetse-cy";
kernLeft = T;
kernRight = "Tse-cy";
lastChange = "2016-11-14 17:33:38 +0000";
layers = (
{
background = {
shapes = (
{
closed = 1;
nodes = (
(529,656,l),
(529,585,ls),
(529,537,o),
(549,520,o),
(587,520,cs),
(616,520,o),
(630,535,o),
(630,570,cs),
(630,672,ls),
(630,702,o),
(609,709,o),
(570,709,cs),
(80,709,ls),
(41,709,o),
(20,702,o),
(20,672,cs),
(20,570,ls),
(20,535,o),
(34,520,o),
(63,520,cs),
(101,520,o),
(121,537,o),
(121,585,cs),
(121,656,l),
(271,656,l),
(271,50,ls),
(271,15,o),
(286,0,o),
(317,0,cs),
(358,0,o),
(379,12,o),
(379,60,cs),
(379,656,l)
);
}
);
};
layerId = UUID0;
shapes = (
{
closed = 1;
nodes = (
(489,656,l),
(489,585,ls),
(489,537,o),
(509,520,o),
(547,520,cs),
(576,520,o),
(590,535,o),
(590,570,cs),
(590,672,ls),
(590,702,o),
(569,709,o),
(530,709,cs),
(80,709,ls),
(41,709,o),
(20,702,o),
(20,672,cs),
(20,570,ls),
(20,535,o),
(34,520,o),
(63,520,cs),
(101,520,o),
(121,537,o),
(121,585,cs),
(121,656,l),
(271,656,l),
(271,200,ls),
(271,165,o),
(286,150,o),
(317,150,cs),
(358,150,o),
(379,162,o),
(379,210,cs),
(379,656,l)
);
},
{
pos = (171,0);
ref = "Tse-cy";
}
);
width = 905;
}
);
unicode = 1204;
},
{
color = 11;
export = 0;
glyphname = "Dzeabkhasian-cy";
kernLeft = "Ze-cy";
kernRight = B;
lastChange = "2016-11-14 17:34:19 +0000";
layers = (
{
anchors = (
{
name = bottom;
pos = (271,0);
},
{
name = top;
pos = (285,709);
}
);
background = {
shapes = (
{
closed = 1;
nodes = (
(242,338,l),
(516,624,ls),
(521,631,o),
(524,647,o),
(524,658,cs),
(524,684,o),
(510,709,o),
(479,709,cs),
(102,709,ls),
(63,709,o),
(42,702,o),
(42,672,cs),
(42,585,ls),
(42,550,o),
(56,535,o),
(85,535,cs),
(123,535,o),
(143,552,o),
(143,600,cs),
(143,656,l),
(411,656,l),
(163,390,l)
);
}
);
};
layerId = UUID0;
shapes = (
{
closed = 1;
nodes = (
(309,414,cs),
(180,414,ls),
(170,414,o),
(165,400,o),
(165,386,cs),
(165,372,o),
(170,359,o),
(180,359,cs),
(264,359,ls),
(394,359,o),
(423,290,o),
(423,217,cs),
(423,108,o),
(377,51,o),
(259,51,cs),
(209,51,o),
(183,56,o),
(141,71,c),
(141,125,ls),
(141,171,o),
(121,188,o),
(83,188,cs),
(54,188,o),
(40,173,o),
(40,140,cs),
(40,80,ls),
(40,51,o),
(50,44,o),
(79,32,cs),
(127,13,o),
(196,0,o),
(264,0,cs),
(463,0,o),
(536,116,o),
(536,217,cs),
(536,325,o),
(470,414,o)
);
},
{
closed = 1;
nodes = (
(242,358,l),
(506,624,ls),
(512,630,o),
(514,647,o),
(514,658,cs),
(514,684,o),
(500,709,o),
(469,709,cs),
(97,709,ls),
(58,709,o),
(37,702,o),
(37,672,cs),
(37,585,ls),
(37,550,o),
(51,535,o),
(80,535,cs),
(118,535,o),
(138,552,o),
(138,600,cs),
(138,656,l),
(411,656,l),
(171,409,l)
);
}
);
width = 601;
}
);
unicode = 1248;
},
{
color = 11;
export = 0;
glyphname = "Ii-cy.loclBGR";
kernLeft = H;
kernRight = H;
lastChange = "2016-11-14 17:34:19 +0000";
layers = (
{
anchors = (
{
name = bottomright;
pos = (720,0);
},
{
name = top;
pos = (380,709);
}
);
background = {
shapes = (
{
closed = 1;
nodes = (
(208,632,l),
(208,683,o),
(185,709,o),
(144,709,cs),
(113,709,o),
(100,696,o),
(100,659,c),
(100,50,l),
(100,15,o),
(115,0,o),
(146,0,cs),
(187,0,o),
(208,17,o),
(208,65,c)
);
},
{
closed = 1;
nodes = (
(534,77,l),
(534,26,o),
(557,0,o),
(598,0,cs),
(629,0,o),
(642,13,o),
(642,50,c),
(642,659,l),
(642,694,o),
(627,709,o),
(596,709,cs),
(555,709,o),
(534,692,o),
(534,644,c)
);
}
);
};
layerId = UUID0;
shapes = (
{
closed = 1;
nodes = (
(540,588,l),
(200,225,l),
(200,121,l),
(540,484,l)
);
},
{
closed = 1;
nodes = (
(208,632,l),
(208,683,o),
(185,709,o),
(144,709,cs),
(113,709,o),
(100,696,o),
(100,659,c),
(100,50,l),
(100,15,o),
(115,0,o),
(146,0,cs),
(187,0,o),
(208,17,o),
(208,65,c)
);
},
{
closed = 1;
nodes = (
(534,77,l),
(534,26,o),
(557,0,o),
(598,0,cs),
(629,0,o),
(642,13,o),
(642,50,c),
(642,659,l),
(642,694,o),
(627,709,o),
(596,709,cs),
(555,709,o),
(534,692,o),
(534,644,c)
);
}
);
width = 740;
}
);
},
{
glyphname = "a-cy";
kernLeft = a;
kernRight = n;
lastChange = "2016-08-08 23:45:09 +0000";
layers = (
{
anchors = (
{
name = top;
pos = (288,502);
}
);
layerId = UUID0;
shapes = (
{
closed = 1;
nodes = (
(373,94,l),
(373,29,o),
(390,0,o),
(434,0,cs),
(466,0,o),
(473,17,o),
(473,47,cs),
(473,321,ls),
(473,440,o),
(436,502,o),
(288,502,cs),
(245,502,o),
(184,494,o),
(139,475,cs),
(108,462,o),
(84,447,o),
(84,419,cs),
(84,401,o),
(95,385,o),
(119,385,cs),
(140,385,o),
(160,398,o),
(180,420,cs),
(199,441,o),
(226,462,o),
(268,462,cs),
(338,462,o),
(368,430,o),
(368,338,cs),
(368,310,l),
(295,310,ls),
(93,310,o),
(43,221,o),
(43,135,cs),
(43,55,o),
(92,0,o),
(194,0,cs),
(271,0,o),
(326,29,o),
(370,95,c)
);
},
{
closed = 1;
nodes = (
(369,268,l),
(369,184,ls),
(369,104,o),
(283,67,o),
(234,67,cs),
(182,67,o),
(147,88,o),
(147,149,cs),
(147,214,o),
(182,268,o),
(311,268,cs)
);
}
);
width = 546;
}
);
unicode = 1072;
},
{
glyphname = "be-cy";
kernLeft = "be-cy";
kernRight = o;
lastChange = "2016-08-09 10:55:24 +0000";
layers = (
{
layerId = UUID0;
shapes = (
{
closed = 1;
nodes = (
(513,435,o),
(421,502,o),
(303,502,cs),
(220,502,o),
(160,459,o),
(127,367,c),
(120,367,l),
(120,543,o),
(174,611,o),
(300,632,cs),
(410,650,o),
(481,672,o),
(481,737,cs),
(481,755,o),
(467,760,o),
(456,760,cs),
(429,760,o),
(406,747,o),
(382,740,cs),
(373,737,o),
(298,719,o),
(268,711,cs),
(115,673,o),
(55,556,o),
(55,290,cs),
(55,66,o),
(151,0,o),
(284,0,cs),
(414,0,o),
(513,79,o),
(513,251,cs)
);
},
{
closed = 1;
nodes = (
(162,350,o),
(210,450,o),
(287,450,cs),
(398,450,o),
(405,301,o),
(405,251,cs),
(405,177,o),
(393,40,o),
(284,40,cs),
(192,40,o),
(162,117,o),
(162,251,cs)
);
}
);
width = 563;
}
);
unicode = 1073;
},
{
glyphname = "ve-cy";
kernLeft = n;
kernRight = "ve-cy";
lastChange = "2016-08-08 23:45:09 +0000";
layers = (
{
layerId = UUID0;
shapes = (
{
closed = 1;
nodes = (
(80,47,ls),
(80,17,o),
(88,0,o),
(120,0,cs),
(278,0,ls),
(363,0,o),
(483,29,o),
(483,148,cs),
(483,207,o),
(437,258,o),
(359,261,c),
(359,267,l),
(427,278,o),
(463,326,o),
(463,382,cs),
(463,471,o),
(374,502,o),
(290,502,cs),
(120,502,ls),
(88,502,o),
(80,485,o),
(80,455,c)
);
},
{
closed = 1;
nodes = (
(182,238,l),
(264,238,ls),
(339,238,o),
(375,202,o),
(375,143,cs),
(375,97,o),
(348,45,o),
(266,45,cs),
(182,45,l)
);
},
{
closed = 1;
nodes = (
(182,280,l),
(182,457,l),
(263,457,ls),
(322,457,o),
(358,425,o),
(358,372,cs),
(358,305,o),
(315,280,o),
(268,280,cs)
);
}
);
width = 519;
}
);
unicode = 1074;
},
{
glyphname = "ge-cy";
kernLeft = n;
kernRight = "ge-cy";
lastChange = "2016-08-08 23:45:09 +0000";
layers = (
{
anchors = (
{
name = bottomright;
pos = (120,0);
},
{
name = top;
pos = (222,502);
}
);
layerId = UUID0;
shapes = (
{
closed = 1;
nodes = (
(80,47,ls),
(80,17,o),
(88,0,o),
(120,0,cs),
(164,0,o),
(184,11,o),
(184,71,cs),
(184,455,l),
(339,455,l),
(339,408,ls),
(339,354,o),
(353,344,o),
(394,344,cs),
(423,344,o),
(431,359,o),
(431,386,cs),
(431,471,ls),
(431,494,o),
(418,502,o),
(399,502,cs),
(120,502,ls),
(88,502,o),
(80,485,o),
(80,455,c)
);
}
);
width = 444;
}
);
unicode = 1075;
},
{
glyphname = "gheupturn-cy";
kernLeft = n;
kernRight = "ge-cy";
lastChange = "2016-08-08 23:45:09 +0000";
layers = (
{
layerId = UUID0;
shapes = (
{
closed = 1;
nodes = (
(80,47,ls),
(80,17,o),
(88,0,o),
(120,0,cs),
(164,0,o),
(184,11,o),
(184,71,cs),
(184,455,l),
(387,455,ls),
(406,455,o),
(419,463,o),
(419,486,cs),
(419,576,ls),
(419,603,o),
(411,618,o),
(382,618,cs),
(341,618,o),
(327,608,o),
(327,554,cs),
(327,502,l),
(120,502,ls),
(88,502,o),
(80,485,o),
(80,455,c)
);
}
);
width = 419;
}
);
unicode = 1169;
},
{
glyphname = "ghestroke-cy";
kernLeft = n;
kernRight = "ge-cy";
lastChange = "2016-08-08 23:52:17 +0000";
layers = (
{
background = {
shapes = (
{
closed = 1;
nodes = (
(328,243,l),
(342,243,o),
(356,257,o),
(356,270,cs),
(356,284,o),
(347,298,o),
(328,298,c),
(48,298,l),
(29,298,o),
(20,284,o),
(20,270,cs),
(20,257,o),
(34,243,o),
(48,243,c)
);
}
);
};
layerId = UUID0;
shapes = (
{
alignment = -1;
pos = (20,0);
ref = "ge-cy";
},
{
pos = (20,0);
ref = "_part.topbar-cy";
}
);
width = 464;
},
{
associatedMasterId = UUID0;
background = {
shapes = (
{
pos = (-50,274);
ref = "_part.topbar-cy";
}
);
};
layerId = "5BD92642-18EE-4B81-8C95-A5DEE0F02B79";
name = "Regular Jul 7 16, 00:58";
shapes = (
{
closed = 1;
nodes = (
(308,243,l),
(322,243,o),
(336,257,o),
(336,270,cs),
(336,284,o),
(327,298,o),
(308,298,c),
(28,298,l),
(9,298,o),
(0,284,o),
(0,270,cs),
(0,257,o),
(14,243,o),
(28,243,c)
);
},
{
ref = "ge-cy";
}
);
width = 444;
}
);
metricRight = "ge-cy";
unicode = 1171;
},
{
glyphname = "ghemiddlehook-cy";
kernLeft = n;
kernRight = "midddehook-cy";
lastChange = "2022-11-03 17:21:53 +0000";
layers = (
{
anchors = (
{
name = bottomright;
pos = (120,0);
},
{
name = top;
pos = (222,502);
}
);
background = {
shapes = (
{
closed = 1;
nodes = (
(407,-64,o),
(369,-136,o),
(284,-164,cs),
(269,-169,o),
(264,-180,o),
(264,-191,cs),
(264,-206,o),
(279,-214,o),
(292,-214,c),
(425,-200,o),
(510,-95,o),
(510,73,cs),
(510,258,o),
(448,302,o),
(347,302,cs),
(275,302,o),
(219,263,o),
(186,220,c),
(184,220,l),
(184,136,l),
(224,201,o),
(269,235,o),
(320,235,cs),
(382,235,o),
(407,173,o),
(407,73,cs)
);
}
);
};
layerId = UUID0;
shapes = (
{
closed = 1;
nodes = (
(164,0,o),
(184,11,o),
(184,71,cs),
(184,455,l),
(339,455,l),
(339,428,ls),
(339,374,o),
(353,364,o),
(394,364,cs),
(423,364,o),
(431,379,o),
(431,406,cs),
(431,471,ls),
(431,494,o),
(418,502,o),
(399,502,cs),
(120,502,ls),
(88,502,o),
(80,485,o),
(80,455,c),
(80,47,ls),
(80,17,o),
(88,0,o),
(120,0,cs)
);
},
{
closed = 1;
nodes = (
(380,-214,o),
(480,-95,o),
(480,73,cs),
(480,226,o),
(411,305,o),
(306,305,cs),
(261,305,o),
(210,291,o),
(154,261,c),
(154,206,l),
(198,230,o),
(238,243,o),
(271,243,cs),
(336,243,o),
(377,192,o),
(377,73,cs),
(377,-64,o),
(326,-134,o),
(214,-164,cs),
(199,-168,o),
(194,-180,o),
(194,-191,cs),
(194,-206,o),
(209,-214,o),
(222,-214,cs)
);
}
);
width = 500;
}
);
unicode = 1173;
},
{
glyphname = "de-cy";
kernLeft = "de-cy";
kernRight = "tse-cy";
lastChange = "2016-08-09 10:54:41 +0000";
layers = (
{
layerId = UUID0;
shapes = (
{
closed = 1;
nodes = (
(32,47,l),
(13,47,o),
(0,39,o),
(0,16,cs),
(0,-77,ls),
(0,-104,o),
(8,-119,o),
(37,-119,cs),
(78,-119,o),
(92,-109,o),
(92,-55,cs),
(92,0,l),
(442,0,l),
(442,-55,ls),
(442,-109,o),
(456,-119,o),
(497,-119,cs),
(526,-119,o),
(534,-104,o),
(534,-77,cs),
(534,16,ls),
(534,39,o),
(521,47,o),
(502,47,cs),
(458,47,l),
(458,455,ls),
(458,485,o),
(450,502,o),
(418,502,cs),
(169,502,ls),
(137,502,o),
(128,486,o),
(128,455,cs),
(128,356,ls),
(128,182,o),
(103,103,o),
(61,47,c)
);
},
{
closed = 1;
nodes = (
(135,47,l),
(176,120,o),
(194,206,o),
(194,356,cs),
(194,455,l),
(354,455,l),
(354,47,l)
);
}
);
width = 549;
}
);
unicode = 1076;
},
{
glyphname = "ie-cy";
kernLeft = o;
kernRight = e;
lastChange = "2016-08-08 23:45:09 +0000";
layers = (
{
anchors = (
{
name = top;
pos = (271,502);
}
);
layerId = UUID0;
shapes = (
{
closed = 1;
nodes = (
(411,97,o),
(378,44,o),
(297,44,cs),
(198,44,o),
(158,121,o),
(158,230,cs),
(158,237,o),
(158,244,o),
(159,252,c),
(428,252,ls),
(454,252,o),
(485,260,o),
(485,301,cs),
(485,434,o),
(402,502,o),
(284,502,cs),
(132,502,o),
(50,410,o),
(50,239,cs),
(50,94,o),
(126,0,o),
(286,0,cs),
(376,0,o),
(433,36,o),
(470,82,cs),
(479,93,o),
(483,102,o),
(483,116,cs),
(483,129,o),
(471,137,o),
(460,137,cs),
(450,137,o),
(442,134,o),
(435,126,cs)
);
},
{
closed = 1;
nodes = (
(329,462,o),
(383,419,o),
(383,323,cs),
(383,300,o),
(371,294,o),
(349,294,cs),
(162,294,l),
(171,414,o),
(217,462,o),
(278,462,cs)
);
}
);
width = 525;
}
);
unicode = 1077;
},
{
glyphname = "zhe-cy";
kernLeft = x;
kernRight = x;
lastChange = "2016-08-08 23:53:35 +0000";
layers = (
{
anchors = (
{
name = bottomright;
pos = (674,0);
},
{
name = top;
pos = (371,502);
}
);
layerId = UUID0;
shapes = (
{
closed = 1;
nodes = (
(320,285,l),
(291,285,l),
(133,461,ls),
(105,492,o),
(83,502,o),
(60,502,cs),
(40,502,o),
(32,491,o),
(32,477,cs),
(32,442,o),
(96,418,o),
(155,356,cs),
(184,326,o),
(199,308,o),
(226,281,c),
(37,51,ls),
(26,39,o),
(20,28,o),
(20,19,cs),
(20,9,o),
(24,0,o),
(67,0,cs),
(113,0,o),
(127,12,o),
(141,31,cs),
(299,240,l),
(320,240,l),
(320,47,ls),
(320,17,o),
(328,0,o),
(369,0,cs),
(402,0,o),
(421,11,o),
(421,61,cs),
(421,240,l),
(442,240,l),
(600,31,ls),
(614,12,o),
(628,0,o),
(674,0,cs),
(717,0,o),
(721,9,o),
(721,19,cs),
(721,28,o),
(715,39,o),
(704,51,cs),
(515,281,l),
(542,308,o),
(557,326,o),
(586,356,cs),
(645,418,o),
(709,442,o),
(709,477,cs),
(709,491,o),
(701,502,o),
(681,502,cs),
(658,502,o),
(636,492,o),
(608,461,cs),
(450,285,l),
(421,285,l),
(421,441,ls),
(421,495,o),
(402,502,o),
(369,502,cs),
(328,502,o),
(320,480,o),
(320,455,cs)
);
}
);
width = 741;
}
);
unicode = 1078;
},
{
glyphname = "ze-cy";
kernLeft = "ze-cy";
kernRight = "ve-cy";
lastChange = "2016-08-09 10:55:39 +0000";
layers = (
{
anchors = (
{
name = bottom;
pos = (238,0);
},
{
name = top;
pos = (218,502);
}
);
layerId = UUID0;
shapes = (
{
closed = 1;
nodes = (
(104,121,o),
(88,139,o),
(59,139,cs),
(41,139,o),
(20,124,o),
(20,102,cs),
(20,70,o),
(44,50,o),
(69,34,cs),
(98,16,o),
(148,0,o),
(208,0,cs),
(365,0,o),
(436,60,o),
(436,147,cs),
(436,211,o),
(388,255,o),
(309,260,c),
(309,264,l),
(386,281,o),
(417,330,o),
(417,382,cs),
(417,457,o),
(360,502,o),
(226,502,cs),
(186,502,o),
(125,490,o),
(95,473,cs),
(68,458,o),
(41,438,o),
(41,406,cs),
(41,384,o),
(57,370,o),
(77,370,cs),
(106,370,o),
(120,386,o),
(133,408,cs),
(149,435,o),
(174,462,o),
(225,462,cs),
(279,462,o),
(312,430,o),
(312,379,cs),
(312,316,o),
(275,282,o),
(213,282,cs),
(151,282,ls),
(136,282,o),
(132,271,o),
(132,261,cs),
(132,250,o),
(137,236,o),
(151,236,cs),
(211,236,ls),
(268,236,o),
(331,219,o),
(331,145,cs),
(331,70,o),
(291,40,o),
(225,40,cs),
(153,40,o),
(131,61,o),
(114,99,cs)
);
}
);
width = 475;
}
);
unicode = 1079;
},
{
glyphname = "ii-cy";
kernLeft = n;
kernRight = u;
lastChange = "2016-08-08 23:45:09 +0000";
layers = (
{
anchors = (
{
name = bottomright;
pos = (567,0);
},
{
name = top;
pos = (294,502);
}
);
layerId = UUID0;
shapes = (
{
closed = 1;
nodes = (
(507,455,l),
(507,485,o),
(499,502,o),
(467,502,cs),
(436,502,o),
(423,494,o),
(409,472,cs),
(184,130,l),
(184,420,ls),
(184,480,o),
(164,502,o),
(120,502,cs),
(88,502,o),
(80,485,o),
(80,455,cs),
(80,47,ls),
(80,17,o),
(88,0,o),
(120,0,cs),
(149,0,o),
(165,7,o),
(177,26,cs),
(403,368,l),
(403,82,ls),
(403,22,o),
(423,0,o),
(467,0,cs),
(499,0,o),
(507,17,o),
(507,47,cs)
);
}
);
width = 587;
}
);
unicode = 1080;
},
{
glyphname = "ka-cy";
kernLeft = n;
kernRight = k;
lastChange = "2016-08-08 23:47:41 +0000";
layers = (
{
anchors = (
{
name = bottomright;
pos = (450,0);
},
{
name = center;
pos = (259,251);
},
{
name = top;
pos = (299,502);
}
);
layerId = UUID0;
shapes = (
{
closed = 1;
nodes = (
(184,420,l),
(184,480,o),
(164,502,o),
(120,502,cs),
(88,502,o),
(80,485,o),
(80,455,cs),
(80,47,ls),
(80,17,o),
(88,0,o),
(120,0,cs),
(164,0,o),
(184,11,o),
(184,71,cs),
(184,240,l),
(208,240,l),
(374,31,ls),
(389,12,o),
(402,0,o),
(450,0,cs),
(494,0,o),
(498,9,o),
(498,19,cs),
(498,28,o),
(491,38,o),
(480,51,cs),
(283,283,l),
(312,310,o),
(336,333,o),
(367,360,cs),
(435,418,o),
(494,436,o),
(494,477,cs),
(494,491,o),
(486,502,o),
(466,502,cs),
(442,502,o),
(422,490,o),
(392,461,cs),
(217,287,l),
(184,287,l)
);
}
);
width = 518;
}
);
unicode = 1082;
},
{
glyphname = "el-cy";
kernLeft = "el-cy";
kernRight = u;
lastChange = "2016-08-09 10:54:44 +0000";
layers = (
{
layerId = UUID0;
shapes = (
{
closed = 1;
nodes = (
(480,455,l),
(480,485,o),
(472,502,o),
(440,502,cs),
(192,502,ls),
(156,502,o),
(150,483,o),
(150,455,cs),
(150,356,ls),
(150,213,o),
(146,103,o),
(53,82,cs),
(29,77,o),
(10,56,o),
(10,39,cs),
(10,11,o),
(29,0,o),
(53,0,cs),
(103,0,o),
(134,28,o),
(161,69,cs),
(205,137,o),
(216,237,o),
(216,350,cs),
(216,455,l),
(376,455,l),
(376,82,ls),
(376,22,o),
(396,0,o),
(440,0,cs),
(472,0,o),
(480,17,o),
(480,47,cs)
);
}
);
width = 560;
}
);
unicode = 1083;
},
{
glyphname = "em-cy";
kernLeft = n;
kernRight = u;
lastChange = "2016-08-08 23:45:09 +0000";
layers = (
{
layerId = UUID0;
shapes = (
{
closed = 1;
nodes = (
(80,43,l),
(80,17,o),
(88,0,o),
(114,0,cs),
(148,0,o),
(152,22,o),
(152,82,cs),
(152,342,l),
(156,342,l),
(295,27,ls),
(304,7,o),
(317,0,o),
(335,0,cs),
(351,0,o),
(366,6,o),
(377,32,cs),
(504,320,l),
(508,320,l),
(508,82,ls),
(508,22,o),
(528,0,o),
(572,0,cs),
(604,0,o),
(612,17,o),
(612,47,cs),
(612,455,ls),
(612,485,o),
(604,502,o),
(572,502,cs),
(541,502,o),
(515,493,o),
(506,472,cs),
(351,108,l),
(349,108,l),
(194,472,ls),
(180,494,o),
(166,502,o),
(124,502,cs),
(92,502,o),
(80,485,o),
(80,455,cs)
);
}
);
width = 692;
}
);
unicode = 1084;
},
{
glyphname = "en-cy";
kernLeft = n;
kernRight = n;
lastChange = "2016-08-08 23:49:04 +0000";
layers = (
{
anchors = (
{
name = bottomright;
pos = (467,0);
}
);
layerId = UUID0;
shapes = (
{
closed = 1;
nodes = (
(507,455,l),
(507,485,o),
(499,502,o),
(467,502,cs),
(423,502,o),
(403,490,o),
(403,430,cs),
(403,282,l),
(184,282,l),
(184,420,ls),
(184,480,o),
(164,502,o),
(120,502,cs),
(88,502,o),
(80,485,o),
(80,455,cs),
(80,47,ls),
(80,17,o),
(88,0,o),
(120,0,cs),
(164,0,o),
(184,11,o),
(184,71,cs),
(184,233,l),
(403,233,l),
(403,82,ls),
(403,22,o),
(423,0,o),
(467,0,cs),
(499,0,o),
(507,17,o),
(507,47,cs)
);
}
);
width = 587;
}
);
unicode = 1085;
},
{
glyphname = "o-cy";
kernLeft = o;
kernRight = o;
lastChange = "2016-08-08 23:45:09 +0000";
layers = (
{
anchors = (
{
name = top;
pos = (279,502);
}
);
layerId = UUID0;
shapes = (
{
closed = 1;
nodes = (
(421,0,o),
(508,80,o),
(508,251,cs),
(508,426,o),
(416,502,o),
(279,502,cs),
(143,502,o),
(50,426,o),
(50,251,cs),
(50,80,o),
(137,0,o),
(279,0,cs)
);
},
{
closed = 1;
nodes = (
(208,40,o),
(158,82,o),
(158,251,cs),
(158,420,o),
(213,462,o),
(279,462,cs),
(347,462,o),
(400,420,o),
(400,251,cs),
(400,80,o),
(350,40,o),
(279,40,cs)
);
}
);
width = 558;
}
);
unicode = 1086;
},
{
glyphname = "pe-cy";
kernLeft = n;
kernRight = u;
lastChange = "2016-08-08 23:45:09 +0000";
layers = (
{
anchors = (
{
name = bottomright;
pos = (464,0);
}
);
layerId = UUID0;
shapes = (
{
closed = 1;
nodes = (
(504,455,l),
(504,485,o),
(496,502,o),
(464,502,c),
(120,502,l),
(88,502,o),
(80,485,o),
(80,455,cs),
(80,47,ls),
(80,17,o),
(88,0,o),
(120,0,cs),
(164,0,o),
(184,11,o),
(184,71,cs),
(184,455,l),
(400,455,l),
(400,82,ls),
(400,22,o),
(420,0,o),
(464,0,cs),
(496,0,o),
(504,17,o),
(504,47,cs)
);
}
);
width = 584;
}
);
unicode = 1087;
},
{
glyphname = "er-cy";
kernLeft = p;
kernRight = o;
lastChange = "2016-08-08 23:45:09 +0000";
layers = (
{
layerId = UUID0;
shapes = (
{
closed = 1;
nodes = (
(80,-173,l),
(80,-203,o),
(88,-220,o),
(120,-220,cs),
(164,-220,o),
(184,-209,o),
(184,-149,cs),
(184,19,l),
(210,7,o),
(243,0,o),
(275,0,cs),
(421,0,o),
(513,89,o),
(513,276,cs),
(513,458,o),
(430,502,o),
(342,502,cs),
(259,502,o),
(215,461,o),
(183,408,c),
(182,408,l),
(182,416,l),
(181,476,o),
(161,502,o),
(119,502,cs),
(96,502,o),
(80,492,o),
(80,459,cs)
);
},
{
closed = 1;
nodes = (
(405,95,o),
(353,40,o),
(275,40,cs),
(215,40,o),
(183,74,o),
(183,101,cs),
(183,318,ls),
(183,377,o),
(247,435,o),
(302,435,cs),
(359,435,o),
(405,404,o),
(405,268,cs)
);
}
);
width = 566;
}
);
unicode = 1088;
},
{
glyphname = "es-cy";
kernLeft = o;
kernRight = c;
lastChange = "2016-08-08 23:45:09 +0000";
layers = (
{
anchors = (
{
name = bottom;
pos = (270,0);
}
);
layerId = UUID0;
shapes = (
{
closed = 1;
nodes = (
(398,97,o),
(368,44,o),
(287,44,cs),
(190,44,o),
(158,119,o),
(158,250,cs),
(158,412,o),
(202,462,o),
(285,462,cs),
(334,462,o),
(352,430,o),
(363,398,cs),
(372,372,o),
(386,356,o),
(417,356,cs),
(436,356,o),
(459,370,o),
(459,395,cs),
(459,429,o),
(432,455,o),
(404,472,cs),
(370,492,o),
(332,502,o),
(287,502,cs),
(155,502,o),
(50,435,o),
(50,250,cs),
(50,107,o),
(109,0,o),
(276,0,cs),
(366,0,o),
(420,36,o),
(457,82,cs),
(466,93,o),
(470,102,o),
(470,116,cs),
(470,129,o),
(458,137,o),
(447,137,cs),
(437,137,o),
(429,134,o),
(422,126,cs)
);
}
);
width = 490;
}
);
unicode = 1089;
},
{
glyphname = "te-cy";
kernLeft = "te-cy";
kernRight = "te-cy";
lastChange = "2016-08-09 01:02:29 +0000";
layers = (
{
anchors = (
{
name = bottomright;
pos = (242,0);
}
);
layerId = UUID0;
shapes = (
{
closed = 1;
nodes = (
(391,455,l),
(391,418,ls),
(391,364,o),
(405,354,o),
(446,354,cs),
(475,354,o),
(483,369,o),
(483,396,cs),
(483,471,ls),
(483,494,o),
(470,502,o),
(451,502,cs),
(45,502,ls),
(26,502,o),
(13,494,o),
(13,471,cs),
(13,396,ls),
(13,369,o),
(21,354,o),
(50,354,cs),
(91,354,o),
(105,364,o),
(105,418,cs),
(105,455,l),
(195,455,l),
(195,47,ls),
(195,17,o),
(203,0,o),
(242,0,cs),
(279,0,o),
(299,8,o),
(299,65,cs),
(299,455,l)
);
}
);
width = 496;
}
);
unicode = 1090;
},
{
glyphname = "u-cy";
kernLeft = v;
kernRight = v;
lastChange = "2016-08-08 23:45:09 +0000";
layers = (
{
anchors = (
{
name = top;
pos = (256,502);
}
);
layerId = UUID0;
shapes = (
{
closed = 1;
nodes = (
(477,452,l),
(480,461,o),
(482,467,o),
(482,479,cs),
(482,496,o),
(467,502,o),
(450,502,cs),
(414,502,o),
(401,471,o),
(392,439,cs),
(378,389,o),
(369,353,o),
(345,283,cs),
(285,108,l),
(280,108,l),
(149,435,ls),
(130,483,o),
(98,502,o),
(67,502,cs),
(49,502,o),
(30,498,o),
(30,475,cs),
(30,469,o),
(31,461,o),
(35,452,cs),
(233,-9,l),
(221,-47,o),
(209,-77,o),
(191,-102,cs),
(172,-128,o),
(142,-139,o),
(105,-139,cs),
(73,-139,o),
(51,-151,o),
(51,-184,cs),
(51,-204,o),
(72,-220,o),
(99,-220,cs),
(201,-220,o),
(265,-92,o),
(304,8,cs)
);
}
);
width = 512;
}
);
unicode = 1091;
},
{
glyphname = "ef-cy";
kernLeft = o;
kernRight = o;
lastChange = "2016-08-08 23:45:09 +0000";
layers = (
{
layerId = UUID0;
shapes = (
{
closed = 1;
nodes = (
(435,691,l),
(435,751,o),
(416,760,o),
(379,760,cs),
(340,760,o),
(332,743,o),
(332,713,cs),
(332,449,l),
(331,449,l),
(305,494,o),
(265,502,o),
(222,502,cs),
(145,502,o),
(53,439,o),
(53,247,cs),
(53,78,o),
(115,0,o),
(218,0,cs),
(263,0,o),
(305,13,o),
(332,44,c),
(332,-173,ls),
(332,-203,o),
(340,-220,o),
(380,-220,cs),
(416,-220,o),
(435,-209,o),
(435,-157,cs),
(435,34,l),
(462,8,o),
(494,0,o),
(526,0,cs),
(637,0,o),
(714,91,o),
(714,262,cs),
(714,459,o),
(632,502,o),
(552,502,cs),
(512,502,o),
(466,485,o),
(436,442,c),
(435,442,l)
);
},
{
closed = 1;
nodes = (
(333,122,l),
(333,86,o),
(290,47,o),
(252,47,cs),
(177,47,o),
(157,116,o),
(157,247,cs),
(157,371,o),
(187,434,o),
(256,434,cs),
(295,434,o),
(333,419,o),
(333,360,cs)
);
},
{
closed = 1;
nodes = (
(434,350,l),
(434,412,o),
(474,434,o),
(518,434,cs),
(585,434,o),
(610,375,o),
(610,254,cs),
(610,113,o),
(580,47,o),
(510,47,cs),
(470,47,o),
(434,72,o),
(434,120,cs)
);
}
);
width = 767;
}
);
unicode = 1092;
},
{
glyphname = "ha-cy";
kernLeft = x;
kernRight = x;
lastChange = "2016-08-08 23:45:09 +0000";
layers = (
{
anchors = (
{
name = bottomright;
pos = (411,0);
}
);
layerId = UUID0;
shapes = (
{
closed = 1;
nodes = (
(48,50,l),
(41,41,o),
(35,30,o),
(35,20,cs),
(35,7,o),
(46,0,o),
(62,0,cs),
(91,0,o),
(106,7,o),
(120,29,cs),
(233,199,l),
(235,199,l),
(332,48,ls),
(349,21,o),
(363,0,o),
(411,0,cs),
(439,0,o),
(448,12,o),
(448,26,cs),
(448,33,o),
(444,42,o),
(436,55,cs),
(296,267,l),
(429,452,ls),
(435,462,o),
(440,473,o),
(440,483,cs),
(440,496,o),
(429,502,o),
(415,502,cs),
(388,502,o),
(374,495,o),
(358,469,cs),
(258,307,l),
(254,307,l),
(167,452,ls),
(148,485,o),
(127,502,o),
(85,502,cs),
(71,502,o),
(53,496,o),
(53,478,cs),
(53,469,o),
(56,456,o),
(67,439,cs),
(194,244,l)
);
}
);
width = 483;
}
);
unicode = 1093;
},
{
glyphname = "che-cy";
kernLeft = "che-cy";
kernRight = u;
lastChange = "2016-08-09 01:03:31 +0000";
layers = (
{
anchors = (
{
name = bottomright;
pos = (411,0);
},
{
name = top;
pos = (266,502);
}
);
layerId = UUID0;
shapes = (
{
closed = 1;
nodes = (
(150,420,l),
(150,480,o),
(134,502,o),
(90,502,cs),
(58,502,o),
(50,485,o),
(50,455,cs),
(50,300,ls),
(50,210,o),
(92,166,o),
(200,166,cs),
(251,166,o),
(313,180,o),
(347,197,c),
(347,82,ls),
(347,22,o),
(367,0,o),
(411,0,cs),
(443,0,o),
(451,17,o),
(451,47,cs),
(451,455,ls),
(451,485,o),
(443,502,o),
(411,502,cs),
(367,502,o),
(347,490,o),
(347,430,cs),
(347,240,l),
(320,226,o),
(283,216,o),
(236,216,cs),
(173,216,o),
(150,247,o),
(150,308,cs)
);
}
);
width = 531;
}
);
unicode = 1095;
},
{
glyphname = "tse-cy";
kernLeft = n;
kernRight = "tse-cy";
lastChange = "2016-08-08 23:45:09 +0000";
layers = (
{
layerId = UUID0;
shapes = (
{
closed = 1;
nodes = (
(471,0,l),
(471,-55,ls),
(471,-109,o),
(485,-119,o),
(526,-119,cs),
(555,-119,o),
(563,-104,o),
(563,-77,cs),
(563,16,ls),
(563,39,o),
(550,47,o),
(531,47,cs),
(487,47,l),
(487,455,ls),
(487,485,o),
(479,502,o),
(447,502,cs),
(403,502,o),
(383,491,o),
(383,431,cs),
(383,47,l),
(184,47,l),
(184,420,ls),
(184,480,o),
(164,502,o),
(120,502,cs),
(88,502,o),
(80,485,o),
(80,455,cs),
(80,47,ls),
(80,17,o),
(88,0,o),
(120,0,cs)
);
}
);
width = 578;
}
);
unicode = 1094;
},
{
glyphname = "sha-cy";
kernLeft = n;
kernRight = u;
lastChange = "2016-08-08 23:45:09 +0000";
layers = (
{
layerId = UUID0;
shapes = (
{
closed = 1;
nodes = (
(661,0,l),
(693,0,o),
(701,17,o),
(701,47,cs),
(701,455,ls),
(701,485,o),
(693,502,o),
(661,502,cs),
(617,502,o),
(597,491,o),
(597,431,cs),
(597,47,l),
(442,47,l),
(442,439,ls),
(442,491,o),
(426,502,o),
(390,502,cs),
(358,502,o),
(339,491,o),
(339,439,cs),
(339,47,l),
(184,47,l),
(184,420,ls),
(184,480,o),
(164,502,o),
(120,502,cs),
(88,502,o),
(80,485,o),
(80,455,cs),
(80,47,ls),
(80,17,o),
(88,0,o),
(120,0,cs)
);
}
);
width = 781;
}
);
unicode = 1096;
},
{
glyphname = "shcha-cy";
kernLeft = n;
kernRight = "tse-cy";
lastChange = "2016-08-08 23:45:09 +0000";
layers = (
{
layerId = UUID0;
shapes = (
{
closed = 1;
nodes = (
(685,0,l),
(685,-55,ls),
(685,-109,o),
(699,-119,o),
(740,-119,cs),
(769,-119,o),
(777,-104,o),
(777,-77,cs),
(777,16,ls),
(777,39,o),
(764,47,o),
(745,47,cs),
(701,47,l),
(701,455,ls),
(701,485,o),
(693,502,o),
(661,502,cs),
(617,502,o),
(597,491,o),
(597,431,cs),
(597,47,l),
(442,47,l),
(442,439,ls),
(442,491,o),
(426,502,o),
(390,502,cs),
(358,502,o),
(339,491,o),
(339,439,cs),
(339,47,l),
(184,47,l),
(184,420,ls),
(184,480,o),
(164,502,o),
(120,502,cs),
(88,502,o),
(80,485,o),
(80,455,cs),
(80,47,ls),
(80,17,o),
(88,0,o),
(120,0,cs)
);
}
);
width = 792;
}
);
unicode = 1097;
},
{
glyphname = "dzhe-cy";
kernLeft = n;
kernRight = u;
lastChange = "2016-08-08 23:45:09 +0000";
layers = (
{
layerId = UUID0;
shapes = (
{
closed = 1;
nodes = (
(330,-153,o),
(343,-138,o),
(343,-104,cs),
(343,0,l),
(464,0,ls),
(496,0,o),
(504,17,o),
(504,47,cs),
(504,455,ls),
(504,485,o),
(496,502,o),
(464,502,cs),
(420,502,o),
(400,491,o),
(400,431,cs),
(400,47,l),
(184,47,l),
(184,420,ls),
(184,480,o),
(164,502,o),
(120,502,cs),
(88,502,o),
(80,485,o),
(80,455,cs),
(80,47,ls),
(80,17,o),
(88,0,o),
(120,0,cs),
(251,0,l),
(251,-105,ls),
(251,-138,o),
(270,-153,o),
(297,-153,cs)
);
}
);
width = 584;
}
);
unicode = 1119;
},
{
glyphname = "softsign-cy";
kernLeft = n;
kernRight = "softsign-cy";
lastChange = "2016-08-08 23:45:09 +0000";
layers = (
{
layerId = UUID0;
shapes = (
{
closed = 1;
nodes = (
(184,420,l),
(184,480,o),
(164,502,o),
(120,502,cs),
(88,502,o),
(80,485,o),
(80,455,cs),
(80,47,ls),
(80,17,o),
(88,0,o),
(120,0,cs),
(249,0,ls),
(386,0,o),
(464,53,o),
(464,152,cs),
(464,239,o),
(414,289,o),
(277,289,cs),
(184,289,l)
);
},
{
closed = 1;
nodes = (
(183,45,l),
(183,244,l),
(245,244,ls),
(310,244,o),
(356,226,o),
(356,148,cs),
(356,72,o),
(317,45,o),
(245,45,cs)
);
}
);
width = 492;
}
);
unicode = 1100;
},
{
glyphname = "yeru-cy";
kernLeft = n;
kernRight = u;
lastChange = "2016-08-08 23:45:09 +0000";
layers = (
{
anchors = (
{
name = top;
pos = (332,502);
}
);
layerId = UUID0;
shapes = (
{
closed = 1;
nodes = (
(184,420,l),
(184,480,o),
(164,502,o),
(120,502,cs),
(88,502,o),
(80,485,o),
(80,455,cs),
(80,47,ls),
(80,17,o),
(88,0,o),
(120,0,cs),
(210,0,ls),
(347,0,o),
(423,53,o),
(423,152,cs),
(423,239,o),
(375,289,o),
(238,289,cs),
(184,289,l)
);
},
{
closed = 1;
nodes = (
(183,45,l),
(183,244,l),
(206,244,ls),
(271,244,o),
(317,226,o),
(317,148,cs),
(317,72,o),
(278,45,o),
(206,45,cs)
);
},
{
closed = 1;
nodes = (
(584,455,l),
(584,485,o),
(576,502,o),
(544,502,cs),
(500,502,o),
(480,490,o),
(480,430,cs),
(480,82,ls),
(480,22,o),
(500,0,o),
(544,0,cs),
(576,0,o),
(584,17,o),
(584,47,cs)
);
}
);
width = 664;
}
);
unicode = 1099;
},
{
glyphname = "hardsign-cy";
kernLeft = "te-cy";
kernRight = "softsign-cy";
lastChange = "2016-08-08 23:45:09 +0000";
layers = (
{
layerId = UUID0;
shapes = (
{
closed = 1;
nodes = (
(45,502,l),
(26,502,o),
(13,494,o),
(13,471,cs),
(13,398,ls),
(13,371,o),
(21,356,o),
(50,356,cs),
(91,356,o),
(105,366,o),
(105,420,cs),
(105,457,l),
(188,457,l),
(188,47,ls),
(188,17,o),
(196,0,o),
(228,0,cs),
(357,0,ls),
(494,0,o),
(572,53,o),
(572,152,cs),
(572,239,o),
(522,289,o),
(385,289,cs),
(292,289,l),
(292,460,ls),
(292,492,o),
(284,502,o),
(252,502,cs)
);
},
{
closed = 1;
nodes = (
(291,45,l),
(291,244,l),
(353,244,ls),
(418,244,o),
(464,226,o),
(464,148,cs),
(464,72,o),
(425,45,o),
(353,45,cs)
);
}
);
width = 600;
}
);
unicode = 1098;
},
{
glyphname = "lje-cy";
kernLeft = "el-cy";
kernRight = "softsign-cy";
lastChange = "2016-08-08 23:45:09 +0000";
layers = (
{
layerId = UUID0;
shapes = (
{
closed = 1;
nodes = (
(535,0,ls),
(672,0,o),
(750,53,o),
(750,152,cs),
(750,239,o),
(700,289,o),
(563,289,cs),
(475,289,l),
(475,455,ls),
(475,485,o),
(467,502,o),
(435,502,cs),
(192,502,ls),
(156,502,o),
(150,483,o),
(150,455,cs),
(150,356,ls),
(150,213,o),
(146,103,o),
(53,82,cs),
(29,77,o),
(10,56,o),
(10,39,cs),
(10,11,o),
(29,0,o),
(53,0,cs),
(103,0,o),
(134,28,o),
(161,69,cs),
(205,137,o),
(216,237,o),
(216,350,cs),
(216,455,l),
(371,455,l),
(371,47,ls),
(371,17,o),
(379,0,o),
(411,0,c)
);
},
{
closed = 1;
nodes = (
(474,45,l),
(474,244,l),
(531,244,ls),
(596,244,o),
(642,226,o),
(642,148,cs),
(642,72,o),
(603,45,o),
(531,45,cs)
);
}
);
width = 778;
}
);
unicode = 1113;
},
{
glyphname = "nje-cy";
kernLeft = n;
kernRight = "softsign-cy";
lastChange = "2016-08-08 23:45:09 +0000";
layers = (
{
layerId = UUID0;
shapes = (
{
closed = 1;
nodes = (
(501,420,l),
(501,480,o),
(481,502,o),
(437,502,cs),
(405,502,o),
(397,485,o),
(397,455,cs),
(397,282,l),
(184,282,l),
(184,420,ls),
(184,480,o),
(164,502,o),
(120,502,cs),
(88,502,o),
(80,485,o),
(80,455,cs),
(80,47,ls),
(80,17,o),
(88,0,o),
(120,0,cs),
(164,0,o),
(184,11,o),
(184,71,cs),
(184,233,l),
(397,233,l),
(397,47,ls),
(397,17,o),
(405,0,o),
(437,0,cs),
(561,0,ls),
(698,0,o),
(776,50,o),
(776,149,cs),
(776,236,o),
(726,283,o),
(589,283,cs),
(501,283,l)
);
},
{
closed = 1;
nodes = (
(500,45,l),
(500,238,l),
(557,238,ls),
(622,238,o),
(668,223,o),
(668,145,cs),
(668,69,o),
(629,45,o),
(557,45,cs)
);
}
);
width = 804;
}
);
unicode = 1114;
},
{
glyphname = "dze-cy";
kernLeft = s;
kernRight = s;
lastChange = "2016-08-08 23:45:09 +0000";
layers = (
{
layerId = UUID0;
shapes = (
{
closed = 1;
nodes = (
(349,63,o),
(299,40,o),
(246,40,cs),
(179,40,o),
(156,72,o),
(143,99,cs),
(133,121,o),
(117,135,o),
(88,135,cs),
(70,135,o),
(49,120,o),
(49,98,cs),
(49,68,o),
(71,46,o),
(98,32,cs),
(130,15,o),
(183,0,o),
(244,0,cs),
(366,0,o),
(451,59,o),
(451,149,cs),
(451,230,o),
(359,262,o),
(277,291,cs),
(209,315,o),
(156,334,o),
(156,388,cs),
(156,440,o),
(197,462,o),
(242,462,cs),
(295,462,o),
(318,437,o),
(331,410,cs),
(341,388,o),
(356,374,o),
(385,374,cs),
(405,374,o),
(424,388,o),
(424,410,cs),
(424,440,o),
(398,463,o),
(371,477,cs),
(339,494,o),
(291,502,o),
(241,502,cs),
(183,502,o),
(56,482,o),
(56,369,cs),
(56,283,o),
(126,257,o),
(218,226,cs),
(290,201,o),
(349,181,o),
(349,122,cs)
);
}
);
width = 494;
}
);
unicode = 1109;
},
{
glyphname = "e-cy";
kernLeft = o;
kernRight = c;
lastChange = "2016-08-08 23:45:09 +0000";
layers = (
{
layerId = UUID0;
shapes = (
{
closed = 1;
nodes = (
(370,263,o),
(364,275,o),
(352,275,cs),
(158,275,l),
(163,417,o),
(206,462,o),
(285,462,cs),
(334,462,o),
(352,433,o),
(363,401,cs),
(372,375,o),
(386,359,o),
(417,359,cs),
(436,359,o),
(459,373,o),
(459,398,cs),
(459,432,o),
(434,456,o),
(406,473,cs),
(372,493,o),
(332,502,o),
(287,502,cs),
(155,502,o),
(50,435,o),
(50,250,cs),
(50,107,o),
(109,0,o),
(276,0,cs),
(366,0,o),
(420,33,o),
(457,79,cs),
(466,90,o),
(470,99,o),
(470,113,cs),
(470,126,o),
(458,134,o),
(447,134,cs),
(437,134,o),
(429,131,o),
(422,123,cs),
(398,94,o),
(368,44,o),
(287,44,cs),
(195,44,o),
(161,111,o),
(158,229,c),
(352,229,ls),
(364,229,o),
(370,241,o),
(370,252,cs)
);
}
);
width = 490;
}
);
unicode = 1108;
},
{
glyphname = "ereversed-cy";
kernLeft = "ereversed-cy";
kernRight = o;
lastChange = "2016-08-09 10:55:28 +0000";
layers = (
{
layerId = UUID0;
shapes = (
{
closed = 1;
nodes = (
(349,236,l),
(349,88,o),
(291,44,o),
(217,40,c),
(150,40,o),
(127,70,o),
(114,99,cs),
(104,121,o),
(88,139,o),
(59,139,cs),
(41,139,o),
(20,124,o),
(20,102,cs),
(20,73,o),
(44,50,o),
(69,34,cs),
(98,16,o),
(148,0,o),
(208,0,cs),
(346,0,o),
(457,73,o),
(457,261,cs),
(457,427,o),
(376,502,o),
(226,502,cs),
(185,502,o),
(122,490,o),
(92,473,cs),
(65,458,o),
(38,438,o),
(38,406,cs),
(38,384,o),
(54,370,o),
(74,370,cs),
(103,370,o),
(117,386,o),
(130,408,cs),
(146,435,o),
(167,462,o),
(220,462,cs),
(304,462,o),
(349,405,o),
(349,282,c),
(150,282,ls),
(138,282,o),
(132,270,o),
(132,259,cs),
(132,248,o),
(138,236,o),
(150,236,cs)
);
}
);
width = 507;
}
);
unicode = 1101;
},
{
glyphname = "i-cy";
kernLeft = i;
kernRight = i;
lastChange = "2016-08-08 23:45:09 +0000";
layers = (
{
layerId = UUID0;
shapes = (
{
closed = 1;
nodes = (
(189,420,l),
(189,480,o),
(169,502,o),
(125,502,cs),
(93,502,o),
(85,485,o),
(85,455,c),
(85,47,l),
(85,17,o),
(93,0,o),
(125,0,cs),
(169,0,o),
(189,8,o),
(189,68,c)
);
},
{
closed = 1;
nodes = (
(73,595,o),
(101,567,o),
(135,567,cs),
(169,567,o),
(197,595,o),
(197,629,cs),
(197,663,o),
(169,691,o),
(135,691,cs),
(101,691,o),
(73,663,o),
(73,629,cs)
);
}
);
width = 274;
}
);
unicode = 1110;
},
{
glyphname = "yi-cy";
kernLeft = i;
kernRight = i;
lastChange = "2016-08-08 23:45:09 +0000";
layers = (
{
layerId = UUID0;
shapes = (
{
closed = 1;
nodes = (
(189,434,l),
(189,480,o),
(169,502,o),
(125,502,cs),
(93,502,o),
(85,485,o),
(85,455,c),
(85,47,l),
(85,17,o),
(93,0,o),
(125,0,cs),
(169,0,o),
(189,8,o),
(189,68,c)
);
},
{
closed = 1;
nodes = (
(-10,595,o),
(18,567,o),
(51,567,cs),
(84,567,o),
(112,595,o),
(112,628,cs),
(112,661,o),
(84,689,o),
(51,689,cs),
(18,689,o),
(-10,661,o),
(-10,628,cs)
);
},
{
closed = 1;
nodes = (
(162,595,o),
(190,567,o),
(223,567,cs),
(256,567,o),
(284,595,o),
(284,628,cs),
(284,661,o),
(256,689,o),
(223,689,cs),
(190,689,o),
(162,661,o),
(162,628,cs)
);
}
);
width = 274;
}
);
unicode = 1111;
},
{
glyphname = "je-cy";
kernLeft = j;
kernRight = i;
lastChange = "2016-08-08 23:45:09 +0000";
layers = (
{
layerId = UUID0;
shapes = (
{
closed = 1;
nodes = (
(85,44,l),
(85,-28,o),
(81,-71,o),
(70,-101,cs),
(56,-139,o),
(25,-150,o),
(6,-162,cs),
(-9,-172,o),
(-17,-182,o),
(-17,-199,cs),
(-17,-214,o),
(-2,-220,o),
(13,-220,cs),
(27,-220,o),
(42,-213,o),
(56,-203,cs),
(90,-179,o),
(118,-137,o),
(131,-116,cs),
(170,-50,o),
(189,27,o),
(189,121,cs),
(189,420,ls),
(189,480,o),
(169,502,o),
(125,502,cs),
(93,502,o),
(85,485,o),
(85,455,c)
);
},
{
closed = 1;
nodes = (
(73,595,o),
(101,567,o),
(135,567,cs),
(169,567,o),
(197,595,o),
(197,629,cs),
(197,663,o),
(169,691,o),
(135,691,cs),
(101,691,o),
(73,663,o),
(73,629,cs)
);
}
);
width = 274;
}
);
unicode = 1112;
},
{
glyphname = "tshe-cy";
kernLeft = h;
kernRight = h;
lastChange = "2016-08-08 23:45:09 +0000";
layers = (
{
layerId = UUID0;
shapes = (
{
closed = 1;
nodes = (
(7,612,l),
(-1,612,o),
(-5,600,o),
(-5,587,cs),
(-5,575,o),
(-1,563,o),
(7,563,cs),
(89,563,l),
(89,47,ls),
(89,17,o),
(97,0,o),
(129,0,cs),
(173,0,o),
(193,11,o),
(193,71,cs),
(193,270,ls),
(193,335,o),
(264,395,o),
(320,395,cs),
(366,395,o),
(405,371,o),
(405,292,cs),
(405,82,ls),
(405,22,o),
(425,0,o),
(469,0,cs),
(501,0,o),
(509,17,o),
(509,47,cs),
(509,311,ls),
(509,412,o),
(462,462,o),
(368,462,cs),
(285,462,o),
(228,413,o),
(195,360,c),
(193,360,l),
(193,563,l),
(396,563,ls),
(404,563,o),
(408,575,o),
(408,587,cs),
(408,600,o),
(404,612,o),
(396,612,cs),
(193,612,l),
(193,678,ls),
(193,738,o),
(173,760,o),
(129,760,cs),
(97,760,o),
(89,743,o),
(89,713,cs),
(89,612,l)
);
}
);
width = 589;
}
);
unicode = 1115;
},
{
glyphname = "iu-cy";
kernLeft = n;
kernRight = o;
lastChange = "2016-08-08 23:45:09 +0000";
layers = (
{
layerId = UUID0;
shapes = (
{
closed = 1;
nodes = (
(642,-10,o),
(728,80,o),
(728,251,cs),
(728,426,o),
(637,512,o),
(500,512,cs),
(372,512,o),
(283,436,o),
(273,282,c),
(184,282,l),
(184,420,ls),
(184,480,o),
(164,502,o),
(120,502,cs),
(88,502,o),
(80,485,o),
(80,455,cs),
(80,47,ls),
(80,17,o),
(88,0,o),
(120,0,cs),
(164,0,o),
(184,11,o),
(184,71,cs),
(184,233,l),
(272,233,l),
(278,74,o),
(363,-10,o),
(500,-10,cs)
);
},
{
closed = 1;
nodes = (
(429,30,o),
(380,82,o),
(380,251,cs),
(380,420,o),
(434,472,o),
(500,472,cs),
(568,472,o),
(620,420,o),
(620,251,cs),
(620,80,o),
(571,30,o),
(500,30,cs)
);
}
);
width = 778;
}
);
unicode = 1102;
},
{
glyphname = "ia-cy";
kernLeft = "ia-cy";
kernRight = u;
lastChange = "2016-08-09 10:55:03 +0000";
layers = (
{
layerId = UUID0;
shapes = (
{
closed = 1;
nodes = (
(30,9,o),
(34,0,o),
(78,0,cs),
(126,0,o),
(139,12,o),
(154,31,cs),
(296,213,l),
(337,213,l),
(337,82,ls),
(337,22,o),
(357,0,o),
(401,0,cs),
(433,0,o),
(441,17,o),
(441,47,cs),
(441,455,ls),
(441,485,o),
(433,502,o),
(401,502,cs),
(246,502,ls),
(116,502,o),
(54,443,o),
(54,349,cs),
(54,284,o),
(106,226,o),
(194,218,c),
(48,51,ls),
(37,38,o),
(30,28,o),
(30,19,cs)
);
},
{
closed = 1;
nodes = (
(159,413,o),
(197,457,o),
(266,457,cs),
(337,457,l),
(337,258,l),
(267,258,ls),
(199,258,o),
(159,295,o),
(159,348,cs)
);
}
);
width = 521;
}
);
unicode = 1103;
},
{
glyphname = "dje-cy";
kernLeft = h;
kernRight = h;
lastChange = "2016-08-08 23:45:09 +0000";
layers = (
{
layerId = UUID0;
shapes = (
{
closed = 1;
nodes = (
(416,44,o),
(379,-58,o),
(293,-94,cs),
(278,-100,o),
(273,-110,o),
(273,-121,cs),
(274,-136,o),
(288,-144,o),
(301,-144,c),
(434,-126,o),
(519,12,o),
(519,233,cs),
(519,434,o),
(457,482,o),
(356,482,cs),
(284,482,o),
(228,433,o),
(195,380,c),
(193,380,l),
(193,563,l),
(396,563,ls),
(404,563,o),
(408,575,o),
(408,587,cs),
(408,600,o),
(404,612,o),
(396,612,cs),
(193,612,l),
(193,678,ls),
(193,738,o),
(173,760,o),
(129,760,cs),
(97,760,o),
(89,743,o),
(89,713,cs),
(89,612,l),
(7,612,ls),
(-1,612,o),
(-5,600,o),
(-5,587,cs),
(-5,575,o),
(-1,563,o),
(7,563,cs),
(89,563,l),
(89,47,ls),
(89,17,o),
(97,0,o),
(129,0,cs),
(173,0,o),
(193,11,o),
(193,71,cs),
(193,290,ls),
(193,355,o),
(263,415,o),
(319,415,cs),
(401,415,o),
(416,345,o),
(416,233,cs)
);
}
);
width = 579;
}
);
unicode = 1106;
},
{
glyphname = "yat-cy";
kernLeft = h;
kernRight = "softsign-cy";
lastChange = "2016-08-08 23:45:09 +0000";
layers = (
{
background = {
anchors = (
{
name = bottomright;
pos = (198,0);
}
);
shapes = (
{
closed = 1;
nodes = (
(343,455,l),
(343,418,ls),
(343,364,o),
(357,354,o),
(398,354,cs),
(427,354,o),
(435,369,o),
(435,396,cs),
(435,471,ls),
(435,494,o),
(422,502,o),
(403,502,cs),
(-3,502,ls),
(-22,502,o),
(-35,494,o),
(-35,471,cs),
(-35,396,ls),
(-35,369,o),
(-27,354,o),
(2,354,cs),
(43,354,o),
(57,364,o),
(57,418,cs),
(57,455,l),
(147,455,l),
(147,287,ls),
(147,257,o),
(155,240,o),
(194,240,cs),
(231,240,o),
(251,248,o),
(251,305,cs),
(251,455,l)
);
}
);
};
layerId = UUID0;
shapes = (
{
closed = 1;
nodes = (
(251,289,l),
(251,455,l),
(363,455,l),
(363,418,ls),
(363,364,o),
(377,354,o),
(418,354,cs),
(447,354,o),
(455,369,o),
(455,396,cs),
(455,471,ls),
(455,494,o),
(442,502,o),
(423,502,cs),
(251,502,l),
(251,627,ls),
(251,687,o),
(236,709,o),
(192,709,cs),
(160,709,o),
(152,692,o),
(152,662,cs),
(152,502,l),
(22,502,ls),
(3,502,o),
(-10,494,o),
(-10,471,cs),
(-10,396,ls),
(-10,369,o),
(-2,354,o),
(27,354,cs),
(68,354,o),
(82,364,o),
(82,418,cs),
(82,455,l),
(152,455,l),
(152,47,ls),
(152,17,o),
(160,0,o),
(192,0,cs),
(316,0,ls),
(453,0,o),
(531,53,o),
(531,152,cs),
(531,239,o),
(481,289,o),
(344,289,cs)
);
},
{
closed = 1;
nodes = (
(250,45,l),
(250,244,l),
(312,244,ls),
(377,244,o),
(423,226,o),
(423,148,cs),
(423,72,o),
(384,45,o),
(312,45,cs)
);
}
);
width = 551;
}
);
unicode = 1123;
},
{
glyphname = "yusbig-cy";
kernLeft = x;
kernRight = x;
lastChange = "2016-08-08 23:45:09 +0000";
layers = (
{
anchors = (
{
name = top;
pos = (371,502);
}
);
background = {
shapes = (
{
closed = 1;
nodes = (
(662,453,l),
(682,502,l),
(59,502,l),
(79,453,l)
);
}
);
};
layerId = UUID0;
shapes = (
{
closed = 1;
nodes = (
(291,285,l),
(133,461,ls),
(105,492,o),
(83,502,o),
(60,502,cs),
(40,502,o),
(32,491,o),
(32,477,cs),
(32,442,o),
(96,418,o),
(155,356,cs),
(184,326,o),
(199,308,o),
(226,281,c),
(37,51,ls),
(26,39,o),
(20,28,o),
(20,19,cs),
(20,9,o),
(24,0,o),
(67,0,cs),
(113,0,o),
(127,12,o),
(141,31,cs),
(299,240,l),
(320,240,l),
(320,47,ls),
(320,17,o),
(328,0,o),
(369,0,cs),
(402,0,o),
(421,11,o),
(421,61,cs),
(421,240,l),
(442,240,l),
(600,31,ls),
(614,12,o),
(628,0,o),
(674,0,cs),
(717,0,o),
(721,9,o),
(721,19,cs),
(721,28,o),
(715,39,o),
(704,51,cs),
(515,281,l),
(542,308,o),
(557,326,o),
(586,356,cs),
(645,418,o),
(709,442,o),
(709,477,cs),
(709,491,o),
(701,502,o),
(681,502,cs),
(658,502,o),
(636,492,o),
(608,461,cs),
(450,285,l)
);
},
{
closed = 1;
nodes = (
(662,453,l),
(682,502,l),
(59,502,l),
(79,453,l)
);
}
);
width = 741;
}
);
unicode = 1131;
},
{
glyphname = "fita-cy";
kernLeft = o;
kernRight = o;
lastChange = "2016-08-08 23:45:09 +0000";
layers = (
{
layerId = UUID0;
shapes = (
{
closed = 1;
nodes = (
(265,246,o),
(308,215,o),
(362,215,cs),
(390,215,o),
(436,230,o),
(462,258,c),
(446,302,l),
(416,276,o),
(394,269,o),
(362,269,cs),
(308,269,o),
(276,299,o),
(223,299,cs),
(188,299,o),
(145,282,o),
(115,260,c),
(138,219,l),
(162,234,o),
(192,246,o),
(227,246,cs)
);
},
{
ref = o;
}
);
width = 558;
}
);
unicode = 1139;
},
{
glyphname = "izhitsa-cy";
kernLeft = v;
kernRight = v;
lastChange = "2016-08-08 23:45:09 +0000";
layers = (
{
layerId = UUID0;
shapes = (
{
closed = 1;
nodes = (
(354,410,l),
(423,410,ls),
(477,410,o),
(487,424,o),
(487,465,cs),
(487,494,o),
(472,502,o),
(445,502,cs),
(385,502,ls),
(362,502,o),
(354,489,o),
(354,470,c)
);
},
{
closed = 1;
nodes = (
(351,502,o),
(340,472,o),
(331,440,cs),
(317,390,o),
(306,349,o),
(280,279,cs),
(235,98,l),
(230,98,l),
(109,435,ls),
(92,484,o),
(58,502,o),
(27,502,cs),
(9,502,o),
(-10,498,o),
(-10,475,cs),
(-10,469,o),
(-9,461,o),
(-5,452,cs),
(159,25,ls),
(166,7,o),
(188,0,o),
(212,0,cs),
(239,0,o),
(263,7,o),
(270,25,cs),
(414,452,ls),
(418,461,o),
(419,467,o),
(419,479,cs),
(419,496,o),
(404,502,o),
(387,502,cs)
);
}
);
width = 457;
}
);
unicode = 1141;
},
{
glyphname = "kaverticalstroke-cy";
kernLeft = n;
kernRight = k;
lastChange = "2016-08-08 23:47:46 +0000";
layers = (
{
layerId = UUID0;
shapes = (
{
closed = 1;
nodes = (
(184,420,l),
(184,480,o),
(164,502,o),
(120,502,cs),
(88,502,o),
(80,485,o),
(80,455,cs),
(80,47,ls),
(80,17,o),
(88,0,o),
(120,0,cs),
(164,0,o),
(184,11,o),
(184,71,cs),
(184,240,l),
(285,240,l),
(421,31,ls),
(434,11,o),
(449,0,o),
(497,0,cs),
(541,0,o),
(545,9,o),
(545,19,cs),
(545,28,o),
(537,37,o),
(527,51,cs),
(342,309,l),
(335,261,l),
(354,293,o),
(387,326,o),
(418,358,cs),
(481,423,o),
(541,436,o),
(541,477,cs),
(541,491,o),
(533,502,o),
(513,502,cs),
(489,502,o),
(464,490,o),
(439,461,cs),
(284,287,l),
(184,287,l)
);
},
{
pos = (213,-50);
ref = "_part.verticalbar-cy";
scale = (0.9,1);
}
);
width = 565;
}
);
unicode = 1181;
},
{
color = 4;
glyphname = "kabashkir-cy";
kernLeft = n;
kernRight = k;
lastChange = "2016-11-14 17:33:25 +0000";
layers = (
{
background = {
anchors = (
{
name = bottomright;
pos = (337,0);
}
);
shapes = (
{
closed = 1;
nodes = (
(220,502,l),
(25,502,ls),
(6,502,o),
(-7,494,o),
(-7,471,cs),
(-7,396,ls),
(-7,369,o),
(1,354,o),
(30,354,cs),
(71,354,o),
(85,364,o),
(85,418,cs),
(85,455,l),
(220,455,l)
);
}
);
};
layerId = UUID0;
shapes = (
{
closed = 1;
nodes = (
(220,502,l),
(45,502,ls),
(26,502,o),
(13,494,o),
(13,471,cs),
(13,396,ls),
(13,369,o),
(21,354,o),
(50,354,cs),
(91,354,o),
(105,364,o),
(105,418,cs),
(105,455,l),
(220,455,l)
);
},
{
pos = (95,0);
ref = "ka-cy";
}
);
width = 613;
}
);
metricLeft = "te-cy";
metricRight = "ka-cy";
unicode = 1185;
},
{
glyphname = "enghe-cy";
kernLeft = n;
kernRight = "ge-cy";
lastChange = "2016-08-08 23:45:09 +0000";
layers = (
{
layerId = UUID0;
shapes = (
{
closed = 1;
nodes = (
(507,455,l),
(642,455,l),
(642,418,ls),
(642,364,o),
(656,354,o),
(697,354,cs),
(726,354,o),
(734,369,o),
(734,396,cs),
(734,471,ls),
(734,494,o),
(721,502,o),
(702,502,cs),
(463,502,l),
(463,455,l)
);
},
{
ref = "en-cy";
}
);
width = 747;
}
);
unicode = 1189;
},
{
glyphname = "ustrait-cy";
kernLeft = v;
kernRight = v;
lastChange = "2016-08-08 23:54:36 +0000";
layers = (
{
layerId = UUID0;
shapes = (
{
closed = 1;
nodes = (
(164,54,l),
(164,-173,l),
(164,-203,o),
(172,-220,o),
(204,-220,cs),
(248,-220,o),
(268,-209,o),
(268,-149,cs),
(268,54,l)
);
},
{
ref = v;
}
);
width = 432;
}
);
metricLeft = v;
metricRight = v;
unicode = 1199;
},
{
glyphname = "ustraitstroke-cy";
kernLeft = v;
kernRight = v;
lastChange = "2016-08-08 23:54:31 +0000";
layers = (
{
background = {
shapes = (
{
closed = 1;
nodes = (
(27,22,l),
(19,22,o),
(15,10,o),
(15,-3,cs),
(15,-15,o),
(19,-27,o),
(27,-27,c),
(416,-27,l),
(424,-27,o),
(428,-15,o),
(428,-3,cs),
(428,10,o),
(424,22,o),
(416,22,c)
);
}
);
};
layerId = UUID0;
shapes = (
{
closed = 1;
nodes = (
(369,-32,l),
(383,-32,o),
(397,-18,o),
(397,-5,cs),
(397,9,o),
(388,23,o),
(369,23,c),
(69,23,l),
(50,23,o),
(41,9,o),
(41,-5,cs),
(41,-18,o),
(55,-32,o),
(69,-32,c)
);
},
{
ref = "ustrait-cy";
}
);
width = 432;
}
);
unicode = 1201;
},
{
glyphname = "chekhakassian-cy";
kernLeft = "che-cy";
kernRight = u;
lastChange = "2016-08-08 23:45:09 +0000";
layers = (
{
background = {
shapes = (
{
closed = 1;
nodes = (
(553,0,l),
(553,-102,ls),
(553,-150,o),
(573,-167,o),
(611,-167,cs),
(640,-167,o),
(654,-152,o),
(654,-117,cs),
(654,16,ls),
(654,46,o),
(633,53,o),
(594,53,cs),
(564,53,l),
(564,659,ls),
(564,694,o),
(549,709,o),
(518,709,cs),
(477,709,o),
(456,692,o),
(456,644,cs),
(456,53,l),
(154,53,l),
(154,632,ls),
(154,683,o),
(131,709,o),
(90,709,cs),
(59,709,o),
(46,696,o),
(46,659,cs),
(46,50,ls),
(46,15,o),
(61,0,o),
(92,0,cs)
);
}
);
};
layerId = UUID0;
shapes = (
{
ref = "che-cy";
},
{
alignment = -1;
pos = (412,0);
ref = "descender-cy";
scale = (-1,1);
}
);
width = 531;
}
);
unicode = 1228;
},
{
glyphname = "obarred-cy";
kernLeft = o;
kernRight = o;
lastChange = "2016-08-08 23:45:09 +0000";
layers = (
{
layerId = UUID0;
shapes = (
{
closed = 1;
nodes = (
(450,231,l),
(462,231,o),
(469,250,o),
(469,254,cs),
(469,273,o),
(462,292,o),
(450,292,cs),
(106,292,ls),
(93,292,o),
(87,273,o),
(87,254,cs),
(87,250,o),
(93,231,o),
(106,231,cs)
);
},
{
ref = o;
}
);
width = 558;
}
);
unicode = 1257;
},
{
glyphname = "ve-cy.loclBGR";
kernLeft = n;
kernRight = "ve-cy";
lastChange = "2016-08-08 23:45:09 +0000";
layers = (
{
background = {
shapes = (
{
pos = (20,0);
ref = o;
}
);
};
layerId = UUID0;
shapes = (
{
closed = 1;
nodes = (
(266,420,ls),
(370,497,o),
(402,539,o),
(402,610,cs),
(402,704,o),
(334,765,o),
(230,765,cs),
(121,765,o),
(50,698,o),
(50,592,cs),
(50,246,ls),
(50,87,o),
(123,0,o),
(256,0,cs),
(390,0,o),
(473,84,o),
(473,223,cs),
(473,336,o),
(403,423,o),
(272,463,c),
(247,437,l),
(342,387,o),
(365,326,o),
(365,223,cs),
(365,105,o),
(327,40,o),
(256,40,cs),
(192,40,o),
(154,114,o),
(154,246,cs),
(154,602,ls),
(154,682,o),
(175,725,o),
(230,725,cs),
(277,725,o),
(304,686,o),
(304,620,cs),
(304,532,o),
(282,490,o),
(223,448,cs),
(75,343,l),
(109,311,l)
);
}
);
width = 503;
},
{
associatedMasterId = UUID0;
background = {
shapes = (
{
closed = 1;
nodes = (
(421,0,o),
(508,80,o),
(508,251,cs),
(508,426,o),
(416,502,o),
(279,502,cs),
(143,502,o),
(50,426,o),
(50,251,cs),
(50,80,o),
(137,0,o),
(279,0,cs)
);
},
{
closed = 1;
nodes = (
(208,40,o),
(158,82,o),
(158,251,cs),
(158,420,o),
(213,462,o),
(279,462,cs),
(347,462,o),
(400,420,o),
(400,251,cs),
(400,80,o),
(350,40,o),
(279,40,cs)
);
},
{
closed = 1;
nodes = (
(355,324,o),
(430,393,o),
(430,540,cs),
(430,691,o),
(351,756,o),
(233,756,cs),
(116,756,o),
(36,691,o),
(36,540,cs),
(36,393,o),
(111,324,o),
(233,324,cs)
);
},
{
closed = 1;
nodes = (
(172,359,o),
(129,395,o),
(129,540,cs),
(129,685,o),
(176,721,o),
(233,721,cs),
(291,721,o),
(337,685,o),
(337,540,cs),
(337,393,o),
(294,359,o),
(233,359,cs)
);
}
);
};
layerId = "24BA4F59-E3FD-45ED-9CCF-117A8A6929A0";
name = "Regular Jul 7 16, 01:42";
shapes = (
{
closed = 0;
nodes = (
(247,441,l),
(362,386,o),
(429,325,o),
(429,203,cs),
(429,101,o),
(377,20,o),
(256,20,cs),
(145,20,o),
(84,101,o),
(84,246,cs),
(84,592,ls),
(84,690,o),
(138,745,o),
(210,745,cs),
(304,745,o),
(348,678,o),
(348,600,cs),
(348,528,o),
(309,485,o),
(231,428,c),
(86,327,l)
);
}
);
width = 519;
}
);
},
{
glyphname = "ge-cy.loclBGR";
kernLeft = s;
kernRight = s;
lastChange = "2016-08-08 23:45:09 +0000";
layers = (
{
layerId = UUID0;
shapes = (
{
closed = 1;
nodes = (
(145,183,o),
(199,204,o),
(266,230,cs),
(347,260,o),
(408,295,o),
(408,379,cs),
(408,482,o),
(295,502,o),
(243,502,cs),
(191,502,o),
(141,488,o),
(109,471,cs),
(82,457,o),
(56,434,o),
(56,404,cs),
(56,382,o),
(75,368,o),
(95,368,cs),
(124,368,o),
(139,382,o),
(149,404,cs),
(162,431,o),
(187,462,o),
(242,462,cs),
(277,462,o),
(308,440,o),
(308,388,cs),
(308,336,o),
(264,318,o),
(207,295,cs),
(130,265,o),
(43,232,o),
(43,149,cs),
(43,59,o),
(124,0,o),
(240,0,cs),
(320,0,o),
(439,44,o),
(439,129,cs),
(439,151,o),
(418,166,o),
(400,166,cs),
(371,166,o),
(352,153,o),
(345,130,cs),
(328,71,o),
(308,40,o),
(238,40,cs),
(190,40,o),
(145,63,o),
(145,122,cs)
);
}
);
width = 488;
}
);
},
{
glyphname = "de-cy.loclBGR";
kernLeft = o;
kernRight = g;
lastChange = "2016-08-08 23:45:09 +0000";
layers = (
{
background = {
shapes = (
{
pos = (601,0);
ref = n;
scale = (-1,1);
}
);
};
layerId = UUID0;
shapes = (
{
closed = 1;
nodes = (
(437,502,o),
(417,490,o),
(417,430,cs),
(417,409,l),
(392,462,o),
(348,502,o),
(275,502,cs),
(146,502,o),
(80,400,o),
(80,263,cs),
(80,93,o),
(168,0,o),
(304,0,cs),
(358,0,o),
(395,27,o),
(417,62,c),
(417,-38,ls),
(417,-123,o),
(387,-177,o),
(301,-177,cs),
(253,-177,o),
(227,-162,o),
(197,-115,cs),
(179,-88,o),
(157,-76,o),
(130,-94,cs),
(113,-105,o),
(111,-131,o),
(125,-154,cs),
(158,-209,o),
(237,-223,o),
(320,-220,c),
(436,-220,o),
(521,-123,o),
(521,-14,cs),
(521,455,ls),
(521,485,o),
(513,502,o),
(481,502,cs)
);
},
{
closed = 1;
nodes = (
(417,94,o),
(357,40,o),
(309,40,cs),
(233,40,o),
(190,91,o),
(190,254,cs),
(190,350,o),
(210,435,o),
(300,435,cs),
(348,435,o),
(410,390,o),
(417,332,c),
(417,131,ls)
);
}
);
width = 601;
}
);
},
{
glyphname = "zhe-cy.loclBGR";
kernLeft = x;
kernRight = x;
lastChange = "2016-08-08 23:45:09 +0000";
layers = (
{
anchors = (
{
name = top;
pos = (371,502);
}
);
layerId = UUID0;
shapes = (
{
closed = 1;
nodes = (
(320,285,l),
(291,285,l),
(133,461,ls),
(105,492,o),
(83,502,o),
(60,502,cs),
(40,502,o),
(32,491,o),
(32,477,cs),
(32,442,o),
(96,418,o),
(155,356,cs),
(184,326,o),
(199,308,o),
(226,281,c),
(37,51,ls),
(26,39,o),
(20,28,o),
(20,19,cs),
(20,9,o),
(24,0,o),
(67,0,cs),
(113,0,o),
(127,12,o),
(141,31,cs),
(299,240,l),
(320,240,l),
(320,47,ls),
(320,17,o),
(328,0,o),
(369,0,cs),
(402,0,o),
(421,11,o),
(421,61,cs),
(421,240,l),
(442,240,l),
(600,31,ls),
(614,12,o),
(628,0,o),
(674,0,cs),
(717,0,o),
(721,9,o),
(721,19,cs),
(721,28,o),
(715,39,o),
(704,51,cs),
(515,281,l),
(542,308,o),
(557,326,o),
(586,356,cs),
(645,418,o),
(709,442,o),
(709,477,cs),
(709,491,o),
(701,502,o),
(681,502,cs),
(658,502,o),
(636,492,o),
(608,461,cs),
(450,285,l),
(421,285,l),
(421,648,ls),
(421,702,o),
(402,709,o),
(369,709,cs),
(328,709,o),
(320,687,o),
(320,662,cs)
);
}
);
width = 741;
}
);
},
{
glyphname = "ze-cy.loclBGR";
kernLeft = "ze-cy";
kernRight = "ve-cy";
lastChange = "2016-08-08 23:45:09 +0000";
layers = (
{
anchors = (
{
name = bottom;
pos = (246,-220);
},
{
name = top;
pos = (198,502);
}
);
background = {
shapes = (
{
closed = 1;
nodes = (
(256,160,ls),
(362,234,o),
(392,279,o),
(392,350,cs),
(392,444,o),
(324,505,o),
(220,505,cs),
(111,505,o),
(40,438,o),
(40,332,cs),
(40,-14,ls),
(40,-173,o),
(113,-260,o),
(246,-260,cs),
(380,-260,o),
(463,-176,o),
(463,-37,cs),
(463,76,o),
(393,163,o),
(262,203,c),
(237,177,l),
(332,127,o),
(355,66,o),
(355,-37,cs),
(355,-155,o),
(317,-220,o),
(246,-220,cs),
(182,-220,o),
(144,-146,o),
(144,-14,cs),
(144,342,ls),
(144,422,o),
(165,465,o),
(220,465,cs),
(267,465,o),
(294,426,o),
(294,360,cs),
(294,272,o),
(272,230,o),
(213,188,cs),
(65,83,l),
(99,51,l)
);
}
);
};
layerId = UUID0;
shapes = (
{
closed = 1;
nodes = (
(94,-99,o),
(78,-81,o),
(49,-81,cs),
(31,-81,o),
(10,-96,o),
(10,-118,cs),
(10,-150,o),
(34,-170,o),
(59,-186,cs),
(86,-204,o),
(132,-220,o),
(188,-220,cs),
(345,-220,o),
(416,-136,o),
(416,-13,cs),
(416,85,o),
(364,152,o),
(279,160,c),
(279,164,l),
(361,176,o),
(394,252,o),
(394,322,cs),
(394,435,o),
(338,502,o),
(229,502,cs),
(141,502,o),
(115,482,o),
(85,465,cs),
(58,450,o),
(31,430,o),
(31,398,cs),
(31,376,o),
(47,362,o),
(67,362,cs),
(96,362,o),
(110,378,o),
(123,400,cs),
(139,427,o),
(160,462,o),
(205,462,cs),
(257,462,o),
(289,407,o),
(289,319,cs),
(289,205,o),
(249,182,o),
(183,182,cs),
(141,182,ls),
(126,182,o),
(122,171,o),
(122,161,cs),
(122,150,o),
(127,136,o),
(141,136,cs),
(181,136,ls),
(243,136,o),
(311,108,o),
(311,-15,cs),
(311,-133,o),
(271,-180,o),
(205,-180,cs),
(139,-180,o),
(121,-159,o),
(104,-121,cs)
);
}
);
width = 455;
}
);
},
{
glyphname = "el-cy.loclBGR";
kernLeft = "el-cy";
kernRight = u;
lastChange = "2016-08-08 23:45:09 +0000";
layers = (
{
layerId = UUID0;
shapes = (
{
closed = 1;
nodes = (
(64,0,o),
(75,30,o),
(84,62,cs),
(98,112,o),
(111,153,o),
(135,223,cs),
(196,404,l),
(199,404,l),
(316,67,ls),
(333,18,o),
(367,0,o),
(398,0,cs),
(416,0,o),
(435,4,o),
(435,27,cs),
(435,33,o),
(433,41,o),
(430,50,cs),
(270,477,ls),
(263,495,o),
(241,502,o),
(217,502,cs),
(190,502,o),
(166,495,o),
(159,477,cs),
(-5,50,ls),
(-8,41,o),
(-10,35,o),
(-10,23,cs),
(-10,6,o),
(11,0,o),
(28,0,cs)
);
}
);
width = 425;
}
);
},
{
glyphname = "che-cy.loclBGR";
kernLeft = "che-cy";
kernRight = u;
lastChange = "2016-08-08 23:45:09 +0000";
layers = (
{
anchors = (
{
name = bottomright;
pos = (411,0);
},
{
name = top;
pos = (266,502);
}
);
layerId = UUID0;
shapes = (
{
closed = 1;
nodes = (
(150,420,l),
(150,480,o),
(134,502,o),
(90,502,cs),
(58,502,o),
(50,485,o),
(50,455,cs),
(50,260,ls),
(50,170,o),
(92,126,o),
(200,126,cs),
(251,126,o),
(313,140,o),
(347,157,c),
(347,82,ls),
(347,22,o),
(367,0,o),
(411,0,cs),
(443,0,o),
(451,17,o),
(451,47,cs),
(451,455,ls),
(451,485,o),
(443,502,o),
(411,502,cs),
(367,502,o),
(347,490,o),
(347,430,cs),
(347,200,l),
(320,186,o),
(283,176,o),
(236,176,cs),
(173,176,o),
(150,207,o),
(150,268,cs)
);
}
);
width = 531;
}
);
},
{
glyphname = "tse-cy.loclBGR";
kernLeft = u;
kernRight = "tse-cy";
lastChange = "2016-08-08 23:45:09 +0000";
layers = (
{
background = {
shapes = (
{
ref = u;
}
);
};
layerId = UUID0;
shapes = (
{
closed = 1;
nodes = (
(457,0,l),
(491,0,l),
(491,-55,ls),
(491,-109,o),
(505,-119,o),
(546,-119,cs),
(575,-119,o),
(583,-104,o),
(583,-77,cs),
(583,16,ls),
(583,39,o),
(570,47,o),
(551,47,cs),
(456,47,l)
);
},
{
ref = u;
}
);
width = 598;
}
);
},
{
glyphname = "shcha-cy.loclBGR";
kernLeft = u;
kernRight = "tse-cy";
lastChange = "2016-08-08 23:45:09 +0000";
layers = (
{
layerId = UUID0;
shapes = (
{
closed = 1;
nodes = (
(705,0,l),
(739,0,l),
(739,-55,ls),
(739,-109,o),
(753,-119,o),
(794,-119,cs),
(823,-119,o),
(831,-104,o),
(831,-77,cs),
(831,16,ls),
(831,39,o),
(818,47,o),
(799,47,cs),
(704,47,l)
);
},
{
angle = 180;
pos = (829,502);
ref = m;
}
);
width = 846;
}
);
},
{
glyphname = "softsign-cy.loclBGR";
kernLeft = u;
kernRight = "softsign-cy";
lastChange = "2016-08-08 23:45:09 +0000";
layers = (
{
background = {
shapes = (
{
closed = 1;
nodes = (
(263,289,ls),
(126,289,o),
(76,239,o),
(76,152,cs),
(76,53,o),
(154,0,o),
(291,0,cs),
(420,0,ls),
(452,0,o),
(460,17,o),
(460,47,cs),
(460,455,ls),
(460,485,o),
(452,502,o),
(420,502,cs),
(376,502,o),
(356,480,o),
(356,420,c),
(356,289,l)
);
},
{
closed = 1;
nodes = (
(223,45,o),
(184,72,o),
(184,148,cs),
(184,226,o),
(230,244,o),
(295,244,cs),
(357,244,l),
(357,45,l),
(295,45,ls)
);
}
);
};
layerId = UUID0;
shapes = (
{
closed = 1;
nodes = (
(184,420,l),
(184,480,o),
(164,502,o),
(120,502,cs),
(88,502,o),
(80,485,o),
(80,455,cs),
(80,142,ls),
(80,72,o),
(126,0,o),
(259,0,cs),
(386,0,o),
(464,60,o),
(464,172,cs),
(464,272,o),
(414,329,o),
(277,329,cs),
(184,329,l)
);
},
{
closed = 1;
nodes = (
(220,45,o),
(183,68,o),
(183,144,cs),
(183,284,l),
(245,284,ls),
(310,284,o),
(356,262,o),
(356,168,cs),
(356,77,o),
(317,45,o),
(265,45,cs)
);
}
);
width = 492;
}
);
},
{
glyphname = "hardsign-cy.loclBGR";
kernLeft = "te-cy";
kernRight = "softsign-cy";
lastChange = "2016-08-08 23:45:09 +0000";
layers = (
{
background = {
shapes = (
{
closed = 1;
nodes = (
(294,420,l),
(294,480,o),
(274,502,o),
(230,502,cs),
(198,502,o),
(190,485,o),
(190,455,cs),
(190,142,ls),
(190,72,o),
(236,0,o),
(369,0,cs),
(496,0,o),
(574,60,o),
(574,172,cs),
(574,272,o),
(524,329,o),
(387,329,cs),
(294,329,l)
);
},
{
closed = 1;
nodes = (
(330,45,o),
(293,68,o),
(293,144,cs),
(293,284,l),
(355,284,ls),
(420,284,o),
(466,262,o),
(466,168,cs),
(466,77,o),
(427,45,o),
(375,45,cs)
);
}
);
};
layerId = UUID0;
shapes = (
{
closed = 1;
nodes = (
(294,329,l),
(294,420,ls),
(294,480,o),
(274,502,o),
(230,502,cs),
(45,502,ls),
(26,502,o),
(13,494,o),
(13,471,cs),
(13,398,ls),
(13,371,o),
(21,356,o),
(50,356,cs),
(91,356,o),
(105,366,o),
(105,420,cs),
(105,457,l),
(190,457,l),
(190,142,ls),
(190,72,o),
(233,0,o),
(359,0,cs),
(486,0,o),
(564,60,o),
(564,172,cs),
(564,272,o),
(514,329,o),
(377,329,cs)
);
},
{
closed = 1;
nodes = (
(325,45,o),
(293,68,o),
(293,144,cs),
(293,284,l),
(345,284,ls),
(410,284,o),
(456,262,o),
(456,168,cs),
(456,77,o),
(417,45,o),
(365,45,cs)
);
}
);
width = 592;
}
);
},
{
glyphname = "iu-cy.loclBGR";
kernLeft = h;
kernRight = o;
lastChange = "2016-08-08 23:45:09 +0000";
layers = (
{
layerId = UUID0;
shapes = (
{
closed = 1;
nodes = (
(642,-10,o),
(728,80,o),
(728,251,cs),
(728,426,o),
(637,512,o),
(500,512,cs),
(372,512,o),
(283,436,o),
(273,282,c),
(184,282,l),
(184,627,ls),
(184,687,o),
(164,709,o),
(120,709,cs),
(88,709,o),
(80,692,o),
(80,662,cs),
(80,47,ls),
(80,17,o),
(88,0,o),
(120,0,cs),
(164,0,o),
(184,11,o),
(184,71,cs),
(184,233,l),
(272,233,l),
(278,74,o),
(363,-10,o),
(500,-10,cs)
);
},
{
closed = 1;
nodes = (
(429,30,o),
(380,82,o),
(380,251,cs),
(380,420,o),
(434,472,o),
(500,472,cs),
(568,472,o),
(620,420,o),
(620,251,cs),
(620,80,o),
(571,30,o),
(500,30,cs)
);
}
);
width = 778;
}
);
},
{
glyphname = "ghestroke-cy.loclBSH";
kernLeft = n;
kernRight = "ge-cy";
lastChange = "2016-08-08 23:45:09 +0000";
layers = (
{
anchors = (
{
name = bottomright;
pos = (120,0);
},
{
name = top;
pos = (222,502);
}
);
guides = (
{
angle = 90;
pos = (431,334);
}
);
layerId = UUID0;
shapes = (
{
closed = 1;
nodes = (
(107,296,l),
(99,296,o),
(95,284,o),
(95,271,cs),
(95,259,o),
(99,247,o),
(107,247,c),
(389,247,l),
(397,247,o),
(401,259,o),
(401,271,cs),
(401,284,o),
(397,296,o),
(389,296,c)
);
},
{
closed = 1;
nodes = (
(80,47,ls),
(80,17,o),
(88,0,o),
(120,0,cs),
(164,0,o),
(184,11,o),
(184,71,cs),
(184,455,l),
(339,455,l),
(339,438,ls),
(339,384,o),
(353,374,o),
(394,374,cs),
(423,374,o),
(431,389,o),
(431,416,cs),
(431,471,ls),
(431,494,o),
(418,502,o),
(399,502,cs),
(120,502,ls),
(88,502,o),
(80,485,o),
(80,455,c)
);
}
);
width = 444;
}
);
},
{
glyphname = "zedescender-cy.loclBSH";
kernLeft = "ze-cy";
kernRight = "ze-cy";
lastChange = "2016-08-08 23:45:09 +0000";
layers = (
{
layerId = UUID0;
shapes = (
{
closed = 1;
nodes = (
(271,20,l),
(199,20,l),
(207,-86,ls),
(208,-105,o),
(218,-115,o),
(235,-115,cs),
(252,-115,o),
(262,-105,o),
(263,-86,cs)
);
},
{
ref = "ze-cy";
}
);
width = 475;
}
);
},
{
glyphname = "esdescender-cy.loclBSH";
kernLeft = o;
kernRight = c;
lastChange = "2016-08-08 23:45:09 +0000";
layers = (
{
background = {
shapes = (
{
closed = 1;
nodes = (
(306,20,l),
(234,20,l),
(242,-106,ls),
(243,-125,o),
(253,-135,o),
(270,-135,cs),
(287,-135,o),
(297,-125,o),
(298,-106,cs)
);
}
);
};
layerId = UUID0;
shapes = (
{
closed = 1;
nodes = (
(306,20,l),
(234,20,l),
(242,-86,ls),
(243,-105,o),
(253,-115,o),
(270,-115,cs),
(287,-115,o),
(297,-105,o),
(298,-86,cs)
);
},
{
ref = "es-cy";
}
);
width = 490;
}
);
},
{
glyphname = "be-cy.loclSRB";
kernLeft = o;
kernRight = o;
lastChange = "2016-08-08 23:45:09 +0000";
layers = (
{
background = {
shapes = (
{
closed = 1;
nodes = (
(421,0,o),
(508,80,o),
(508,251,cs),
(508,426,o),
(416,502,o),
(279,502,cs),
(143,502,o),
(50,426,o),
(50,251,cs),
(50,80,o),
(137,0,o),
(279,0,cs)
);
},
{
closed = 1;
nodes = (
(208,40,o),
(158,82,o),
(158,251,cs),
(158,420,o),
(213,462,o),
(279,462,cs),
(347,462,o),
(400,420,o),
(400,251,cs),
(400,80,o),
(350,40,o),
(279,40,cs)
);
}
);
};
guides = (
{
pos = (285,636);
}
);
layerId = UUID0;
shapes = (
{
closed = 1;
nodes = (
(188,492,o),
(134,526,o),
(134,574,cs),
(134,621,o),
(171,636,o),
(226,636,cs),
(304,636,l),
(427,636,o),
(490,671,o),
(490,735,cs),
(490,761,o),
(479,773,o),
(460,773,cs),
(423,773,o),
(427,734,o),
(357,734,cs),
(226,734,ls),
(143,734,o),
(80,682,o),
(80,602,cs),
(80,514,o),
(157,458,o),
(279,459,c),
(279,492,l)
);
},
{
closed = 1;
nodes = (
(421,0,o),
(508,80,o),
(508,251,cs),
(508,419,o),
(416,492,o),
(279,492,cs),
(143,492,o),
(50,419,o),
(50,251,cs),
(50,80,o),
(137,0,o),
(279,0,cs)
);
},
{
closed = 1;
nodes = (
(208,40,o),
(158,82,o),
(158,251,cs),
(158,412,o),
(213,452,o),
(279,452,cs),
(347,452,o),
(400,412,o),
(400,251,cs),
(400,80,o),
(350,40,o),
(279,40,cs)
);
}
);
width = 558;
}
);
},
{
color = 11;
export = 0;
glyphname = "pemiddlehook-cy";
kernLeft = n;
kernRight = "midddehook-cy";
lastChange = "2016-11-14 17:33:36 +0000";
layers = (
{
anchors = (
{
name = _topleft;
pos = (504,290);
}
);
layerId = UUID0;
shapes = (
{
closed = 1;
nodes = (
(727,23,o),
(700,-85,o),
(584,-114,cs),
(569,-118,o),
(564,-130,o),
(564,-141,cs),
(565,-156,o),
(579,-164,o),
(592,-164,c),
(697,-150,o),
(830,-25,o),
(830,173,cs),
(830,334,o),
(768,382,o),
(667,382,cs),
(605,382,o),
(546,354,o),
(504,310,c),
(504,220,l),
(504,269,o),
(574,315,o),
(632,315,cs),
(702,315,o),
(727,275,o),
(727,173,cs)
);
},
{
ref = "pe-cy";
}
);
width = 890;
}
);
unicode = 1191;
},
{
color = 11;
export = 0;
glyphname = "tetse-cy";
kernLeft = "te-cy";
kernRight = "tse-cy";
lastChange = "2016-11-14 17:33:38 +0000";
layers = (
{
layerId = UUID0;
shapes = (
{
closed = 1;
nodes = (
(351,455,l),
(351,418,ls),
(351,364,o),
(363,354,o),
(391,354,cs),
(420,354,o),
(427,369,o),
(427,396,cs),
(427,471,ls),
(427,494,o),
(414,502,o),
(395,502,cs),
(45,502,ls),
(26,502,o),
(13,494,o),
(13,471,cs),
(13,396,ls),
(13,369,o),
(21,354,o),
(50,354,cs),
(81,354,o),
(95,364,o),
(95,418,cs),
(95,455,l),
(185,455,l),
(185,47,ls),
(185,17,o),
(193,0,o),
(232,0,cs),
(269,0,o),
(289,8,o),
(289,65,cs),
(289,455,l)
);
},
{
closed = 1;
nodes = (
(576,0,l),
(576,-55,ls),
(576,-109,o),
(590,-119,o),
(631,-119,cs),
(660,-119,o),
(668,-104,o),
(668,-77,cs),
(668,16,ls),
(668,39,o),
(655,47,o),
(636,47,cs),
(592,47,l),
(592,455,ls),
(592,485,o),
(584,502,o),
(552,502,cs),
(511,502,o),
(493,491,o),
(493,431,cs),
(493,47,l),
(289,47,l),
(289,420,ls),
(289,480,o),
(269,502,o),
(225,502,cs),
(193,502,o),
(185,485,o),
(185,455,cs),
(185,47,ls),
(185,17,o),
(193,0,o),
(225,0,cs)
);
}
);
width = 683;
}
);
unicode = 1205;
},
{
color = 11;
export = 0;
glyphname = "cheabkhasian-cy";
kernLeft = "cheabkhasian-cy";
kernRight = e;
lastChange = "2016-11-14 17:33:36 +0000";
layers = (
{
anchors = (
{
name = _top;
pos = (244,194);
}
);
background = {
anchors = (
{
name = _top;
pos = (244,194);
}
);
shapes = (
{
closed = 1;
nodes = (
(231,294,l),
(192,305,o),
(189,332,o),
(192,364,cs),
(197,397,o),
(173,416,o),
(148,423,cs),
(128,429,o),
(102,421,o),
(94,394,cs),
(78,340,o),
(122,285,o),
(220,257,c)
);
}
);
};
guides = (
{
pos = (359,294);
},
{
pos = (359,252);
}
);
layerId = UUID0;
shapes = (
{
closed = 1;
nodes = (
(167,294,l),
(101,294,o),
(87,345,o),
(87,384,cs),
(87,419,o),
(67,435,o),
(36,435,cs),
(5,435,o),
(-10,410,o),
(-10,379,cs),
(-10,324,o),
(43,251,o),
(227,251,c)
);
},
{
pos = (80,0);
ref = e;
}
);
width = 605;
},
{
associatedMasterId = UUID0;
background = {
anchors = (
{
name = _top;
pos = (164,194);
}
);
shapes = (
{
closed = 1;
nodes = (
(151,294,l),
(112,305,o),
(108,332,o),
(112,364,cs),
(116,397,o),
(93,416,o),
(68,423,cs),
(48,429,o),
(22,421,o),
(14,394,cs),
(-2,340,o),
(42,285,o),
(140,257,c)
);
}
);
};
guides = (
{
pos = (279,294);
},
{
pos = (279,252);
}
);
layerId = "57094E1B-D1AC-47A2-8F67-6D53ECB997A4";
name = "Regular Jul 7 16, 00:22";
shapes = (
{
closed = 1;
nodes = (
(50,275,o),
(104,250,o),
(191,252,c),
(190,294,l),
(127,292,o),
(99,298,o),
(78,350,cs),
(67,379,o),
(55,394,o),
(33,390,cs),
(13,386,o),
(3,367,o),
(15,335,cs)
);
},
{
pos = (82,0);
ref = e;
}
);
width = 607;
}
);
unicode = 1213;
},
{
color = 11;
export = 0;
glyphname = "dzeabkhasian-cy";
kernLeft = "ze-cy";
kernRight = "ve-cy";
lastChange = "2016-11-14 17:33:36 +0000";
layers = (
{
background = {
shapes = (
{
closed = 1;
nodes = (
(53,502,l),
(34,502,o),
(21,494,o),
(21,471,cs),
(21,409,ls),
(21,382,o),
(29,367,o),
(58,367,cs),
(99,367,o),
(113,377,o),
(113,431,cs),
(113,455,l),
(311,455,l),
(128,183,l),
(224,157,l),
(409,429,ls),
(416,439,o),
(424,456,o),
(424,473,cs),
(424,486,o),
(415,502,o),
(387,502,cs)
);
}
);
};
layerId = UUID0;
shapes = (
{
closed = 1;
nodes = (
(30,23,o),
(16,8,o),
(16,-27,cs),
(16,-87,ls),
(16,-111,o),
(22,-128,o),
(39,-138,cs),
(103,-173,o),
(156,-190,o),
(232,-190,cs),
(338,-190,o),
(447,-109,o),
(447,42,cs),
(447,167,o),
(340,267,o),
(193,237,c),
(164,237,ls),
(155,237,o),
(148,228,o),
(148,210,cs),
(148,187,o),
(155,182,o),
(164,182,cs),
(193,182,ls),
(266,182,o),
(330,142,o),
(330,21,cs),
(330,-87,o),
(277,-139,o),
(211,-139,cs),
(179,-139,o),
(149,-131,o),
(112,-114,c),
(112,-42,ls),
(112,6,o),
(97,23,o),
(59,23,cs)
);
},
{
closed = 1;
nodes = (
(53,502,l),
(34,502,o),
(21,494,o),
(21,471,cs),
(21,409,ls),
(21,382,o),
(29,367,o),
(58,367,cs),
(99,367,o),
(113,377,o),
(113,431,cs),
(113,455,l),
(318,455,l),
(153,230,l),
(249,204,l),
(416,429,ls),
(429,446,o),
(431,456,o),
(431,473,cs),
(431,486,o),
(422,502,o),
(394,502,cs)
);
}
);
width = 474;
}
);
unicode = 1249;
},
{
color = 11;
export = 0;
glyphname = "de-cy.ss01";
kernLeft = "de-cy.ss01";
kernRight = "de-cy.ss01";
lastChange = "2016-11-14 17:33:36 +0000";
layers = (
{
layerId = UUID0;
shapes = (
{
closed = 1;
nodes = (
(454,0,o),
(509,175,o),
(509,343,cs),
(509,586,o),
(427,760,o),
(210,760,cs),
(179,760,o),
(100,756,o),
(100,723,cs),
(100,713,o),
(107,704,o),
(117,704,cs),
(138,704,o),
(152,716,o),
(198,716,cs),
(314,716,o),
(389,594,o),
(400,462,c),
(360,489,o),
(315,499,o),
(265,499,cs),
(131,499,o),
(50,395,o),
(50,249,cs),
(50,97,o),
(135,0,o),
(275,0,cs)
);
},
{
closed = 1;
nodes = (
(210,40,o),
(157,98,o),
(157,242,cs),
(157,356,o),
(186,459,o),
(282,459,cs),
(318,459,o),
(367,440,o),
(402,396,c),
(402,261,o),
(397,40,o),
(271,40,cs)
);
}
);
width = 571;
}
);
},
{
glyphname = zero;
kernLeft = zero;
kernRight = zero;
lastChange = "2016-08-09 01:02:01 +0000";
layers = (
{
layerId = UUID0;
shapes = (
{
closed = 1;
nodes = (
(34,151,o),
(93,0,o),
(265,0,cs),
(437,0,o),
(496,151,o),
(496,354,cs),
(496,547,o),
(437,709,o),
(265,709,cs),
(93,709,o),
(34,547,o),
(34,354,cs)
);
},
{
closed = 1;
nodes = (
(386,203,o),
(375,51,o),
(265,51,cs),
(155,51,o),
(144,203,o),
(144,354,cs),
(144,487,o),
(155,658,o),
(265,658,cs),
(375,658,o),
(386,487,o),
(386,354,cs)
);
}
);
width = 530;
}
);
unicode = 48;
},
{
glyphname = one;
kernLeft = one;
kernRight = one;
lastChange = "2016-08-09 00:31:42 +0000";
layers = (
{
layerId = UUID0;
shapes = (
{
closed = 1;
nodes = (
(236,640,l),
(236,53,l),
(150,53,ls),
(116,53,o),
(110,39,o),
(110,24,cs),
(110,12,o),
(114,0,o),
(140,0,cs),
(438,0,ls),
(464,0,o),
(468,12,o),
(468,24,cs),
(468,39,o),
(462,53,o),
(428,53,cs),
(342,53,l),
(342,659,ls),
(342,694,o),
(327,709,o),
(291,709,cs),
(276,709,o),
(256,706,o),
(237,699,cs),
(96,644,ls),
(79,638,o),
(75,630,o),
(75,622,cs),
(75,609,o),
(83,593,o),
(101,593,cs),
(108,593,o),
(115,594,o),
(125,598,cs)
);
}
);
width = 530;
}
);
unicode = 49;
},
{
glyphname = two;
kernLeft = two;
kernRight = two;
lastChange = "2016-08-09 00:57:10 +0000";
layers = (
{
layerId = UUID0;
shapes = (
{
closed = 1;
nodes = (
(128,495,o),
(143,512,o),
(143,560,c),
(143,632,l),
(173,648,o),
(208,658,o),
(240,658,cs),
(335,658,o),
(353,574,o),
(353,516,cs),
(353,461,o),
(329,321,o),
(64,75,c),
(50,62,l),
(40,53,o),
(35,40,o),
(35,28,cs),
(35,13,o),
(43,0,o),
(60,0,c),
(415,0,l),
(454,0,o),
(475,8,o),
(475,32,c),
(475,130,l),
(475,165,o),
(461,180,o),
(432,180,cs),
(399,180,o),
(379,163,o),
(379,115,c),
(379,53,l),
(118,53,l),
(389,272,o),
(466,410,o),
(466,531,cs),
(466,625,o),
(412,709,o),
(272,709,cs),
(199,709,o),
(140,693,o),
(70,647,cs),
(53,636,o),
(47,629,o),
(47,605,c),
(47,545,l),
(47,510,o),
(61,495,o),
(90,495,cs)
);
}
);
width = 530;
}
);
unicode = 50;
},
{
glyphname = three;
kernLeft = three;
kernRight = three;
lastChange = "2016-08-09 01:02:00 +0000";
layers = (
{
layerId = UUID0;
shapes = (
{
closed = 1;
nodes = (
(44,213,o),
(30,198,o),
(30,163,cs),
(30,103,ls),
(30,79,o),
(36,62,o),
(53,52,cs),
(114,16,o),
(178,0,o),
(240,0,cs),
(382,0,o),
(476,79,o),
(476,202,cs),
(476,312,o),
(409,360,o),
(327,371,c),
(327,380,l),
(393,394,o),
(453,450,o),
(453,537,cs),
(453,634,o),
(395,709,o),
(254,709,cs),
(183,709,o),
(126,692,o),
(63,652,cs),
(46,641,o),
(40,631,o),
(40,607,cs),
(40,547,ls),
(40,512,o),
(54,497,o),
(83,497,cs),
(121,497,o),
(136,514,o),
(136,562,cs),
(136,634,l),
(163,649,o),
(198,658,o),
(229,658,cs),
(294,658,o),
(343,624,o),
(343,537,cs),
(343,443,o),
(302,397,o),
(217,397,cs),
(188,397,ls),
(179,397,o),
(172,383,o),
(172,369,cs),
(172,355,o),
(179,342,o),
(188,342,cs),
(217,342,ls),
(302,342,o),
(364,314,o),
(364,201,cs),
(364,95,o),
(301,51,o),
(228,51,cs),
(189,51,o),
(157,58,o),
(126,76,c),
(126,148,ls),
(126,196,o),
(111,213,o),
(73,213,cs)
);
}
);
width = 530;
}
);
unicode = 51;
},
{
glyphname = four;
kernLeft = four;
kernRight = four;
lastChange = "2016-08-09 01:02:39 +0000";
layers = (
{
layerId = UUID0;
shapes = (
{
closed = 1;
nodes = (
(235,53,l),
(201,53,o),
(195,39,o),
(195,24,cs),
(195,12,o),
(199,0,o),
(225,0,cs),
(485,0,ls),
(511,0,o),
(515,12,o),
(515,24,cs),
(515,39,o),
(509,53,o),
(475,53,cs),
(418,53,l),
(418,173,l),
(490,173,ls),
(516,173,o),
(520,185,o),
(520,197,cs),
(520,212,o),
(514,226,o),
(480,226,cs),
(418,226,l),
(418,659,ls),
(418,694,o),
(403,709,o),
(367,709,cs),
(341,709,o),
(315,700,o),
(297,672,cs),
(0,221,l),
(-3,215,o),
(-7,206,o),
(-7,197,cs),
(-7,184,o),
(-1,173,o),
(21,173,cs),
(312,173,l),
(312,53,l)
);
},
{
closed = 1;
nodes = (
(312,226,l),
(77,226,l),
(312,578,l)
);
}
);
width = 530;
}
);
unicode = 52;
},
{
glyphname = five;
kernLeft = five;
kernRight = five;
lastChange = "2016-08-09 00:29:04 +0000";
layers = (
{
layerId = UUID0;
shapes = (
{
closed = 1;
nodes = (
(422,620,l),
(455,620,o),
(467,650,o),
(467,670,cs),
(467,685,o),
(465,709,o),
(433,709,cs),
(140,709,ls),
(117,709,o),
(106,700,o),
(105,680,cs),
(82,354,l),
(82,331,o),
(93,323,o),
(110,323,cs),
(126,323,o),
(140,327,o),
(151,343,cs),
(171,375,o),
(209,396,o),
(252,396,cs),
(304,396,o),
(366,367,o),
(366,239,cs),
(366,117,o),
(311,51,o),
(241,51,cs),
(200,51,o),
(178,53,o),
(152,65,c),
(152,122,ls),
(152,170,o),
(137,187,o),
(99,187,cs),
(70,187,o),
(56,172,o),
(56,137,cs),
(56,92,ls),
(56,68,o),
(62,51,o),
(79,41,cs),
(133,9,o),
(188,0,o),
(246,0,cs),
(420,0,o),
(478,137,o),
(478,245,cs),
(478,407,o),
(399,460,o),
(291,460,cs),
(261,460,o),
(206,455,o),
(162,413,c),
(178,620,l)
);
}
);
width = 530;
}
);
unicode = 53;
},
{
glyphname = six;
kernLeft = six;
kernRight = six;
lastChange = "2016-08-09 01:01:58 +0000";
layers = (
{
layerId = UUID0;
shapes = (
{
closed = 1;
nodes = (
(451,537,o),
(465,552,o),
(465,585,cs),
(465,636,ls),
(465,669,o),
(443,680,o),
(424,687,cs),
(390,699,o),
(354,709,o),
(303,709,cs),
(173,709,o),
(50,644,o),
(50,315,cs),
(50,157,o),
(89,0,o),
(278,0,cs),
(404,0,o),
(490,87,o),
(490,233,cs),
(490,359,o),
(428,448,o),
(307,448,cs),
(253,448,o),
(189,426,o),
(157,360,c),
(157,402,ls),
(157,603,o),
(240,658,o),
(307,658,cs),
(327,658,o),
(347,657,o),
(369,648,c),
(369,599,ls),
(369,553,o),
(384,537,o),
(422,537,cs)
);
},
{
closed = 1;
nodes = (
(341,384,o),
(381,344,o),
(381,234,cs),
(381,105,o),
(340,51,o),
(275,51,cs),
(187,51,o),
(165,155,o),
(165,225,cs),
(165,328,o),
(218,384,o),
(278,384,cs)
);
}
);
width = 530;
}
);
unicode = 54;
},
{
glyphname = seven;
kernLeft = seven;
kernRight = seven;
lastChange = "2016-08-09 00:58:05 +0000";
layers = (
{
layerId = UUID0;
shapes = (
{
closed = 1;
nodes = (
(40,584,ls),
(40,549,o),
(54,534,o),
(83,534,cs),
(121,534,o),
(136,551,o),
(136,599,cs),
(136,656,l),
(403,656,l),
(305,517,o),
(220,312,o),
(163,99,cs),
(151,53,o),
(150,40,o),
(150,30,cs),
(150,12,o),
(162,0,o),
(208,0,cs),
(267,0,o),
(263,27,o),
(270,67,cs),
(299,246,o),
(344,429,o),
(473,635,cs),
(479,645,o),
(484,660,o),
(484,674,cs),
(484,692,o),
(475,709,o),
(447,709,cs),
(100,709,ls),
(61,709,o),
(40,702,o),
(40,672,c)
);
}
);
width = 530;
}
);
unicode = 55;
},
{
glyphname = eight;
kernLeft = eight;
kernRight = eight;
lastChange = "2016-08-09 01:00:51 +0000";
layers = (
{
layerId = UUID0;
shapes = (
{
closed = 1;
nodes = (
(367,388,l),
(430,402,o),
(481,461,o),
(481,533,cs),
(481,614,o),
(430,709,o),
(265,709,cs),
(100,709,o),
(49,614,o),
(49,532,cs),
(49,460,o),
(100,404,o),
(163,388,c),
(163,380,l),
(77,356,o),
(37,288,o),
(37,209,cs),
(37,75,o),
(127,0,o),
(265,0,cs),
(403,0,o),
(493,75,o),
(493,209,cs),
(493,288,o),
(453,361,o),
(367,380,c)
);
},
{
closed = 1;
nodes = (
(148,322,o),
(209,359,o),
(265,359,cs),
(321,359,o),
(382,322,o),
(382,207,cs),
(382,98,o),
(327,51,o),
(265,51,cs),
(203,51,o),
(148,99,o),
(148,207,cs)
);
},
{
closed = 1;
nodes = (
(208,407,o),
(156,443,o),
(156,535,cs),
(156,631,o),
(218,658,o),
(265,658,cs),
(312,658,o),
(374,631,o),
(374,535,cs),
(374,443,o),
(322,407,o),
(265,407,cs)
);
}
);
width = 530;
}
);
unicode = 56;
},
{
glyphname = nine;
kernLeft = nine;
kernRight = nine;
lastChange = "2016-08-09 00:29:14 +0000";
layers = (
{
layerId = UUID0;
shapes = (
{
closed = 1;
nodes = (
(79,172,o),
(65,157,o),
(65,124,cs),
(65,73,ls),
(65,40,o),
(87,29,o),
(106,22,cs),
(140,10,o),
(176,0,o),
(227,0,cs),
(357,0,o),
(480,80,o),
(480,401,cs),
(480,564,o),
(448,709,o),
(259,709,cs),
(133,709,o),
(40,625,o),
(40,479,cs),
(40,353,o),
(103,261,o),
(224,261,cs),
(278,261,o),
(341,283,o),
(373,349,c),
(373,307,ls),
(373,113,o),
(293,51,o),
(226,51,cs),
(206,51,o),
(183,52,o),
(161,61,c),
(161,110,ls),
(161,156,o),
(146,172,o),
(108,172,cs)
);
},
{
closed = 1;
nodes = (
(190,325,o),
(149,368,o),
(149,478,cs),
(149,607,o),
(197,658,o),
(262,658,cs),
(350,658,o),
(365,554,o),
(365,484,cs),
(365,381,o),
(313,325,o),
(253,325,cs)
);
}
);
width = 530;
}
);
unicode = 57;
},
{
glyphname = fraction;
kernLeft = fraction;
kernRight = fraction;
lastChange = "2016-08-06 20:57:18 +0000";
layers = (
{
layerId = UUID0;
shapes = (
{
closed = 1;
nodes = (
(-194,14,l),
(-195,12,o),
(-195,11,o),
(-195,9,cs),
(-195,-4,o),
(-170,-20,o),
(-153,-20,cs),
(-148,-20,o),
(-144,-19,o),
(-142,-15,cs),
(281,698,ls),
(282,699,o),
(282,701,o),
(282,702,cs),
(282,715,o),
(256,730,o),
(240,730,cs),
(235,730,o),
(230,729,o),
(228,725,cs)
);
}
);
width = 87;
}
);
unicode = 8260;
},
{
glyphname = onehalf;
kernLeft = onehalf;
kernRight = onehalf;
lastChange = "2016-08-09 00:29:22 +0000";
layers = (
{
layerId = UUID0;
shapes = (
{
closed = 1;
nodes = (
(130,653,l),
(130,348,l),
(94,348,l),
(65,348,o),
(60,337,o),
(60,327,cs),
(60,318,o),
(63,308,o),
(89,308,c),
(255,308,l),
(281,308,o),
(284,318,o),
(284,327,cs),
(284,337,o),
(279,348,o),
(250,348,c),
(213,348,l),
(213,677,ls),
(213,700,o),
(203,709,o),
(173,709,cs),
(163,709,o),
(149,707,o),
(139,703,cs),
(60,672,ls),
(44,666,o),
(40,656,o),
(40,651,cs),
(40,642,o),
(49,633,o),
(67,633,cs),
(74,633,o),
(79,634,o),
(84,636,c)
);
},
{
closed = 1;
nodes = (
(161,14,l),
(160,12,o),
(160,11,o),
(160,9,cs),
(160,-4,o),
(185,-20,o),
(202,-20,cs),
(207,-20,o),
(211,-19,o),
(213,-15,cs),
(636,698,ls),
(637,699,o),
(637,701,o),
(637,702,cs),
(637,715,o),
(611,730,o),
(595,730,cs),
(590,730,o),
(585,729,o),
(583,725,cs)
);
},
{
closed = 1;
nodes = (
(552,273,o),
(562,284,o),
(562,314,c),
(562,352,l),
(576,359,o),
(592,364,o),
(604,364,cs),
(648,364,o),
(658,320,o),
(658,289,cs),
(658,259,o),
(645,183,o),
(500,48,cs),
(484,33,o),
(481,25,o),
(481,19,cs),
(481,8,o),
(489,0,o),
(506,0,c),
(705,0,l),
(735,0,o),
(750,5,o),
(750,21,c),
(750,77,ls),
(750,98,o),
(741,108,o),
(717,108,cs),
(690,108,o),
(676,97,o),
(676,68,c),
(676,40,l),
(553,40,l),
(699,160,o),
(746,231,o),
(746,297,cs),
(746,351,o),
(712,401,o),
(625,401,cs),
(581,401,o),
(546,390,o),
(505,365,cs),
(491,356,o),
(487,352,o),
(487,339,c),
(487,305,l),
(487,282,o),
(497,273,o),
(521,273,cs)
);
}
);
width = 800;
}
);
unicode = 189;
},
{
glyphname = onequarter;
kernLeft = onehalf;
kernRight = onehalf;
lastChange = "2016-08-06 20:57:18 +0000";
layers = (
{
layerId = UUID0;
shapes = (
{
closed = 1;
nodes = (
(140,653,l),
(140,348,l),
(104,348,l),
(75,348,o),
(70,337,o),
(70,327,cs),
(70,318,o),
(73,308,o),
(99,308,c),
(265,308,l),
(291,308,o),
(294,318,o),
(294,327,cs),
(294,337,o),
(289,348,o),
(260,348,c),
(223,348,l),
(223,677,ls),
(223,700,o),
(213,709,o),
(183,709,cs),
(173,709,o),
(159,707,o),
(149,703,cs),
(70,672,ls),
(54,666,o),
(50,656,o),
(50,651,cs),
(50,642,o),
(59,633,o),
(77,633,cs),
(84,633,o),
(89,634,o),
(94,636,c)
);
},
{
closed = 1;
nodes = (
(171,14,l),
(170,12,o),
(170,11,o),
(170,9,cs),
(170,-4,o),
(195,-20,o),
(212,-20,cs),
(217,-20,o),
(221,-19,o),
(223,-15,cs),
(646,698,ls),
(647,699,o),
(647,701,o),
(647,702,cs),
(647,715,o),
(621,730,o),
(605,730,cs),
(600,730,o),
(595,729,o),
(593,725,cs)
);
},
{
closed = 1;
nodes = (
(561,40,l),
(532,40,o),
(524,29,o),
(524,19,cs),
(524,10,o),
(531,0,o),
(555,0,c),
(698,0,l),
(724,0,o),
(727,10,o),
(727,19,cs),
(727,29,o),
(722,40,o),
(693,40,c),
(672,40,l),
(672,99,l),
(701,99,ls),
(727,99,o),
(730,108,o),
(730,116,cs),
(730,127,o),
(727,137,o),
(697,137,cs),
(672,137,l),
(672,369,l),
(672,392,o),
(661,401,o),
(633,401,cs),
(613,401,o),
(594,395,o),
(583,378,c),
(417,132,ls),
(412,125,o),
(411,119,o),
(411,116,cs),
(411,107,o),
(416,99,o),
(439,99,cs),
(590,99,l),
(590,40,l)
);
},
{
closed = 1;
nodes = (
(590,137,l),
(479,137,l),
(590,306,l)
);
}
);
width = 800;
}
);
unicode = 188;
},
{
glyphname = threequarters;
kernLeft = onehalf;
kernRight = onehalf;
lastChange = "2016-08-06 20:57:18 +0000";
layers = (
{
layerId = UUID0;
shapes = (
{
closed = 1;
nodes = (
(181,14,l),
(180,12,o),
(180,11,o),
(180,9,cs),
(180,-4,o),
(205,-20,o),
(222,-20,cs),
(227,-20,o),
(231,-19,o),
(233,-15,cs),
(656,698,ls),
(657,699,o),
(657,701,o),
(657,702,cs),
(657,715,o),
(631,730,o),
(615,730,cs),
(610,730,o),
(605,729,o),
(603,725,cs)
);
},
{
closed = 1;
nodes = (
(571,40,l),
(542,40,o),
(534,29,o),
(534,19,cs),
(534,10,o),
(541,0,o),
(565,0,c),
(708,0,l),
(734,0,o),
(737,10,o),
(737,19,cs),
(737,29,o),
(732,40,o),
(703,40,c),
(682,40,l),
(682,99,l),
(711,99,ls),
(737,99,o),
(740,108,o),
(740,116,cs),
(740,127,o),
(737,137,o),
(707,137,cs),
(682,137,l),
(682,369,l),
(682,392,o),
(671,401,o),
(643,401,cs),
(623,401,o),
(604,395,o),
(593,378,c),
(427,132,ls),
(422,125,o),
(421,119,o),
(421,116,cs),
(421,107,o),
(426,99,o),
(449,99,cs),
(600,99,l),
(600,40,l)
);
},
{
closed = 1;
nodes = (
(600,137,l),
(489,137,l),
(600,306,l)
);
},
{
closed = 1;
nodes = (
(59,434,o),
(50,425,o),
(50,402,c),
(50,369,l),
(50,356,o),
(54,345,o),
(68,337,cs),
(104,316,o),
(142,308,o),
(179,308,cs),
(265,308,o),
(322,354,o),
(322,424,cs),
(322,484,o),
(286,511,o),
(239,520,c),
(239,521,l),
(279,531,o),
(310,562,o),
(310,609,cs),
(310,665,o),
(273,709,o),
(187,709,cs),
(144,709,o),
(110,698,o),
(74,676,cs),
(60,668,o),
(55,661,o),
(55,648,c),
(55,614,l),
(55,592,o),
(65,582,o),
(89,582,cs),
(118,582,o),
(130,593,o),
(130,623,c),
(130,662,l),
(142,668,o),
(161,672,o),
(173,672,cs),
(202,672,o),
(225,655,o),
(225,609,cs),
(225,560,o),
(206,537,o),
(166,537,c),
(149,537,l),
(138,537,o),
(129,527,o),
(129,517,cs),
(129,507,o),
(138,497,o),
(149,497,c),
(166,497,l),
(207,497,o),
(236,484,o),
(236,424,cs),
(236,368,o),
(207,344,o),
(172,344,cs),
(155,344,o),
(139,347,o),
(124,354,c),
(124,395,l),
(124,424,o),
(114,434,o),
(83,434,cs)
);
}
);
width = 800;
}
);
unicode = 190;
},
{
glyphname = onesuperior;
kernLeft = onesuperior;
kernRight = onesuperior;
lastChange = "2016-08-09 00:29:29 +0000";
layers = (
{
layerId = UUID0;
shapes = (
{
closed = 1;
nodes = (
(151,653,l),
(151,348,l),
(115,348,l),
(86,348,o),
(81,337,o),
(81,327,cs),
(81,318,o),
(84,308,o),
(110,308,c),
(276,308,l),
(302,308,o),
(305,318,o),
(305,327,cs),
(305,337,o),
(300,348,o),
(271,348,c),
(234,348,l),
(234,677,ls),
(234,700,o),
(224,709,o),
(194,709,cs),
(184,709,o),
(170,707,o),
(160,703,cs),
(81,672,ls),
(65,666,o),
(61,656,o),
(61,651,cs),
(61,642,o),
(70,633,o),
(88,633,cs),
(95,633,o),
(100,634,o),
(105,636,c)
);
}
);
width = 360;
}
);
unicode = 185;
},
{
glyphname = twosuperior;
kernLeft = twosuperior;
kernRight = twosuperior;
lastChange = "2016-08-09 00:29:55 +0000";
layers = (
{
layerId = UUID0;
shapes = (
{
closed = 1;
nodes = (
(102,581,o),
(112,592,o),
(112,622,c),
(112,660,l),
(126,667,o),
(142,672,o),
(154,672,cs),
(198,672,o),
(208,628,o),
(208,597,cs),
(208,567,o),
(195,491,o),
(50,356,cs),
(34,341,o),
(31,333,o),
(31,327,cs),
(31,316,o),
(39,308,o),
(56,308,c),
(255,308,l),
(285,308,o),
(300,313,o),
(300,329,c),
(300,385,ls),
(300,406,o),
(291,416,o),
(267,416,cs),
(240,416,o),
(226,405,o),
(226,376,c),
(226,348,l),
(103,348,l),
(249,468,o),
(296,539,o),
(296,605,cs),
(296,659,o),
(262,709,o),
(175,709,cs),
(131,709,o),
(96,698,o),
(55,673,cs),
(41,664,o),
(37,660,o),
(37,647,c),
(37,613,l),
(37,590,o),
(47,581,o),
(71,581,cs)
);
}
);
width = 360;
}
);
unicode = 178;
},
{
glyphname = threesuperior;
kernLeft = threesuperior;
kernRight = threesuperior;
lastChange = "2016-08-09 00:29:47 +0000";
layers = (
{
layerId = UUID0;
shapes = (
{
closed = 1;
nodes = (
(52,434,o),
(43,425,o),
(43,402,c),
(43,369,l),
(43,356,o),
(47,345,o),
(61,337,cs),
(97,316,o),
(135,308,o),
(172,308,cs),
(258,308,o),
(315,354,o),
(315,424,cs),
(315,484,o),
(279,511,o),
(232,520,c),
(232,521,l),
(272,531,o),
(303,562,o),
(303,609,cs),
(303,665,o),
(266,709,o),
(180,709,cs),
(137,709,o),
(103,698,o),
(67,676,cs),
(53,668,o),
(48,661,o),
(48,648,c),
(48,614,l),
(48,592,o),
(58,582,o),
(82,582,cs),
(111,582,o),
(123,593,o),
(123,623,c),
(123,662,l),
(135,668,o),
(154,672,o),
(166,672,cs),
(195,672,o),
(218,655,o),
(218,609,cs),
(218,560,o),
(199,537,o),
(159,537,c),
(142,537,l),
(131,537,o),
(122,527,o),
(122,517,cs),
(122,507,o),
(131,497,o),
(142,497,c),
(159,497,l),
(200,497,o),
(229,484,o),
(229,424,cs),
(229,368,o),
(200,344,o),
(165,344,cs),
(148,344,o),
(132,347,o),
(117,354,c),
(117,395,l),
(117,424,o),
(107,434,o),
(76,434,cs)
);
}
);
width = 360;
}
);
unicode = 179;
},
{
glyphname = foursuperior;
kernLeft = foursuperior;
kernRight = foursuperior;
lastChange = "2016-08-09 00:29:11 +0000";
layers = (
{
layerId = UUID0;
shapes = (
{
closed = 1;
nodes = (
(155,348,l),
(126,348,o),
(118,337,o),
(118,327,cs),
(118,318,o),
(125,308,o),
(149,308,cs),
(292,308,ls),
(318,308,o),
(321,318,o),
(321,327,cs),
(321,337,o),
(316,348,o),
(287,348,cs),
(266,348,l),
(266,407,l),
(295,407,ls),
(321,407,o),
(324,416,o),
(324,424,cs),
(324,435,o),
(321,445,o),
(291,445,cs),
(266,445,l),
(266,677,ls),
(266,700,o),
(255,709,o),
(227,709,cs),
(207,709,o),
(188,703,o),
(177,686,cs),
(11,440,ls),
(6,433,o),
(5,427,o),
(5,424,cs),
(5,415,o),
(10,407,o),
(33,407,cs),
(184,407,l),
(184,348,l)
);
},
{
closed = 1;
nodes = (
(184,445,l),
(73,445,l),
(184,614,l)
);
}
);
width = 360;
}
);
unicode = 8308;
},
